{
.appVersion = "1342";
copyright = "Font Copyright Copyright 2019 Morisawa Inc. All rights reserved.";
customParameters = (
{
name = trademark;
value = "BIZ UDMincho Heavy is a trademark of Morisawa Inc.";
},
{
name = license;
value = "Google Fonts";
},
{
name = vendorID;
value = MRSW;
},
{
name = panose;
value = (
2,
2,
9,
0,
0,
0,
0,
0,
0,
0
);
},
{
name = unicodeRanges;
value = (
0,
1,
2,
4,
5,
6,
7,
9,
29,
30,
31,
35,
36,
37,
38,
39,
40,
42,
43,
45,
46,
47,
48,
49,
50,
54,
55,
57,
59,
61,
65,
68
);
},
{
name = fsType;
value = (
2
);
}
);
date = "2019-04-02 01:04:19 +0000";
designer = "TypeBank Co., Ltd.";
designerURL = "http://www.morisawa.co.jp/";
disablesAutomaticAlignment = 1;
familyName = "BIZ-UDMinchoExt";
fontMaster = (
{
ascender = 1802;
capHeight = 1567;
custom = Heavy;
customParameters = (
{
name = typoAscender;
value = 1802;
},
{
name = typoDescender;
value = -246;
},
{
name = typoLineGap;
value = 0;
},
{
name = winAscent;
value = 1802;
},
{
name = winDescent;
value = 246;
},
{
name = hheaAscender;
value = 1802;
},
{
name = hheaDescender;
value = -246;
},
{
name = strikeoutPosition;
value = 727;
},
{
name = strikeoutSize;
value = 102;
},
{
name = underlinePosition;
value = -246;
},
{
name = underlineThickness;
value = 102;
},
{
name = hheaLineGap;
value = 0;
},
{
name = vheaVertAscender;
value = 1802;
},
{
name = vheaVertDescender;
value = 246;
},
{
name = vheaVertLineGap;
value = 0;
}
);
descender = -246;
id = "4E782664-D0D5-4FED-AFC2-B9212141A2ED";
weightValue = 400;
widthValue = 5;
xHeight = 1108;
}
);
glyphs = (
{
color = 3;
glyphname = Cdotaccent;
lastChange = "2022-11-08 17:59:27 +0000";
layers = (
{
layerId = "4E782664-D0D5-4FED-AFC2-B9212141A2ED";
paths = (
{
closed = 1;
nodes = (
"490 1491 OFFCURVE",
"434 1478 OFFCURVE",
"385 1451 CURVE SMOOTH",
"286 1398 OFFCURVE",
"212 1300 OFFCURVE",
"162 1169 CURVE SMOOTH",
"112 1038 OFFCURVE",
"86 882 OFFCURVE",
"86 713 CURVE SMOOTH",
"86 480 OFFCURVE",
"135 292 OFFCURVE",
"219 161 CURVE SMOOTH",
"302 30 OFFCURVE",
"414 -41 OFFCURVE",
"541 -41 CURVE SMOOTH",
"590 -41 OFFCURVE",
"633 -32 OFFCURVE",
"670 -15 CURVE SMOOTH",
"744 20 OFFCURVE",
"797 81 OFFCURVE",
"837 157 CURVE SMOOTH",
"876 233 OFFCURVE",
"901 320 OFFCURVE",
"920 403 CURVE",
"842 449 LINE",
"822 370 OFFCURVE",
"793 287 OFFCURVE",
"753 222 CURVE SMOOTH",
"712 157 OFFCURVE",
"658 113 OFFCURVE",
"586 113 CURVE SMOOTH",
"531 113 OFFCURVE",
"484 137 OFFCURVE",
"445 186 CURVE SMOOTH",
"367 282 OFFCURVE",
"324 466 OFFCURVE",
"324 711 CURVE SMOOTH",
"324 852 OFFCURVE",
"334 971 OFFCURVE",
"355 1070 CURVE SMOOTH",
"395 1267 OFFCURVE",
"470 1374 OFFCURVE",
"559 1374 CURVE SMOOTH",
"616 1374 OFFCURVE",
"666 1314 OFFCURVE",
"709 1227 CURVE SMOOTH",
"744 1162 OFFCURVE",
"774 1072 OFFCURVE",
"786 985 CURVE",
"868 985 LINE",
"868 1468 LINE",
"799 1468 LINE",
"797 1439 OFFCURVE",
"793 1418 OFFCURVE",
"788 1405 CURVE SMOOTH",
"783 1392 OFFCURVE",
"777 1386 OFFCURVE",
"772 1386 CURVE SMOOTH",
"765 1386 OFFCURVE",
"759 1389 OFFCURVE",
"754 1394 CURVE SMOOTH",
"749 1399 OFFCURVE",
"742 1404 OFFCURVE",
"735 1409 CURVE SMOOTH",
"676 1458 OFFCURVE",
"622 1491 OFFCURVE",
"551 1491 CURVE SMOOTH"
);
},
{
closed = 1;
nodes = (
"522 1802 OFFCURVE",
"500 1796 OFFCURVE",
"479 1784 CURVE SMOOTH",
"438 1759 OFFCURVE",
"411 1716 OFFCURVE",
"411 1667 CURVE SMOOTH",
"411 1642 OFFCURVE",
"417 1620 OFFCURVE",
"430 1600 CURVE SMOOTH",
"454 1559 OFFCURVE",
"498 1532 OFFCURVE",
"546 1532 CURVE SMOOTH",
"571 1532 OFFCURVE",
"593 1538 OFFCURVE",
"614 1551 CURVE SMOOTH",
"655 1575 OFFCURVE",
"682 1618 OFFCURVE",
"682 1667 CURVE SMOOTH",
"682 1692 OFFCURVE",
"676 1714 OFFCURVE",
"664 1735 CURVE SMOOTH",
"639 1775 OFFCURVE",
"595 1802 OFFCURVE",
"546 1802 CURVE SMOOTH"
);
}
);
vertWidth = 2048;
width = 1024;
}
);
unicode = 010A;
},
{
color = 3;
glyphname = Dcroat;
lastChange = "2022-11-08 17:59:38 +0000";
layers = (
{
layerId = "4E782664-D0D5-4FED-AFC2-B9212141A2ED";
paths = (
{
closed = 1;
nodes = (
"23 768 LINE",
"131 768 LINE",
"131 223 LINE SMOOTH",
"131 188 OFFCURVE",
"125 166 OFFCURVE",
"113 147 CURVE SMOOTH",
"101 130 OFFCURVE",
"77 115 OFFCURVE",
"41 100 CURVE",
"41 0 LINE",
"426 0 LINE SMOOTH",
"487 0 OFFCURVE",
"543 7 OFFCURVE",
"596 22 CURVE SMOOTH",
"700 50 OFFCURVE",
"785 109 OFFCURVE",
"855 245 CURVE SMOOTH",
"925 380 OFFCURVE",
"965 566 OFFCURVE",
"965 782 CURVE SMOOTH",
"965 885 OFFCURVE",
"956 981 OFFCURVE",
"938 1068 CURVE SMOOTH",
"902 1243 OFFCURVE",
"834 1379 OFFCURVE",
"739 1456 CURVE SMOOTH",
"666 1519 OFFCURVE",
"555 1556 OFFCURVE",
"420 1556 CURVE SMOOTH",
"41 1556 LINE",
"41 1456 LINE",
"78 1451 OFFCURVE",
"100 1442 OFFCURVE",
"113 1423 CURVE SMOOTH",
"125 1407 OFFCURVE",
"131 1380 OFFCURVE",
"131 1341 CURVE SMOOTH",
"131 895 LINE",
"23 895 LINE"
);
},
{
closed = 1;
nodes = (
"461 1434 LINE SMOOTH",
"526 1434 OFFCURVE",
"571 1408 OFFCURVE",
"618 1325 CURVE SMOOTH",
"682 1214 OFFCURVE",
"721 1040 OFFCURVE",
"721 797 CURVE SMOOTH",
"721 532 OFFCURVE",
"676 355 OFFCURVE",
"627 256 CURVE SMOOTH",
"608 219 OFFCURVE",
"588 190 OFFCURVE",
"569 171 CURVE SMOOTH",
"530 132 OFFCURVE",
"494 123 OFFCURVE",
"459 123 CURVE SMOOTH",
"428 123 LINE SMOOTH",
"400 123 OFFCURVE",
"380 134 OFFCURVE",
"369 156 CURVE SMOOTH",
"356 179 OFFCURVE",
"352 211 OFFCURVE",
"352 236 CURVE SMOOTH",
"352 768 LINE",
"504 768 LINE",
"504 895 LINE",
"352 895 LINE",
"352 1327 LINE SMOOTH",
"352 1352 OFFCURVE",
"356 1390 OFFCURVE",
"369 1407 CURVE SMOOTH",
"381 1425 OFFCURVE",
"402 1434 OFFCURVE",
"432 1434 CURVE SMOOTH"
);
}
);
vertWidth = 2048;
width = 1024;
}
);
unicode = 0110;
},
{
color = 3;
glyphname = Ebreve;
lastChange = "2022-11-08 18:00:08 +0000";
layers = (
{
layerId = "4E782664-D0D5-4FED-AFC2-B9212141A2ED";
paths = (
{
closed = 1;
nodes = (
"76 1454 LINE",
"76 1360 LINE",
"135 1355 OFFCURVE",
"157 1350 OFFCURVE",
"174 1321 CURVE SMOOTH",
"190 1296 OFFCURVE",
"195 1268 OFFCURVE",
"195 1217 CURVE SMOOTH",
"195 248 LINE SMOOTH",
"195 191 OFFCURVE",
"189 162 OFFCURVE",
"170 139 CURVE SMOOTH",
"153 118 OFFCURVE",
"123 102 OFFCURVE",
"76 98 CURVE",
"76 0 LINE",
"903 0 LINE",
"924 449 LINE",
"852 449 LINE",
"835 358 OFFCURVE",
"811 285 OFFCURVE",
"776 225 CURVE SMOOTH",
"735 156 OFFCURVE",
"680 115 OFFCURVE",
"588 115 CURVE SMOOTH",
"506 115 LINE SMOOTH",
"478 115 OFFCURVE",
"455 125 OFFCURVE",
"436 145 CURVE SMOOTH",
"420 164 OFFCURVE",
"416 203 OFFCURVE",
"416 252 CURVE SMOOTH",
"416 688 LINE",
"500 688 LINE SMOOTH",
"549 688 OFFCURVE",
"581 664 OFFCURVE",
"602 633 CURVE SMOOTH",
"625 602 OFFCURVE",
"642 547 OFFCURVE",
"643 479 CURVE",
"723 479 LINE",
"723 1001 LINE",
"643 1001 LINE",
"642 944 OFFCURVE",
"623 889 OFFCURVE",
"602 858 CURVE SMOOTH",
"582 827 OFFCURVE",
"549 807 OFFCURVE",
"500 807 CURVE SMOOTH",
"416 807 LINE",
"416 1206 LINE SMOOTH",
"416 1255 OFFCURVE",
"423 1291 OFFCURVE",
"438 1315 CURVE SMOOTH",
"449 1330 OFFCURVE",
"471 1339 OFFCURVE",
"512 1339 CURVE SMOOTH",
"588 1339 LINE SMOOTH",
"647 1339 OFFCURVE",
"708 1316 OFFCURVE",
"745 1249 CURVE SMOOTH",
"782 1188 OFFCURVE",
"810 1108 OFFCURVE",
"823 1057 CURVE",
"895 1057 LINE",
"879 1454 LINE"
);
},
{
closed = 1;
nodes = (
"190 1800 LINE",
"203 1735 OFFCURVE",
"226 1683 OFFCURVE",
"257 1642 CURVE SMOOTH",
"320 1560 OFFCURVE",
"411 1522 OFFCURVE",
"512 1522 CURVE SMOOTH",
"563 1522 OFFCURVE",
"610 1532 OFFCURVE",
"654 1551 CURVE SMOOTH",
"742 1590 OFFCURVE",
"809 1671 OFFCURVE",
"834 1800 CURVE",
"717 1800 LINE",
"680 1727 OFFCURVE",
"613 1677 OFFCURVE",
"510 1677 CURVE SMOOTH",
"477 1677 OFFCURVE",
"448 1682 OFFCURVE",
"425 1693 CURVE SMOOTH",
"377 1713 OFFCURVE",
"343 1751 OFFCURVE",
"307 1800 CURVE"
);
}
);
vertWidth = 2048;
width = 1024;
}
);
unicode = 0114;
},
{
color = 3;
glyphname = Edotaccent;
lastChange = "2022-11-08 17:59:58 +0000";
layers = (
{
layerId = "4E782664-D0D5-4FED-AFC2-B9212141A2ED";
paths = (
{
closed = 1;
nodes = (
"76 1454 LINE",
"76 1360 LINE",
"135 1355 OFFCURVE",
"157 1350 OFFCURVE",
"174 1321 CURVE SMOOTH",
"190 1296 OFFCURVE",
"195 1268 OFFCURVE",
"195 1217 CURVE SMOOTH",
"195 248 LINE SMOOTH",
"195 191 OFFCURVE",
"189 162 OFFCURVE",
"170 139 CURVE SMOOTH",
"153 118 OFFCURVE",
"123 102 OFFCURVE",
"76 98 CURVE",
"76 0 LINE",
"903 0 LINE",
"924 449 LINE",
"852 449 LINE",
"835 358 OFFCURVE",
"811 285 OFFCURVE",
"776 225 CURVE SMOOTH",
"735 156 OFFCURVE",
"680 115 OFFCURVE",
"588 115 CURVE SMOOTH",
"506 115 LINE SMOOTH",
"478 115 OFFCURVE",
"455 125 OFFCURVE",
"436 145 CURVE SMOOTH",
"420 164 OFFCURVE",
"416 203 OFFCURVE",
"416 252 CURVE SMOOTH",
"416 688 LINE",
"500 688 LINE SMOOTH",
"549 688 OFFCURVE",
"581 664 OFFCURVE",
"602 633 CURVE SMOOTH",
"625 602 OFFCURVE",
"642 547 OFFCURVE",
"643 479 CURVE",
"723 479 LINE",
"723 1001 LINE",
"643 1001 LINE",
"642 944 OFFCURVE",
"623 889 OFFCURVE",
"602 858 CURVE SMOOTH",
"582 827 OFFCURVE",
"549 807 OFFCURVE",
"500 807 CURVE SMOOTH",
"416 807 LINE",
"416 1206 LINE SMOOTH",
"416 1255 OFFCURVE",
"423 1291 OFFCURVE",
"438 1315 CURVE SMOOTH",
"449 1330 OFFCURVE",
"471 1339 OFFCURVE",
"512 1339 CURVE SMOOTH",
"588 1339 LINE SMOOTH",
"647 1339 OFFCURVE",
"708 1316 OFFCURVE",
"745 1249 CURVE SMOOTH",
"782 1188 OFFCURVE",
"810 1108 OFFCURVE",
"823 1057 CURVE",
"895 1057 LINE",
"879 1454 LINE"
);
},
{
closed = 1;
nodes = (
"502 1802 OFFCURVE",
"480 1796 OFFCURVE",
"459 1784 CURVE SMOOTH",
"418 1759 OFFCURVE",
"391 1716 OFFCURVE",
"391 1667 CURVE SMOOTH",
"391 1642 OFFCURVE",
"397 1620 OFFCURVE",
"410 1600 CURVE SMOOTH",
"434 1559 OFFCURVE",
"478 1532 OFFCURVE",
"526 1532 CURVE SMOOTH",
"551 1532 OFFCURVE",
"573 1538 OFFCURVE",
"594 1551 CURVE SMOOTH",
"635 1575 OFFCURVE",
"662 1618 OFFCURVE",
"662 1667 CURVE SMOOTH",
"662 1692 OFFCURVE",
"656 1714 OFFCURVE",
"644 1735 CURVE SMOOTH",
"619 1775 OFFCURVE",
"575 1802 OFFCURVE",
"526 1802 CURVE SMOOTH"
);
}
);
vertWidth = 2048;
width = 1024;
}
);
unicode = 0116;
},
{
color = 3;
glyphname = Gbreve;
lastChange = "2022-11-08 18:00:26 +0000";
layers = (
{
layerId = "4E782664-D0D5-4FED-AFC2-B9212141A2ED";
paths = (
{
closed = 1;
nodes = (
"484 1493 OFFCURVE",
"428 1480 OFFCURVE",
"378 1453 CURVE SMOOTH",
"278 1400 OFFCURVE",
"201 1302 OFFCURVE",
"149 1174 CURVE SMOOTH",
"97 1045 OFFCURVE",
"70 891 OFFCURVE",
"70 727 CURVE SMOOTH",
"70 472 OFFCURVE",
"121 281 OFFCURVE",
"202 153 CURVE SMOOTH",
"282 25 OFFCURVE",
"385 -39 OFFCURVE",
"489 -39 CURVE SMOOTH",
"535 -39 OFFCURVE",
"575 -32 OFFCURVE",
"608 -17 CURVE SMOOTH",
"674 12 OFFCURVE",
"716 61 OFFCURVE",
"739 113 CURVE",
"784 -39 LINE",
"897 -39 LINE",
"897 520 LINE SMOOTH",
"897 559 OFFCURVE",
"904 585 OFFCURVE",
"918 600 CURVE SMOOTH",
"930 612 OFFCURVE",
"944 626 OFFCURVE",
"977 631 CURVE",
"977 725 LINE",
"598 725 LINE",
"598 631 LINE",
"629 626 OFFCURVE",
"652 615 OFFCURVE",
"668 600 CURVE SMOOTH",
"683 584 OFFCURVE",
"688 555 OFFCURVE",
"688 520 CURVE SMOOTH",
"688 391 LINE SMOOTH",
"688 298 OFFCURVE",
"666 232 OFFCURVE",
"645 193 CURVE SMOOTH",
"615 135 OFFCURVE",
"576 106 OFFCURVE",
"528 106 CURVE SMOOTH",
"481 106 OFFCURVE",
"430 158 OFFCURVE",
"388 262 CURVE SMOOTH",
"346 366 OFFCURVE",
"317 522 OFFCURVE",
"317 727 CURVE SMOOTH",
"317 860 OFFCURVE",
"327 975 OFFCURVE",
"346 1072 CURVE SMOOTH",
"384 1266 OFFCURVE",
"454 1376 OFFCURVE",
"545 1376 CURVE SMOOTH",
"582 1376 OFFCURVE",
"613 1364 OFFCURVE",
"639 1339 CURVE SMOOTH",
"691 1289 OFFCURVE",
"734 1215 OFFCURVE",
"755 1136 CURVE SMOOTH",
"766 1096 OFFCURVE",
"778 1052 OFFCURVE",
"791 1004 CURVE",
"883 1004 LINE",
"883 1470 LINE",
"811 1470 LINE",
"807 1430 OFFCURVE",
"791 1389 OFFCURVE",
"774 1389 CURVE SMOOTH",
"767 1389 OFFCURVE",
"752 1398 OFFCURVE",
"731 1417 CURVE SMOOTH",
"716 1432 OFFCURVE",
"698 1445 OFFCURVE",
"677 1456 CURVE SMOOTH",
"634 1479 OFFCURVE",
"586 1493 OFFCURVE",
"545 1493 CURVE SMOOTH"
);
},
{
closed = 1;
nodes = (
"223 1800 LINE",
"236 1735 OFFCURVE",
"259 1683 OFFCURVE",
"290 1642 CURVE SMOOTH",
"353 1560 OFFCURVE",
"444 1522 OFFCURVE",
"545 1522 CURVE SMOOTH",
"596 1522 OFFCURVE",
"643 1532 OFFCURVE",
"687 1551 CURVE SMOOTH",
"775 1590 OFFCURVE",
"842 1671 OFFCURVE",
"867 1800 CURVE",
"750 1800 LINE",
"713 1727 OFFCURVE",
"646 1677 OFFCURVE",
"543 1677 CURVE SMOOTH",
"510 1677 OFFCURVE",
"481 1682 OFFCURVE",
"458 1693 CURVE SMOOTH",
"410 1713 OFFCURVE",
"376 1751 OFFCURVE",
"340 1800 CURVE"
);
}
);
vertWidth = 2048;
width = 1024;
}
);
unicode = 011E;
},
{
color = 3;
glyphname = Gcommaaccent;
lastChange = "2022-11-08 19:06:43 +0000";
layers = (
{
background = {
paths = (
{
closed = 1;
nodes = (
"377 -39 LINE",
"437 82 LINE",
"346 123 OFFCURVE",
"276 196 OFFCURVE",
"227 301 CURVE SMOOTH",
"164 435 OFFCURVE",
"133 609 OFFCURVE",
"133 823 CURVE SMOOTH",
"133 1052 OFFCURVE",
"166 1235 OFFCURVE",
"232 1372 CURVE SMOOTH",
"304 1521 OFFCURVE",
"404 1596 OFFCURVE",
"532 1596 CURVE SMOOTH",
"605 1596 OFFCURVE",
"667 1559 OFFCURVE",
"720 1485 CURVE SMOOTH",
"731 1468 OFFCURVE",
"742 1460 OFFCURVE",
"751 1460 CURVE SMOOTH",
"763 1460 OFFCURVE",
"771 1492 OFFCURVE",
"776 1557 CURVE",
"842 1557 LINE",
"842 1121 LINE",
"770 1121 LINE",
"751 1234 OFFCURVE",
"724 1320 OFFCURVE",
"689 1378 CURVE SMOOTH",
"646 1449 OFFCURVE",
"597 1485 OFFCURVE",
"542 1485 CURVE SMOOTH",
"463 1485 OFFCURVE",
"400 1430 OFFCURVE",
"353 1321 CURVE SMOOTH",
"303 1203 OFFCURVE",
"278 1037 OFFCURVE",
"278 822 CURVE SMOOTH",
"278 625 OFFCURVE",
"304 470 OFFCURVE",
"355 359 CURVE SMOOTH",
"404 251 OFFCURVE",
"472 197 OFFCURVE",
"557 197 CURVE SMOOTH",
"630 197 OFFCURVE",
"688 242 OFFCURVE",
"733 333 CURVE SMOOTH",
"764 395 OFFCURVE",
"791 487 OFFCURVE",
"815 609 CURVE",
"887 574 LINE",
"861 392 OFFCURVE",
"821 262 OFFCURVE",
"766 184 CURVE SMOOTH",
"713 109 OFFCURVE",
"638 69 OFFCURVE",
"541 64 CURVE",
"508 -4 LINE",
"683 -6 OFFCURVE",
"770 -39 OFFCURVE",
"770 -104 CURVE SMOOTH",
"770 -152 OFFCURVE",
"737 -187 OFFCURVE",
"671 -208 CURVE SMOOTH",
"605 -229 OFFCURVE",
"489 -241 OFFCURVE",
"324 -243 CURVE",
"303 -180 LINE",
"490 -180 OFFCURVE",
"584 -162 OFFCURVE",
"584 -125 CURVE SMOOTH",
"584 -98 OFFCURVE",
"515 -85 OFFCURVE",
"377 -84 CURVE"
);
}
);
};
layerId = "4E782664-D0D5-4FED-AFC2-B9212141A2ED";
paths = (
{
closed = 1;
nodes = (
"535 64 OFFCURVE",
"575 71 OFFCURVE",
"608 86 CURVE SMOOTH",
"674 115 OFFCURVE",
"716 164 OFFCURVE",
"739 216 CURVE",
"784 64 LINE",
"897 64 LINE",
"897 623 LINE SMOOTH",
"897 662 OFFCURVE",
"904 688 OFFCURVE",
"918 703 CURVE SMOOTH",
"930 715 OFFCURVE",
"944 729 OFFCURVE",
"977 734 CURVE",
"977 828 LINE",
"598 828 LINE",
"598 734 LINE",
"629 729 OFFCURVE",
"652 718 OFFCURVE",
"668 703 CURVE SMOOTH",
"683 687 OFFCURVE",
"688 658 OFFCURVE",
"688 623 CURVE SMOOTH",
"688 494 LINE SMOOTH",
"688 401 OFFCURVE",
"666 335 OFFCURVE",
"645 296 CURVE SMOOTH",
"615 238 OFFCURVE",
"576 209 OFFCURVE",
"528 209 CURVE SMOOTH",
"481 209 OFFCURVE",
"430 261 OFFCURVE",
"388 365 CURVE SMOOTH",
"346 469 OFFCURVE",
"317 625 OFFCURVE",
"317 830 CURVE SMOOTH",
"317 963 OFFCURVE",
"327 1078 OFFCURVE",
"346 1175 CURVE SMOOTH",
"384 1369 OFFCURVE",
"454 1479 OFFCURVE",
"545 1479 CURVE SMOOTH",
"582 1479 OFFCURVE",
"613 1467 OFFCURVE",
"639 1442 CURVE SMOOTH",
"691 1392 OFFCURVE",
"734 1318 OFFCURVE",
"755 1239 CURVE SMOOTH",
"766 1199 OFFCURVE",
"778 1155 OFFCURVE",
"791 1107 CURVE",
"883 1107 LINE",
"883 1573 LINE",
"811 1573 LINE",
"807 1533 OFFCURVE",
"791 1492 OFFCURVE",
"774 1492 CURVE SMOOTH",
"767 1492 OFFCURVE",
"752 1501 OFFCURVE",
"731 1520 CURVE SMOOTH",
"716 1535 OFFCURVE",
"698 1548 OFFCURVE",
"677 1559 CURVE SMOOTH",
"634 1582 OFFCURVE",
"586 1596 OFFCURVE",
"545 1596 CURVE SMOOTH",
"484 1596 OFFCURVE",
"428 1583 OFFCURVE",
"378 1556 CURVE SMOOTH",
"278 1503 OFFCURVE",
"201 1405 OFFCURVE",
"149 1277 CURVE SMOOTH",
"97 1148 OFFCURVE",
"70 994 OFFCURVE",
"70 830 CURVE SMOOTH",
"70 575 OFFCURVE",
"121 384 OFFCURVE",
"202 256 CURVE SMOOTH",
"282 128 OFFCURVE",
"385 64 OFFCURVE",
"489 64 CURVE SMOOTH"
);
},
{
closed = 1;
nodes = (
"650 -205 OFFCURVE",
"699 -164 OFFCURVE",
"699 -97 CURVE SMOOTH",
"699 -16 OFFCURVE",
"623 21 OFFCURVE",
"519 21 CURVE SMOOTH",
"420 21 OFFCURVE",
"350 -13 OFFCURVE",
"350 -76 CURVE SMOOTH",
"350 -136 OFFCURVE",
"428 -160 OFFCURVE",
"540 -160 CURVE",
"538 -178 OFFCURVE",
"516 -194 OFFCURVE",
"476 -211 CURVE",
"577 -246 LINE"
);
}
);
vertWidth = 2048;
width = 1024;
}
);
unicode = 0122;
},
{
color = 3;
glyphname = Gdotaccent;
lastChange = "2022-11-08 18:00:38 +0000";
layers = (
{
layerId = "4E782664-D0D5-4FED-AFC2-B9212141A2ED";
paths = (
{
closed = 1;
nodes = (
"484 1493 OFFCURVE",
"428 1480 OFFCURVE",
"378 1453 CURVE SMOOTH",
"278 1400 OFFCURVE",
"201 1302 OFFCURVE",
"149 1174 CURVE SMOOTH",
"97 1045 OFFCURVE",
"70 891 OFFCURVE",
"70 727 CURVE SMOOTH",
"70 472 OFFCURVE",
"121 281 OFFCURVE",
"202 153 CURVE SMOOTH",
"282 25 OFFCURVE",
"385 -39 OFFCURVE",
"489 -39 CURVE SMOOTH",
"535 -39 OFFCURVE",
"575 -32 OFFCURVE",
"608 -17 CURVE SMOOTH",
"674 12 OFFCURVE",
"716 61 OFFCURVE",
"739 113 CURVE",
"784 -39 LINE",
"897 -39 LINE",
"897 520 LINE SMOOTH",
"897 559 OFFCURVE",
"904 585 OFFCURVE",
"918 600 CURVE SMOOTH",
"930 612 OFFCURVE",
"944 626 OFFCURVE",
"977 631 CURVE",
"977 725 LINE",
"598 725 LINE",
"598 631 LINE",
"629 626 OFFCURVE",
"652 615 OFFCURVE",
"668 600 CURVE SMOOTH",
"683 584 OFFCURVE",
"688 555 OFFCURVE",
"688 520 CURVE SMOOTH",
"688 391 LINE SMOOTH",
"688 298 OFFCURVE",
"666 232 OFFCURVE",
"645 193 CURVE SMOOTH",
"615 135 OFFCURVE",
"576 106 OFFCURVE",
"528 106 CURVE SMOOTH",
"481 106 OFFCURVE",
"430 158 OFFCURVE",
"388 262 CURVE SMOOTH",
"346 366 OFFCURVE",
"317 522 OFFCURVE",
"317 727 CURVE SMOOTH",
"317 860 OFFCURVE",
"327 975 OFFCURVE",
"346 1072 CURVE SMOOTH",
"384 1266 OFFCURVE",
"454 1376 OFFCURVE",
"545 1376 CURVE SMOOTH",
"582 1376 OFFCURVE",
"613 1364 OFFCURVE",
"639 1339 CURVE SMOOTH",
"691 1289 OFFCURVE",
"734 1215 OFFCURVE",
"755 1136 CURVE SMOOTH",
"766 1096 OFFCURVE",
"778 1052 OFFCURVE",
"791 1004 CURVE",
"883 1004 LINE",
"883 1470 LINE",
"811 1470 LINE",
"807 1430 OFFCURVE",
"791 1389 OFFCURVE",
"774 1389 CURVE SMOOTH",
"767 1389 OFFCURVE",
"752 1398 OFFCURVE",
"731 1417 CURVE SMOOTH",
"716 1432 OFFCURVE",
"698 1445 OFFCURVE",
"677 1456 CURVE SMOOTH",
"634 1479 OFFCURVE",
"586 1493 OFFCURVE",
"545 1493 CURVE SMOOTH"
);
},
{
closed = 1;
nodes = (
"522 1802 OFFCURVE",
"500 1796 OFFCURVE",
"479 1784 CURVE SMOOTH",
"438 1759 OFFCURVE",
"411 1716 OFFCURVE",
"411 1667 CURVE SMOOTH",
"411 1642 OFFCURVE",
"417 1620 OFFCURVE",
"430 1600 CURVE SMOOTH",
"454 1559 OFFCURVE",
"498 1532 OFFCURVE",
"546 1532 CURVE SMOOTH",
"571 1532 OFFCURVE",
"593 1538 OFFCURVE",
"614 1551 CURVE SMOOTH",
"655 1575 OFFCURVE",
"682 1618 OFFCURVE",
"682 1667 CURVE SMOOTH",
"682 1692 OFFCURVE",
"676 1714 OFFCURVE",
"664 1735 CURVE SMOOTH",
"639 1775 OFFCURVE",
"595 1802 OFFCURVE",
"546 1802 CURVE SMOOTH"
);
}
);
vertWidth = 2048;
width = 1024;
}
);
unicode = 0120;
},
{
color = 3;
glyphname = Hbar;
lastChange = "2022-11-08 20:01:19 +0000";
layers = (
{
background = {
paths = (
{
closed = 1;
nodes = (
"41 1556 LINE",
"41 1456 LINE",
"78 1451 OFFCURVE",
"100 1442 OFFCURVE",
"113 1423 CURVE SMOOTH",
"125 1407 OFFCURVE",
"131 1380 OFFCURVE",
"131 1341 CURVE SMOOTH",
"131 223 LINE SMOOTH",
"131 188 OFFCURVE",
"125 166 OFFCURVE",
"113 147 CURVE SMOOTH",
"101 130 OFFCURVE",
"77 115 OFFCURVE",
"41 100 CURVE",
"41 0 LINE",
"440 0 LINE",
"440 100 LINE",
"407 115 OFFCURVE",
"384 130 OFFCURVE",
"371 147 CURVE SMOOTH",
"356 166 OFFCURVE",
"352 190 OFFCURVE",
"352 225 CURVE SMOOTH",
"352 745 LINE",
"672 745 LINE",
"672 225 LINE SMOOTH",
"672 190 OFFCURVE",
"668 166 OFFCURVE",
"653 147 CURVE SMOOTH",
"640 130 OFFCURVE",
"617 115 OFFCURVE",
"584 100 CURVE",
"584 0 LINE",
"983 0 LINE",
"983 100 LINE",
"947 115 OFFCURVE",
"923 130 OFFCURVE",
"911 147 CURVE SMOOTH",
"899 166 OFFCURVE",
"893 188 OFFCURVE",
"893 223 CURVE SMOOTH",
"893 1341 LINE SMOOTH",
"893 1380 OFFCURVE",
"899 1407 OFFCURVE",
"911 1423 CURVE SMOOTH",
"924 1442 OFFCURVE",
"946 1451 OFFCURVE",
"983 1456 CURVE",
"983 1556 LINE",
"590 1556 LINE",
"590 1456 LINE",
"623 1447 OFFCURVE",
"643 1436 OFFCURVE",
"655 1417 CURVE",
"668 1401 OFFCURVE",
"672 1376 OFFCURVE",
"672 1341 CURVE SMOOTH",
"672 872 LINE",
"352 872 LINE",
"352 1341 LINE SMOOTH",
"352 1376 OFFCURVE",
"356 1401 OFFCURVE",
"369 1417 CURVE",
"381 1436 OFFCURVE",
"401 1447 OFFCURVE",
"434 1456 CURVE",
"434 1556 LINE"
);
},
{
closed = 1;
nodes = (
"688 1093 LINE",
"688 1220 LINE",
"336 1220 LINE",
"336 1093 LINE"
);
}
);
};
layerId = "4E782664-D0D5-4FED-AFC2-B9212141A2ED";
paths = (
{
closed = 1;
nodes = (
"924 1442 OFFCURVE",
"946 1451 OFFCURVE",
"983 1456 CURVE",
"983 1556 LINE",
"590 1556 LINE",
"590 1456 LINE",
"623 1447 OFFCURVE",
"643 1436 OFFCURVE",
"655 1417 CURVE",
"668 1401 OFFCURVE",
"672 1376 OFFCURVE",
"672 1341 CURVE SMOOTH",
"672 1220 LINE",
"352 1220 LINE",
"352 1341 LINE SMOOTH",
"352 1376 OFFCURVE",
"356 1401 OFFCURVE",
"369 1417 CURVE",
"381 1436 OFFCURVE",
"401 1447 OFFCURVE",
"434 1456 CURVE",
"434 1556 LINE",
"41 1556 LINE",
"41 1456 LINE",
"78 1451 OFFCURVE",
"100 1442 OFFCURVE",
"113 1423 CURVE SMOOTH",
"125 1407 OFFCURVE",
"131 1380 OFFCURVE",
"131 1341 CURVE SMOOTH",
"131 223 LINE SMOOTH",
"131 188 OFFCURVE",
"125 166 OFFCURVE",
"113 147 CURVE SMOOTH",
"101 130 OFFCURVE",
"77 115 OFFCURVE",
"41 100 CURVE",
"41 0 LINE",
"440 0 LINE",
"440 100 LINE",
"407 115 OFFCURVE",
"384 130 OFFCURVE",
"371 147 CURVE SMOOTH",
"356 166 OFFCURVE",
"352 190 OFFCURVE",
"352 225 CURVE SMOOTH",
"352 745 LINE",
"672 745 LINE",
"672 225 LINE SMOOTH",
"672 190 OFFCURVE",
"668 166 OFFCURVE",
"653 147 CURVE SMOOTH",
"640 130 OFFCURVE",
"617 115 OFFCURVE",
"584 100 CURVE",
"584 0 LINE",
"983 0 LINE",
"983 100 LINE",
"947 115 OFFCURVE",
"923 130 OFFCURVE",
"911 147 CURVE SMOOTH",
"899 166 OFFCURVE",
"893 188 OFFCURVE",
"893 223 CURVE SMOOTH",
"893 1341 LINE SMOOTH",
"893 1380 OFFCURVE",
"899 1407 OFFCURVE",
"911 1423 CURVE SMOOTH"
);
},
{
closed = 1;
nodes = (
"672 1093 LINE",
"672 872 LINE",
"352 872 LINE",
"352 1093 LINE"
);
}
);
vertWidth = 2048;
width = 1024;
}
);
unicode = 0126;
},
{
color = 3;
glyphname = IJ;
lastChange = "2022-11-08 18:52:17 +0000";
layers = (
{
background = {
paths = (
{
closed = 1;
nodes = (
"574 1556 LINE",
"961 1556 LINE",
"961 1482 LINE",
"911 1479 OFFCURVE",
"877 1468 OFFCURVE",
"860 1449 CURVE SMOOTH",
"845 1433 OFFCURVE",
"838 1407 OFFCURVE",
"838 1370 CURVE SMOOTH",
"838 366 LINE SMOOTH",
"838 250 OFFCURVE",
"818 160 OFFCURVE",
"779 96 CURVE SMOOTH",
"719 -1 OFFCURVE",
"604 -39 OFFCURVE",
"472 -39 CURVE SMOOTH",
"300 -39 OFFCURVE",
"151 64 OFFCURVE",
"151 200 CURVE SMOOTH",
"151 223 OFFCURVE",
"155 243 OFFCURVE",
"164 260 CURVE SMOOTH",
"183 297 OFFCURVE",
"214 315 OFFCURVE",
"257 315 CURVE SMOOTH",
"294 315 OFFCURVE",
"324 301 OFFCURVE",
"346 274 CURVE SMOOTH",
"361 255 OFFCURVE",
"368 233 OFFCURVE",
"368 208 CURVE SMOOTH",
"368 166 OFFCURVE",
"348 133 OFFCURVE",
"307 109 CURVE",
"338 76 OFFCURVE",
"393 59 OFFCURVE",
"472 59 CURVE SMOOTH",
"627 59 OFFCURVE",
"705 163 OFFCURVE",
"705 371 CURVE SMOOTH",
"705 1370 LINE SMOOTH",
"705 1412 OFFCURVE",
"695 1441 OFFCURVE",
"674 1458 CURVE SMOOTH",
"657 1471 OFFCURVE",
"623 1479 OFFCURVE",
"574 1482 CURVE"
);
},
{
closed = 1;
nodes = (
"55 1556 LINE",
"452 1556 LINE",
"452 1482 LINE",
"401 1478 OFFCURVE",
"367 1469 OFFCURVE",
"348 1456 CURVE SMOOTH",
"330 1443 OFFCURVE",
"321 1417 OFFCURVE",
"321 1378 CURVE SMOOTH",
"321 578 LINE SMOOTH",
"321 543 OFFCURVE",
"331 517 OFFCURVE",
"352 500 CURVE SMOOTH",
"366 489 OFFCURVE",
"399 481 OFFCURVE",
"452 474 CURVE",
"452 400 LINE",
"55 400 LINE",
"55 474 LINE",
"108 481 OFFCURVE",
"143 491 OFFCURVE",
"160 504 CURVE SMOOTH",
"177 519 OFFCURVE",
"186 544 OFFCURVE",
"186 578 CURVE SMOOTH",
"186 1378 LINE SMOOTH",
"186 1417 OFFCURVE",
"177 1443 OFFCURVE",
"159 1456 CURVE SMOOTH",
"140 1469 OFFCURVE",
"106 1478 OFFCURVE",
"55 1482 CURVE"
);
},
{
closed = 1;
nodes = (
"41 1556 LINE",
"41 1456 LINE",
"78 1451 OFFCURVE",
"100 1442 OFFCURVE",
"113 1423 CURVE SMOOTH",
"125 1407 OFFCURVE",
"131 1380 OFFCURVE",
"131 1341 CURVE SMOOTH",
"131 223 LINE SMOOTH",
"131 188 OFFCURVE",
"125 166 OFFCURVE",
"113 147 CURVE SMOOTH",
"101 130 OFFCURVE",
"77 115 OFFCURVE",
"41 100 CURVE",
"41 0 LINE",
"440 0 LINE",
"440 100 LINE",
"407 115 OFFCURVE",
"384 130 OFFCURVE",
"371 147 CURVE SMOOTH",
"356 166 OFFCURVE",
"352 190 OFFCURVE",
"352 225 CURVE SMOOTH",
"352 745 LINE",
"672 745 LINE",
"672 225 LINE SMOOTH",
"672 190 OFFCURVE",
"668 166 OFFCURVE",
"653 147 CURVE SMOOTH",
"640 130 OFFCURVE",
"617 115 OFFCURVE",
"584 100 CURVE",
"584 0 LINE",
"983 0 LINE",
"983 100 LINE",
"947 115 OFFCURVE",
"923 130 OFFCURVE",
"911 147 CURVE SMOOTH",
"899 166 OFFCURVE",
"893 188 OFFCURVE",
"893 223 CURVE SMOOTH",
"893 1341 LINE SMOOTH",
"893 1380 OFFCURVE",
"899 1407 OFFCURVE",
"911 1423 CURVE SMOOTH",
"924 1442 OFFCURVE",
"946 1451 OFFCURVE",
"983 1456 CURVE",
"983 1556 LINE",
"590 1556 LINE",
"590 1456 LINE",
"623 1447 OFFCURVE",
"643 1436 OFFCURVE",
"655 1417 CURVE",
"668 1401 OFFCURVE",
"672 1376 OFFCURVE",
"672 1341 CURVE SMOOTH",
"672 872 LINE",
"352 872 LINE",
"352 1341 LINE SMOOTH",
"352 1376 OFFCURVE",
"356 1401 OFFCURVE",
"369 1417 CURVE",
"381 1436 OFFCURVE",
"401 1447 OFFCURVE",
"434 1456 CURVE",
"434 1556 LINE"
);
},
{
closed = 1;
nodes = (
"688 1093 LINE",
"688 1220 LINE",
"336 1220 LINE",
"336 1093 LINE"
);
}
);
};
layerId = "4E782664-D0D5-4FED-AFC2-B9212141A2ED";
paths = (
{
closed = 1;
nodes = (
"29 1556 LINE",
"29 1456 LINE",
"112 1454 OFFCURVE",
"132 1397 OFFCURVE",
"132 1303 CURVE SMOOTH",
"132 658 LINE SMOOTH",
"132 568 OFFCURVE",
"112 504 OFFCURVE",
"29 500 CURVE",
"29 400 LINE",
"469 400 LINE",
"469 500 LINE",
"388 504 OFFCURVE",
"366 565 OFFCURVE",
"366 658 CURVE SMOOTH",
"366 1303 LINE SMOOTH",
"366 1394 OFFCURVE",
"384 1454 OFFCURVE",
"469 1456 CURVE",
"469 1556 LINE"
);
},
{
closed = 1;
nodes = (
"526 1556 LINE",
"526 1456 LINE",
"640 1452 OFFCURVE",
"673 1391 OFFCURVE",
"673 1315 CURVE SMOOTH",
"673 426 LINE SMOOTH",
"673 189 OFFCURVE",
"586 66 OFFCURVE",
"420 66 CURVE SMOOTH",
"375 66 OFFCURVE",
"324 78 OFFCURVE",
"297 106 CURVE",
"354 129 OFFCURVE",
"379 180 OFFCURVE",
"379 231 CURVE SMOOTH",
"379 254 OFFCURVE",
"373 276 OFFCURVE",
"362 297 CURVE SMOOTH",
"338 338 OFFCURVE",
"297 367 OFFCURVE",
"246 367 CURVE SMOOTH",
"221 367 OFFCURVE",
"199 361 OFFCURVE",
"179 349 CURVE SMOOTH",
"139 324 OFFCURVE",
"113 280 OFFCURVE",
"113 231 CURVE SMOOTH",
"113 143 OFFCURVE",
"140 92 OFFCURVE",
"201 35 CURVE SMOOTH",
"257 -17 OFFCURVE",
"338 -51 OFFCURVE",
"446 -51 CURVE SMOOTH",
"746 -51 OFFCURVE",
"902 118 OFFCURVE",
"902 442 CURVE SMOOTH",
"902 1315 LINE SMOOTH",
"902 1381 OFFCURVE",
"948 1454 OFFCURVE",
"1031 1456 CURVE",
"1031 1556 LINE"
);
}
);
vertWidth = 2048;
width = 1024;
}
);
unicode = 0132;
},
{
color = 3;
glyphname = Ibreve;
lastChange = "2022-11-08 18:53:45 +0000";
layers = (
{
layerId = "4E782664-D0D5-4FED-AFC2-B9212141A2ED";
paths = (
{
closed = 1;
nodes = (
"242 1454 LINE",
"242 1354 LINE",
"313 1352 OFFCURVE",
"357 1338 OFFCURVE",
"375 1311 CURVE SMOOTH",
"391 1284 OFFCURVE",
"395 1255 OFFCURVE",
"395 1200 CURVE SMOOTH",
"395 258 LINE SMOOTH",
"395 203 OFFCURVE",
"391 174 OFFCURVE",
"375 147 CURVE SMOOTH",
"356 118 OFFCURVE",
"312 102 OFFCURVE",
"242 100 CURVE",
"242 0 LINE",
"782 0 LINE",
"782 100 LINE",
"712 102 OFFCURVE",
"668 118 OFFCURVE",
"649 147 CURVE SMOOTH",
"633 174 OFFCURVE",
"629 203 OFFCURVE",
"629 258 CURVE SMOOTH",
"629 1200 LINE SMOOTH",
"629 1255 OFFCURVE",
"633 1284 OFFCURVE",
"649 1311 CURVE SMOOTH",
"667 1338 OFFCURVE",
"711 1352 OFFCURVE",
"782 1354 CURVE",
"782 1454 LINE"
);
},
{
closed = 1;
nodes = (
"198 1800 LINE",
"211 1735 OFFCURVE",
"234 1683 OFFCURVE",
"265 1642 CURVE SMOOTH",
"328 1560 OFFCURVE",
"419 1522 OFFCURVE",
"520 1522 CURVE SMOOTH",
"571 1522 OFFCURVE",
"618 1532 OFFCURVE",
"662 1551 CURVE SMOOTH",
"750 1590 OFFCURVE",
"817 1671 OFFCURVE",
"842 1800 CURVE",
"725 1800 LINE",
"688 1727 OFFCURVE",
"621 1677 OFFCURVE",
"518 1677 CURVE SMOOTH",
"485 1677 OFFCURVE",
"456 1682 OFFCURVE",
"433 1693 CURVE SMOOTH",
"385 1713 OFFCURVE",
"351 1751 OFFCURVE",
"315 1800 CURVE"
);
}
);
vertWidth = 2048;
width = 1024;
}
);
unicode = 012C;
},
{
color = 3;
glyphname = Idotaccent;
lastChange = "2022-11-08 18:53:33 +0000";
layers = (
{
layerId = "4E782664-D0D5-4FED-AFC2-B9212141A2ED";
paths = (
{
closed = 1;
nodes = (
"242 1454 LINE",
"242 1354 LINE",
"313 1352 OFFCURVE",
"357 1338 OFFCURVE",
"375 1311 CURVE SMOOTH",
"391 1284 OFFCURVE",
"395 1255 OFFCURVE",
"395 1200 CURVE SMOOTH",
"395 258 LINE SMOOTH",
"395 203 OFFCURVE",
"391 174 OFFCURVE",
"375 147 CURVE SMOOTH",
"356 118 OFFCURVE",
"312 102 OFFCURVE",
"242 100 CURVE",
"242 0 LINE",
"782 0 LINE",
"782 100 LINE",
"712 102 OFFCURVE",
"668 118 OFFCURVE",
"649 147 CURVE SMOOTH",
"633 174 OFFCURVE",
"629 203 OFFCURVE",
"629 258 CURVE SMOOTH",
"629 1200 LINE SMOOTH",
"629 1255 OFFCURVE",
"633 1284 OFFCURVE",
"649 1311 CURVE SMOOTH",
"667 1338 OFFCURVE",
"711 1352 OFFCURVE",
"782 1354 CURVE",
"782 1454 LINE"
);
},
{
closed = 1;
nodes = (
"497 1802 OFFCURVE",
"475 1796 OFFCURVE",
"454 1784 CURVE SMOOTH",
"413 1759 OFFCURVE",
"386 1716 OFFCURVE",
"386 1667 CURVE SMOOTH",
"386 1642 OFFCURVE",
"392 1620 OFFCURVE",
"405 1600 CURVE SMOOTH",
"429 1559 OFFCURVE",
"473 1532 OFFCURVE",
"521 1532 CURVE SMOOTH",
"546 1532 OFFCURVE",
"568 1538 OFFCURVE",
"589 1551 CURVE SMOOTH",
"630 1575 OFFCURVE",
"657 1618 OFFCURVE",
"657 1667 CURVE SMOOTH",
"657 1692 OFFCURVE",
"651 1714 OFFCURVE",
"639 1735 CURVE SMOOTH",
"614 1775 OFFCURVE",
"570 1802 OFFCURVE",
"521 1802 CURVE SMOOTH"
);
}
);
vertWidth = 2048;
width = 1024;
}
);
unicode = 0130;
},
{
color = 3;
glyphname = Iogonek;
lastChange = "2022-11-08 20:01:14 +0000";
layers = (
{
background = {
paths = (
{
closed = 1;
nodes = (
"242 1556 LINE",
"242 1456 LINE",
"313 1454 OFFCURVE",
"357 1440 OFFCURVE",
"375 1413 CURVE SMOOTH",
"391 1386 OFFCURVE",
"395 1357 OFFCURVE",
"395 1302 CURVE SMOOTH",
"395 338 LINE SMOOTH",
"395 283 OFFCURVE",
"391 254 OFFCURVE",
"375 227 CURVE SMOOTH",
"356 198 OFFCURVE",
"312 182 OFFCURVE",
"242 180 CURVE",
"242 80 LINE",
"782 80 LINE",
"782 180 LINE",
"712 182 OFFCURVE",
"668 198 OFFCURVE",
"649 227 CURVE SMOOTH",
"633 254 OFFCURVE",
"629 283 OFFCURVE",
"629 338 CURVE SMOOTH",
"629 1302 LINE SMOOTH",
"629 1357 OFFCURVE",
"633 1386 OFFCURVE",
"649 1413 CURVE SMOOTH",
"667 1440 OFFCURVE",
"711 1454 OFFCURVE",
"782 1456 CURVE",
"782 1556 LINE"
);
},
{
closed = 1;
nodes = (
"372 46 OFFCURVE",
"322 -19 OFFCURVE",
"322 -100 CURVE SMOOTH",
"322 -135 OFFCURVE",
"331 -163 OFFCURVE",
"348 -184 CURVE SMOOTH",
"383 -226 OFFCURVE",
"442 -242 OFFCURVE",
"503 -242 CURVE SMOOTH",
"536 -242 OFFCURVE",
"565 -239 OFFCURVE",
"590 -232 CURVE SMOOTH",
"639 -220 OFFCURVE",
"678 -195 OFFCURVE",
"722 -160 CURVE",
"697 -80 LINE",
"648 -117 OFFCURVE",
"606 -135 OFFCURVE",
"570 -135 CURVE SMOOTH",
"527 -135 OFFCURVE",
"498 -115 OFFCURVE",
"498 -66 CURVE SMOOTH",
"498 -6 OFFCURVE",
"535 49 OFFCURVE",
"579 94 CURVE",
"428 92 LINE"
);
}
);
};
layerId = "4E782664-D0D5-4FED-AFC2-B9212141A2ED";
paths = (
{
closed = 1;
nodes = (
"667 1440 OFFCURVE",
"711 1454 OFFCURVE",
"782 1456 CURVE",
"782 1556 LINE",
"242 1556 LINE",
"242 1456 LINE",
"313 1454 OFFCURVE",
"357 1440 OFFCURVE",
"375 1413 CURVE SMOOTH",
"391 1386 OFFCURVE",
"395 1357 OFFCURVE",
"395 1302 CURVE SMOOTH",
"395 338 LINE SMOOTH",
"395 283 OFFCURVE",
"391 254 OFFCURVE",
"375 227 CURVE SMOOTH",
"356 198 OFFCURVE",
"312 182 OFFCURVE",
"242 180 CURVE",
"242 80 LINE",
"414 80 LINE",
"364 35 OFFCURVE",
"322 -26 OFFCURVE",
"322 -100 CURVE SMOOTH",
"322 -135 OFFCURVE",
"331 -163 OFFCURVE",
"348 -184 CURVE SMOOTH",
"383 -226 OFFCURVE",
"442 -242 OFFCURVE",
"503 -242 CURVE SMOOTH",
"536 -242 OFFCURVE",
"565 -239 OFFCURVE",
"590 -232 CURVE SMOOTH",
"639 -220 OFFCURVE",
"678 -195 OFFCURVE",
"722 -160 CURVE",
"697 -80 LINE",
"648 -117 OFFCURVE",
"606 -135 OFFCURVE",
"570 -135 CURVE SMOOTH",
"527 -135 OFFCURVE",
"498 -115 OFFCURVE",
"498 -66 CURVE SMOOTH",
"498 -12 OFFCURVE",
"528 38 OFFCURVE",
"566 80 CURVE",
"782 80 LINE",
"782 180 LINE",
"712 182 OFFCURVE",
"668 198 OFFCURVE",
"649 227 CURVE SMOOTH",
"633 254 OFFCURVE",
"629 283 OFFCURVE",
"629 338 CURVE SMOOTH",
"629 1302 LINE SMOOTH",
"629 1357 OFFCURVE",
"633 1386 OFFCURVE",
"649 1413 CURVE SMOOTH"
);
}
);
vertWidth = 2048;
width = 1024;
}
);
unicode = 012E;
},
{
color = 3;
glyphname = Itilde;
lastChange = "2022-11-08 18:53:17 +0000";
layers = (
{
layerId = "4E782664-D0D5-4FED-AFC2-B9212141A2ED";
paths = (
{
closed = 1;
nodes = (
"242 1454 LINE",
"242 1354 LINE",
"313 1352 OFFCURVE",
"357 1338 OFFCURVE",
"375 1311 CURVE SMOOTH",
"391 1284 OFFCURVE",
"395 1255 OFFCURVE",
"395 1200 CURVE SMOOTH",
"395 258 LINE SMOOTH",
"395 203 OFFCURVE",
"391 174 OFFCURVE",
"375 147 CURVE SMOOTH",
"356 118 OFFCURVE",
"312 102 OFFCURVE",
"242 100 CURVE",
"242 0 LINE",
"782 0 LINE",
"782 100 LINE",
"712 102 OFFCURVE",
"668 118 OFFCURVE",
"649 147 CURVE SMOOTH",
"633 174 OFFCURVE",
"629 203 OFFCURVE",
"629 258 CURVE SMOOTH",
"629 1200 LINE SMOOTH",
"629 1255 OFFCURVE",
"633 1284 OFFCURVE",
"649 1311 CURVE SMOOTH",
"667 1338 OFFCURVE",
"711 1352 OFFCURVE",
"782 1354 CURVE",
"782 1454 LINE"
);
},
{
closed = 1;
nodes = (
"211 1544 LINE",
"242 1600 OFFCURVE",
"287 1628 OFFCURVE",
"346 1628 CURVE SMOOTH",
"397 1628 OFFCURVE",
"444 1616 OFFCURVE",
"489 1591 CURVE SMOOTH",
"549 1562 OFFCURVE",
"600 1544 OFFCURVE",
"668 1544 CURVE SMOOTH",
"743 1544 OFFCURVE",
"828 1607 OFFCURVE",
"881 1700 CURVE",
"825 1802 LINE",
"794 1746 OFFCURVE",
"749 1718 OFFCURVE",
"690 1718 CURVE SMOOTH",
"639 1718 OFFCURVE",
"595 1728 OFFCURVE",
"557 1749 CURVE SMOOTH",
"485 1790 OFFCURVE",
"438 1802 OFFCURVE",
"369 1802 CURVE SMOOTH",
"293 1802 OFFCURVE",
"209 1742 OFFCURVE",
"156 1647 CURVE"
);
}
);
vertWidth = 2048;
width = 1024;
}
);
unicode = 0128;
},
{
color = 3;
glyphname = Kcommaaccent;
lastChange = "2022-11-08 19:06:34 +0000";
layers = (
{
background = {
paths = (
{
closed = 1;
nodes = (
"41 1556 LINE",
"41 1456 LINE",
"72 1451 OFFCURVE",
"100 1442 OFFCURVE",
"121 1413 CURVE SMOOTH",
"137 1392 OFFCURVE",
"141 1360 OFFCURVE",
"141 1319 CURVE SMOOTH",
"141 310 LINE SMOOTH",
"141 258 OFFCURVE",
"133 236 OFFCURVE",
"121 217 CURVE SMOOTH",
"101 190 OFFCURVE",
"74 174 OFFCURVE",
"41 170 CURVE",
"41 70 LINE",
"444 70 LINE",
"444 170 LINE",
"424 177 OFFCURVE",
"400 192 OFFCURVE",
"381 217 CURVE SMOOTH",
"369 234 OFFCURVE",
"362 258 OFFCURVE",
"362 310 CURVE SMOOTH",
"362 670 LINE",
"434 778 LINE",
"608 306 LINE",
"621 274 OFFCURVE",
"627 249 OFFCURVE",
"627 230 CURVE SMOOTH",
"627 211 OFFCURVE",
"625 198 OFFCURVE",
"614 187 CURVE SMOOTH",
"603 176 OFFCURVE",
"590 170 OFFCURVE",
"573 170 CURVE",
"573 70 LINE",
"987 70 LINE",
"987 168 LINE",
"979 170 OFFCURVE",
"970 174 OFFCURVE",
"960 180 CURVE SMOOTH",
"939 191 OFFCURVE",
"924 207 OFFCURVE",
"900 247 CURVE SMOOTH",
"888 266 OFFCURVE",
"876 298 OFFCURVE",
"856 342 CURVE SMOOTH",
"575 1002 LINE",
"762 1290 LINE SMOOTH",
"767 1299 OFFCURVE",
"774 1310 OFFCURVE",
"783 1324 CURVE SMOOTH",
"802 1352 OFFCURVE",
"826 1384 OFFCURVE",
"846 1403 CURVE SMOOTH",
"874 1430 OFFCURVE",
"909 1450 OFFCURVE",
"950 1458 CURVE",
"950 1556 LINE",
"573 1556 LINE",
"573 1456 LINE",
"590 1451 OFFCURVE",
"605 1443 OFFCURVE",
"618 1432 CURVE SMOOTH",
"633 1421 OFFCURVE",
"651 1401 OFFCURVE",
"651 1374 CURVE SMOOTH",
"651 1357 OFFCURVE",
"638 1320 OFFCURVE",
"625 1298 CURVE SMOOTH",
"362 883 LINE",
"362 1319 LINE SMOOTH",
"362 1357 OFFCURVE",
"368 1388 OFFCURVE",
"381 1413 CURVE SMOOTH",
"396 1440 OFFCURVE",
"421 1455 OFFCURVE",
"446 1456 CURVE",
"446 1556 LINE"
);
}
);
};
layerId = "4E782664-D0D5-4FED-AFC2-B9212141A2ED";
paths = (
{
closed = 1;
nodes = (
"41 1556 LINE",
"41 1456 LINE",
"72 1451 OFFCURVE",
"100 1442 OFFCURVE",
"121 1413 CURVE SMOOTH",
"137 1392 OFFCURVE",
"141 1360 OFFCURVE",
"141 1319 CURVE SMOOTH",
"141 310 LINE SMOOTH",
"141 258 OFFCURVE",
"133 236 OFFCURVE",
"121 217 CURVE SMOOTH",
"101 190 OFFCURVE",
"74 174 OFFCURVE",
"41 170 CURVE",
"41 70 LINE",
"444 70 LINE",
"444 170 LINE",
"424 177 OFFCURVE",
"400 192 OFFCURVE",
"381 217 CURVE SMOOTH",
"369 234 OFFCURVE",
"362 258 OFFCURVE",
"362 310 CURVE SMOOTH",
"362 670 LINE",
"434 778 LINE",
"608 306 LINE",
"621 274 OFFCURVE",
"627 249 OFFCURVE",
"627 230 CURVE SMOOTH",
"627 211 OFFCURVE",
"625 198 OFFCURVE",
"614 187 CURVE SMOOTH",
"603 176 OFFCURVE",
"590 170 OFFCURVE",
"573 170 CURVE",
"573 70 LINE",
"987 70 LINE",
"987 168 LINE",
"979 170 OFFCURVE",
"970 174 OFFCURVE",
"960 180 CURVE SMOOTH",
"939 191 OFFCURVE",
"924 207 OFFCURVE",
"900 247 CURVE SMOOTH",
"888 266 OFFCURVE",
"876 298 OFFCURVE",
"856 342 CURVE SMOOTH",
"575 1002 LINE",
"762 1290 LINE SMOOTH",
"767 1299 OFFCURVE",
"774 1310 OFFCURVE",
"783 1324 CURVE SMOOTH",
"802 1352 OFFCURVE",
"826 1384 OFFCURVE",
"846 1403 CURVE SMOOTH",
"874 1430 OFFCURVE",
"909 1450 OFFCURVE",
"950 1458 CURVE",
"950 1556 LINE",
"573 1556 LINE",
"573 1456 LINE",
"590 1451 OFFCURVE",
"605 1443 OFFCURVE",
"618 1432 CURVE SMOOTH",
"633 1421 OFFCURVE",
"651 1401 OFFCURVE",
"651 1374 CURVE SMOOTH",
"651 1357 OFFCURVE",
"638 1320 OFFCURVE",
"625 1298 CURVE SMOOTH",
"362 883 LINE",
"362 1319 LINE SMOOTH",
"362 1357 OFFCURVE",
"368 1388 OFFCURVE",
"381 1413 CURVE SMOOTH",
"396 1440 OFFCURVE",
"421 1455 OFFCURVE",
"446 1456 CURVE",
"446 1556 LINE"
);
},
{
closed = 1;
nodes = (
"456 -211 LINE",
"496 -194 OFFCURVE",
"518 -178 OFFCURVE",
"520 -160 CURVE",
"408 -160 OFFCURVE",
"330 -136 OFFCURVE",
"330 -76 CURVE SMOOTH",
"330 -13 OFFCURVE",
"400 21 OFFCURVE",
"499 21 CURVE SMOOTH",
"603 21 OFFCURVE",
"679 -16 OFFCURVE",
"679 -97 CURVE SMOOTH",
"679 -164 OFFCURVE",
"630 -205 OFFCURVE",
"557 -246 CURVE"
);
}
);
vertWidth = 2048;
width = 1024;
}
);
unicode = 0136;
},
{
color = 3;
glyphname = Lcommaaccent;
lastChange = "2022-11-08 19:06:32 +0000";
layers = (
{
background = {
paths = (
{
closed = 1;
nodes = (
"335 618 LINE",
"335 244 LINE SMOOTH",
"335 209 OFFCURVE",
"342 185 OFFCURVE",
"356 170 CURVE SMOOTH",
"369 156 OFFCURVE",
"394 147 OFFCURVE",
"429 144 CURVE",
"429 70 LINE",
"102 70 LINE",
"102 144 LINE",
"143 150 OFFCURVE",
"170 160 OFFCURVE",
"183 174 CURVE SMOOTH",
"196 188 OFFCURVE",
"202 211 OFFCURVE",
"202 244 CURVE SMOOTH",
"202 1382 LINE SMOOTH",
"202 1419 OFFCURVE",
"194 1444 OFFCURVE",
"179 1458 CURVE SMOOTH",
"166 1470 OFFCURVE",
"140 1478 OFFCURVE",
"102 1482 CURVE",
"102 1556 LINE",
"429 1556 LINE",
"429 1482 LINE",
"393 1478 OFFCURVE",
"368 1469 OFFCURVE",
"353 1454 CURVE SMOOTH",
"341 1441 OFFCURVE",
"335 1417 OFFCURVE",
"335 1382 CURVE SMOOTH",
"335 807 LINE",
"638 1382 LINE SMOOTH",
"648 1402 OFFCURVE",
"653 1417 OFFCURVE",
"653 1428 CURVE SMOOTH",
"653 1458 OFFCURVE",
"626 1476 OFFCURVE",
"573 1482 CURVE",
"573 1556 LINE",
"888 1556 LINE",
"888 1482 LINE",
"849 1475 OFFCURVE",
"820 1464 OFFCURVE",
"799 1449 CURVE SMOOTH",
"778 1434 OFFCURVE",
"757 1405 OFFCURVE",
"734 1362 CURVE SMOOTH"
);
},
{
closed = 1;
nodes = (
"825 252 LINE SMOOTH",
"838 219 OFFCURVE",
"855 193 OFFCURVE",
"876 174 CURVE SMOOTH",
"890 163 OFFCURVE",
"914 153 OFFCURVE",
"949 144 CURVE",
"949 70 LINE",
"612 70 LINE",
"612 144 LINE",
"662 148 OFFCURVE",
"687 167 OFFCURVE",
"687 201 CURVE SMOOTH",
"687 216 OFFCURVE",
"684 232 OFFCURVE",
"677 250 CURVE SMOOTH",
"447 845 LINE",
"522 991 LINE"
);
},
{
closed = 1;
nodes = (
"456 -191 LINE",
"490 -171 OFFCURVE",
"508 -151 OFFCURVE",
"510 -130 CURVE",
"439 -130 OFFCURVE",
"390 -109 OFFCURVE",
"390 -56 CURVE SMOOTH",
"390 -6 OFFCURVE",
"435 21 OFFCURVE",
"499 21 CURVE SMOOTH",
"568 21 OFFCURVE",
"619 -10 OFFCURVE",
"619 -77 CURVE SMOOTH",
"619 -153 OFFCURVE",
"570 -199 OFFCURVE",
"497 -246 CURVE"
);
}
);
};
layerId = "4E782664-D0D5-4FED-AFC2-B9212141A2ED";
paths = (
{
closed = 1;
nodes = (
"895 70 LINE",
"922 559 LINE",
"819 559 LINE",
"815 528 OFFCURVE",
"811 500 OFFCURVE",
"807 475 CURVE SMOOTH",
"798 426 OFFCURVE",
"785 381 OFFCURVE",
"760 328 CURVE SMOOTH",
"721 241 OFFCURVE",
"666 197 OFFCURVE",
"596 197 CURVE SMOOTH",
"549 197 LINE SMOOTH",
"526 197 OFFCURVE",
"509 200 OFFCURVE",
"498 206 CURVE SMOOTH",
"474 218 OFFCURVE",
"464 235 OFFCURVE",
"458 271 CURVE SMOOTH",
"455 289 OFFCURVE",
"453 313 OFFCURVE",
"453 342 CURVE SMOOTH",
"453 1322 LINE SMOOTH",
"453 1361 OFFCURVE",
"461 1395 OFFCURVE",
"481 1416 CURVE SMOOTH",
"504 1438 OFFCURVE",
"541 1451 OFFCURVE",
"594 1455 CURVE",
"594 1555 LINE",
"94 1555 LINE",
"94 1455 LINE",
"145 1451 OFFCURVE",
"182 1437 OFFCURVE",
"203 1412 CURVE SMOOTH",
"223 1387 OFFCURVE",
"223 1361 OFFCURVE",
"223 1318 CURVE SMOOTH",
"223 328 LINE SMOOTH",
"223 273 OFFCURVE",
"222 242 OFFCURVE",
"203 217 CURVE SMOOTH",
"182 189 OFFCURVE",
"162 174 OFFCURVE",
"94 170 CURVE",
"94 70 LINE"
);
},
{
closed = 1;
nodes = (
"630 -205 OFFCURVE",
"679 -164 OFFCURVE",
"679 -97 CURVE SMOOTH",
"679 -16 OFFCURVE",
"603 21 OFFCURVE",
"499 21 CURVE SMOOTH",
"400 21 OFFCURVE",
"330 -13 OFFCURVE",
"330 -76 CURVE SMOOTH",
"330 -136 OFFCURVE",
"408 -160 OFFCURVE",
"520 -160 CURVE",
"518 -178 OFFCURVE",
"496 -194 OFFCURVE",
"456 -211 CURVE",
"557 -246 LINE"
);
}
);
vertWidth = 2048;
width = 1024;
}
);
unicode = 013B;
},
{
color = 3;
glyphname = Ldot;
lastChange = "2022-11-08 18:55:45 +0000";
layers = (
{
layerId = "4E782664-D0D5-4FED-AFC2-B9212141A2ED";
paths = (
{
closed = 1;
nodes = (
"94 1556 LINE",
"94 1456 LINE",
"143 1452 OFFCURVE",
"182 1438 OFFCURVE",
"203 1413 CURVE SMOOTH",
"223 1389 OFFCURVE",
"223 1362 OFFCURVE",
"223 1319 CURVE SMOOTH",
"223 258 LINE SMOOTH",
"223 203 OFFCURVE",
"222 172 OFFCURVE",
"203 147 CURVE SMOOTH",
"182 119 OFFCURVE",
"162 104 OFFCURVE",
"94 100 CURVE",
"94 0 LINE",
"895 0 LINE",
"922 571 LINE",
"840 571 LINE",
"831 504 OFFCURVE",
"821 445 OFFCURVE",
"808 394 CURVE SMOOTH",
"782 293 OFFCURVE",
"736 127 OFFCURVE",
"596 127 CURVE SMOOTH",
"549 127 LINE SMOOTH",
"526 127 OFFCURVE",
"509 130 OFFCURVE",
"498 136 CURVE SMOOTH",
"474 148 OFFCURVE",
"464 165 OFFCURVE",
"458 201 CURVE SMOOTH",
"455 219 OFFCURVE",
"453 243 OFFCURVE",
"453 272 CURVE SMOOTH",
"453 1323 LINE SMOOTH",
"453 1362 OFFCURVE",
"461 1397 OFFCURVE",
"481 1417 CURVE SMOOTH",
"504 1440 OFFCURVE",
"543 1452 OFFCURVE",
"594 1456 CURVE",
"594 1556 LINE"
);
},
{
closed = 1;
nodes = (
"693 1097 OFFCURVE",
"671 1091 OFFCURVE",
"650 1079 CURVE SMOOTH",
"609 1054 OFFCURVE",
"582 1011 OFFCURVE",
"582 962 CURVE SMOOTH",
"582 937 OFFCURVE",
"588 915 OFFCURVE",
"601 895 CURVE SMOOTH",
"625 854 OFFCURVE",
"669 827 OFFCURVE",
"717 827 CURVE SMOOTH",
"742 827 OFFCURVE",
"764 833 OFFCURVE",
"785 846 CURVE SMOOTH",
"826 870 OFFCURVE",
"853 913 OFFCURVE",
"853 962 CURVE SMOOTH",
"853 987 OFFCURVE",
"847 1009 OFFCURVE",
"835 1030 CURVE SMOOTH",
"810 1070 OFFCURVE",
"766 1097 OFFCURVE",
"717 1097 CURVE SMOOTH"
);
}
);
vertWidth = 2048;
width = 1024;
}
);
unicode = 013F;
},
{
color = 3;
glyphname = Ncommaaccent;
lastChange = "2022-11-08 19:06:47 +0000";
layers = (
{
background = {
paths = (
{
closed = 1;
nodes = (
"154 1556 LINE",
"531 1556 LINE",
"531 1482 LINE",
"480 1477 OFFCURVE",
"445 1466 OFFCURVE",
"428 1447 CURVE SMOOTH",
"413 1431 OFFCURVE",
"406 1401 OFFCURVE",
"406 1357 CURVE SMOOTH",
"406 285 LINE SMOOTH",
"406 241 OFFCURVE",
"413 211 OFFCURVE",
"428 195 CURVE SMOOTH",
"442 180 OFFCURVE",
"468 172 OFFCURVE",
"506 172 CURVE SMOOTH",
"578 172 LINE SMOOTH",
"699 172 OFFCURVE",
"774 296 OFFCURVE",
"803 545 CURVE",
"871 545 LINE",
"848 70 LINE",
"154 70 LINE",
"154 144 LINE",
"199 149 OFFCURVE",
"231 161 OFFCURVE",
"248 179 CURVE SMOOTH",
"263 194 OFFCURVE",
"271 224 OFFCURVE",
"271 269 CURVE SMOOTH",
"271 1357 LINE SMOOTH",
"271 1406 OFFCURVE",
"263 1438 OFFCURVE",
"246 1454 CURVE SMOOTH",
"231 1469 OFFCURVE",
"200 1478 OFFCURVE",
"154 1482 CURVE"
);
},
{
closed = 1;
nodes = (
"456 -191 LINE",
"490 -171 OFFCURVE",
"508 -151 OFFCURVE",
"510 -130 CURVE",
"439 -130 OFFCURVE",
"390 -109 OFFCURVE",
"390 -56 CURVE SMOOTH",
"390 -6 OFFCURVE",
"435 21 OFFCURVE",
"499 21 CURVE SMOOTH",
"568 21 OFFCURVE",
"619 -10 OFFCURVE",
"619 -77 CURVE SMOOTH",
"619 -153 OFFCURVE",
"570 -199 OFFCURVE",
"497 -246 CURVE"
);
}
);
};
layerId = "4E782664-D0D5-4FED-AFC2-B9212141A2ED";
paths = (
{
closed = 1;
nodes = (
"868 45 LINE",
"868 1325 LINE SMOOTH",
"868 1374 OFFCURVE",
"884 1392 OFFCURVE",
"905 1415 CURVE SMOOTH",
"924 1434 OFFCURVE",
"944 1447 OFFCURVE",
"981 1456 CURVE",
"981 1556 LINE",
"639 1556 LINE",
"639 1456 LINE",
"670 1447 OFFCURVE",
"696 1433 OFFCURVE",
"717 1413 CURVE SMOOTH",
"733 1397 OFFCURVE",
"754 1372 OFFCURVE",
"754 1325 CURVE SMOOTH",
"754 627 LINE",
"743 627 LINE",
"389 1556 LINE",
"49 1556 LINE",
"49 1458 LINE",
"104 1450 OFFCURVE",
"128 1434 OFFCURVE",
"141 1407 CURVE SMOOTH",
"152 1386 OFFCURVE",
"160 1358 OFFCURVE",
"160 1313 CURVE SMOOTH",
"160 324 LINE SMOOTH",
"160 260 OFFCURVE",
"148 240 OFFCURVE",
"129 220 CURVE SMOOTH",
"106 193 OFFCURVE",
"80 179 OFFCURVE",
"49 170 CURVE",
"49 70 LINE",
"387 70 LINE",
"387 170 LINE",
"360 177 OFFCURVE",
"334 196 OFFCURVE",
"311 217 CURVE",
"286 244 OFFCURVE",
"274 263 OFFCURVE",
"274 324 CURVE SMOOTH",
"274 1182 LINE",
"283 1182 LINE",
"711 45 LINE"
);
},
{
closed = 1;
nodes = (
"630 -205 OFFCURVE",
"679 -164 OFFCURVE",
"679 -97 CURVE SMOOTH",
"679 -16 OFFCURVE",
"603 21 OFFCURVE",
"499 21 CURVE SMOOTH",
"400 21 OFFCURVE",
"330 -13 OFFCURVE",
"330 -76 CURVE SMOOTH",
"330 -136 OFFCURVE",
"408 -160 OFFCURVE",
"520 -160 CURVE",
"518 -178 OFFCURVE",
"496 -194 OFFCURVE",
"456 -211 CURVE",
"557 -246 LINE"
);
}
);
vertWidth = 2048;
width = 1024;
}
);
unicode = 0145;
},
{
color = 3;
glyphname = Eng;
lastChange = "2022-11-08 20:01:29 +0000";
layers = (
{
background = {
paths = (
{
closed = 1;
nodes = (
"49 1556 LINE",
"49 1458 LINE",
"104 1450 OFFCURVE",
"128 1434 OFFCURVE",
"141 1407 CURVE SMOOTH",
"152 1386 OFFCURVE",
"160 1358 OFFCURVE",
"160 1313 CURVE SMOOTH",
"160 324 LINE SMOOTH",
"160 260 OFFCURVE",
"148 240 OFFCURVE",
"129 220 CURVE SMOOTH",
"106 193 OFFCURVE",
"80 179 OFFCURVE",
"49 170 CURVE",
"49 70 LINE",
"387 70 LINE",
"387 170 LINE",
"360 177 OFFCURVE",
"334 196 OFFCURVE",
"311 217 CURVE",
"286 244 OFFCURVE",
"274 263 OFFCURVE",
"274 324 CURVE SMOOTH",
"274 1182 LINE",
"283 1182 LINE",
"711 45 LINE",
"833 45 LINE",
"868 179 LINE",
"868 1325 LINE SMOOTH",
"868 1374 OFFCURVE",
"884 1392 OFFCURVE",
"905 1415 CURVE SMOOTH",
"924 1434 OFFCURVE",
"944 1447 OFFCURVE",
"981 1456 CURVE",
"981 1556 LINE",
"639 1556 LINE",
"639 1456 LINE",
"670 1447 OFFCURVE",
"696 1433 OFFCURVE",
"717 1413 CURVE SMOOTH",
"733 1397 OFFCURVE",
"754 1372 OFFCURVE",
"754 1325 CURVE SMOOTH",
"754 627 LINE",
"743 627 LINE",
"389 1556 LINE"
);
},
{
closed = 1;
nodes = (
"868 179 CURVE",
"753 174 LINE",
"753 -16 OFFCURVE",
"698 -129 OFFCURVE",
"604 -129 CURVE SMOOTH",
"570 -129 OFFCURVE",
"554 -118 OFFCURVE",
"534 -100 CURVE",
"591 -77 OFFCURVE",
"617 -45 OFFCURVE",
"617 8 CURVE SMOOTH",
"617 72 OFFCURVE",
"566 113 OFFCURVE",
"501 113 CURVE SMOOTH",
"413 113 OFFCURVE",
"374 47 OFFCURVE",
"374 -26 CURVE SMOOTH",
"374 -157 OFFCURVE",
"466 -244 OFFCURVE",
"605 -244 CURVE SMOOTH",
"770 -244 OFFCURVE",
"868 -87 OFFCURVE"
);
}
);
};
layerId = "4E782664-D0D5-4FED-AFC2-B9212141A2ED";
paths = (
{
closed = 1;
nodes = (
"670 1447 OFFCURVE",
"696 1433 OFFCURVE",
"717 1413 CURVE SMOOTH",
"733 1397 OFFCURVE",
"754 1372 OFFCURVE",
"754 1325 CURVE SMOOTH",
"754 627 LINE",
"743 627 LINE",
"389 1556 LINE",
"49 1556 LINE",
"49 1458 LINE",
"104 1450 OFFCURVE",
"128 1434 OFFCURVE",
"141 1407 CURVE SMOOTH",
"152 1386 OFFCURVE",
"160 1358 OFFCURVE",
"160 1313 CURVE SMOOTH",
"160 324 LINE SMOOTH",
"160 260 OFFCURVE",
"148 240 OFFCURVE",
"129 220 CURVE SMOOTH",
"106 193 OFFCURVE",
"80 179 OFFCURVE",
"49 170 CURVE",
"49 70 LINE",
"387 70 LINE",
"387 170 LINE",
"360 177 OFFCURVE",
"334 196 OFFCURVE",
"311 217 CURVE",
"286 244 OFFCURVE",
"274 263 OFFCURVE",
"274 324 CURVE SMOOTH",
"274 1182 LINE",
"283 1182 LINE",
"711 45 LINE",
"743 45 LINE",
"723 -66 OFFCURVE",
"674 -129 OFFCURVE",
"604 -129 CURVE SMOOTH",
"570 -129 OFFCURVE",
"554 -118 OFFCURVE",
"534 -100 CURVE",
"591 -77 OFFCURVE",
"617 -45 OFFCURVE",
"617 8 CURVE SMOOTH",
"617 72 OFFCURVE",
"566 113 OFFCURVE",
"501 113 CURVE SMOOTH",
"413 113 OFFCURVE",
"374 47 OFFCURVE",
"374 -26 CURVE SMOOTH",
"374 -157 OFFCURVE",
"466 -244 OFFCURVE",
"605 -244 CURVE SMOOTH",
"770 -244 OFFCURVE",
"868 -87 OFFCURVE",
"868 179 CURVE SMOOTH",
"868 1325 LINE SMOOTH",
"868 1374 OFFCURVE",
"884 1392 OFFCURVE",
"905 1415 CURVE SMOOTH",
"924 1434 OFFCURVE",
"944 1447 OFFCURVE",
"981 1456 CURVE",
"981 1556 LINE",
"639 1556 LINE",
"639 1456 LINE"
);
}
);
vertWidth = 2048;
width = 1024;
}
);
unicode = 014A;
},
{
color = 3;
glyphname = Obreve;
lastChange = "2022-11-08 19:00:28 +0000";
layers = (
{
layerId = "4E782664-D0D5-4FED-AFC2-B9212141A2ED";
paths = (
{
closed = 1;
nodes = (
"368 1493 OFFCURVE",
"259 1415 OFFCURVE",
"186 1277 CURVE SMOOTH",
"113 1139 OFFCURVE",
"76 950 OFFCURVE",
"76 727 CURVE SMOOTH",
"76 504 OFFCURVE",
"113 313 OFFCURVE",
"186 176 CURVE SMOOTH",
"259 39 OFFCURVE",
"368 -41 OFFCURVE",
"512 -41 CURVE SMOOTH",
"656 -41 OFFCURVE",
"765 39 OFFCURVE",
"838 176 CURVE SMOOTH",
"911 313 OFFCURVE",
"948 504 OFFCURVE",
"948 727 CURVE SMOOTH",
"948 950 OFFCURVE",
"911 1139 OFFCURVE",
"838 1277 CURVE SMOOTH",
"765 1415 OFFCURVE",
"656 1493 OFFCURVE",
"512 1493 CURVE SMOOTH"
);
},
{
closed = 1;
nodes = (
"571 1389 OFFCURVE",
"620 1324 OFFCURVE",
"654 1208 CURVE SMOOTH",
"688 1091 OFFCURVE",
"707 927 OFFCURVE",
"707 727 CURVE SMOOTH",
"707 460 OFFCURVE",
"673 258 OFFCURVE",
"615 151 CURVE SMOOTH",
"586 97 OFFCURVE",
"551 70 OFFCURVE",
"512 70 CURVE SMOOTH",
"473 70 OFFCURVE",
"439 97 OFFCURVE",
"410 151 CURVE SMOOTH",
"351 258 OFFCURVE",
"317 460 OFFCURVE",
"317 727 CURVE SMOOTH",
"317 927 OFFCURVE",
"337 1091 OFFCURVE",
"371 1208 CURVE SMOOTH",
"405 1324 OFFCURVE",
"453 1389 OFFCURVE",
"512 1389 CURVE SMOOTH"
);
},
{
closed = 1;
nodes = (
"198 1800 LINE",
"211 1735 OFFCURVE",
"234 1683 OFFCURVE",
"265 1642 CURVE SMOOTH",
"328 1560 OFFCURVE",
"419 1522 OFFCURVE",
"520 1522 CURVE SMOOTH",
"571 1522 OFFCURVE",
"618 1532 OFFCURVE",
"662 1551 CURVE SMOOTH",
"750 1590 OFFCURVE",
"817 1671 OFFCURVE",
"842 1800 CURVE",
"725 1800 LINE",
"688 1727 OFFCURVE",
"621 1677 OFFCURVE",
"518 1677 CURVE SMOOTH",
"485 1677 OFFCURVE",
"456 1682 OFFCURVE",
"433 1693 CURVE SMOOTH",
"385 1713 OFFCURVE",
"351 1751 OFFCURVE",
"315 1800 CURVE"
);
}
);
vertWidth = 2048;
width = 1024;
}
);
unicode = 014E;
},
{
color = 3;
glyphname = Rcommaaccent;
lastChange = "2022-11-08 19:06:50 +0000";
layers = (
{
background = {
paths = (
{
closed = 1;
nodes = (
"45 1556 LINE",
"45 1462 LINE",
"77 1456 OFFCURVE",
"101 1444 OFFCURVE",
"117 1425 CURVE SMOOTH",
"133 1408 OFFCURVE",
"137 1374 OFFCURVE",
"137 1349 CURVE SMOOTH",
"137 285 LINE SMOOTH",
"137 252 OFFCURVE",
"129 224 OFFCURVE",
"117 207 CURVE",
"98 186 OFFCURVE",
"80 168 OFFCURVE",
"45 164 CURVE",
"45 70 LINE",
"451 70 LINE",
"451 164 LINE",
"424 168 OFFCURVE",
"393 186 OFFCURVE",
"377 207 CURVE SMOOTH",
"365 226 OFFCURVE",
"358 258 OFFCURVE",
"358 287 CURVE SMOOTH",
"358 774 LINE",
"393 774 LINE SMOOTH",
"444 774 OFFCURVE",
"479 741 OFFCURVE",
"510 690 CURVE SMOOTH",
"534 650 OFFCURVE",
"564 529 OFFCURVE",
"592 418 CURVE SMOOTH",
"620 306 OFFCURVE",
"649 182 OFFCURVE",
"672 70 CURVE",
"999 70 LINE",
"999 166 LINE",
"946 166 OFFCURVE",
"918 198 OFFCURVE",
"901 215 CURVE SMOOTH",
"885 234 OFFCURVE",
"873 269 OFFCURVE",
"858 320 CURVE SMOOTH",
"846 365 OFFCURVE",
"827 433 OFFCURVE",
"808 501 CURVE SMOOTH",
"789 568 OFFCURVE",
"763 663 OFFCURVE",
"748 698 CURVE SMOOTH",
"715 777 OFFCURVE",
"651 811 OFFCURVE",
"592 827 CURVE",
"592 835 LINE",
"653 838 OFFCURVE",
"721 870 OFFCURVE",
"768 915 CURVE SMOOTH",
"829 972 OFFCURVE",
"858 1052 OFFCURVE",
"858 1177 CURVE SMOOTH",
"858 1324 OFFCURVE",
"805 1427 OFFCURVE",
"729 1482 CURVE SMOOTH",
"668 1529 OFFCURVE",
"571 1556 OFFCURVE",
"438 1556 CURVE SMOOTH"
);
},
{
closed = 1;
nodes = (
"475 1445 LINE SMOOTH",
"512 1445 OFFCURVE",
"547 1419 OFFCURVE",
"578 1380 CURVE SMOOTH",
"610 1337 OFFCURVE",
"627 1264 OFFCURVE",
"627 1177 CURVE SMOOTH",
"627 1080 OFFCURVE",
"608 1001 OFFCURVE",
"571 954 CURVE SMOOTH",
"530 903 OFFCURVE",
"481 884 OFFCURVE",
"424 884 CURVE SMOOTH",
"358 884 LINE",
"358 1347 LINE SMOOTH",
"358 1376 OFFCURVE",
"368 1402 OFFCURVE",
"377 1417 CURVE SMOOTH",
"388 1432 OFFCURVE",
"409 1445 OFFCURVE",
"438 1445 CURVE SMOOTH"
);
}
);
};
layerId = "4E782664-D0D5-4FED-AFC2-B9212141A2ED";
paths = (
{
closed = 1;
nodes = (
"451 70 LINE",
"451 164 LINE",
"424 168 OFFCURVE",
"393 186 OFFCURVE",
"377 207 CURVE SMOOTH",
"365 226 OFFCURVE",
"358 258 OFFCURVE",
"358 287 CURVE SMOOTH",
"358 774 LINE",
"393 774 LINE SMOOTH",
"444 774 OFFCURVE",
"479 741 OFFCURVE",
"510 690 CURVE SMOOTH",
"534 650 OFFCURVE",
"564 529 OFFCURVE",
"592 418 CURVE SMOOTH",
"620 306 OFFCURVE",
"649 182 OFFCURVE",
"672 70 CURVE",
"999 70 LINE",
"999 166 LINE",
"946 166 OFFCURVE",
"918 198 OFFCURVE",
"901 215 CURVE SMOOTH",
"885 234 OFFCURVE",
"873 269 OFFCURVE",
"858 320 CURVE SMOOTH",
"846 365 OFFCURVE",
"827 433 OFFCURVE",
"808 501 CURVE SMOOTH",
"789 568 OFFCURVE",
"763 663 OFFCURVE",
"748 698 CURVE SMOOTH",
"715 777 OFFCURVE",
"651 811 OFFCURVE",
"592 827 CURVE",
"592 835 LINE",
"653 838 OFFCURVE",
"721 870 OFFCURVE",
"768 915 CURVE SMOOTH",
"829 972 OFFCURVE",
"858 1052 OFFCURVE",
"858 1177 CURVE SMOOTH",
"858 1324 OFFCURVE",
"805 1427 OFFCURVE",
"729 1482 CURVE SMOOTH",
"668 1529 OFFCURVE",
"571 1556 OFFCURVE",
"438 1556 CURVE SMOOTH",
"45 1556 LINE",
"45 1462 LINE",
"77 1456 OFFCURVE",
"101 1444 OFFCURVE",
"117 1425 CURVE SMOOTH",
"133 1408 OFFCURVE",
"137 1374 OFFCURVE",
"137 1349 CURVE SMOOTH",
"137 285 LINE SMOOTH",
"137 252 OFFCURVE",
"129 224 OFFCURVE",
"117 207 CURVE",
"98 186 OFFCURVE",
"80 168 OFFCURVE",
"45 164 CURVE",
"45 70 LINE"
);
},
{
closed = 1;
nodes = (
"630 -205 OFFCURVE",
"679 -164 OFFCURVE",
"679 -97 CURVE SMOOTH",
"679 -16 OFFCURVE",
"603 21 OFFCURVE",
"499 21 CURVE SMOOTH",
"400 21 OFFCURVE",
"330 -13 OFFCURVE",
"330 -76 CURVE SMOOTH",
"330 -136 OFFCURVE",
"408 -160 OFFCURVE",
"520 -160 CURVE",
"518 -178 OFFCURVE",
"496 -194 OFFCURVE",
"456 -211 CURVE",
"557 -246 LINE"
);
},
{
closed = 1;
nodes = (
"358 1347 LINE SMOOTH",
"358 1376 OFFCURVE",
"368 1402 OFFCURVE",
"377 1417 CURVE SMOOTH",
"388 1432 OFFCURVE",
"409 1445 OFFCURVE",
"438 1445 CURVE SMOOTH",
"475 1445 LINE SMOOTH",
"512 1445 OFFCURVE",
"547 1419 OFFCURVE",
"578 1380 CURVE SMOOTH",
"610 1337 OFFCURVE",
"627 1264 OFFCURVE",
"627 1177 CURVE SMOOTH",
"627 1080 OFFCURVE",
"608 1001 OFFCURVE",
"571 954 CURVE SMOOTH",
"530 903 OFFCURVE",
"481 884 OFFCURVE",
"424 884 CURVE SMOOTH",
"358 884 LINE"
);
}
);
vertWidth = 2048;
width = 1024;
}
);
unicode = 0156;
},
{
color = 3;
glyphname = Tbar;
lastChange = "2022-11-08 20:01:33 +0000";
layers = (
{
background = {
paths = (
{
closed = 1;
nodes = (
"94 1556 LINE",
"76 1063 LINE",
"147 1063 LINE",
"154 1100 OFFCURVE",
"162 1140 OFFCURVE",
"172 1181 CURVE SMOOTH",
"192 1263 OFFCURVE",
"226 1346 OFFCURVE",
"259 1382 CURVE SMOOTH",
"292 1418 OFFCURVE",
"330 1430 OFFCURVE",
"365 1430 CURVE SMOOTH",
"399 1430 LINE",
"399 254 LINE SMOOTH",
"399 232 OFFCURVE",
"399 215 OFFCURVE",
"398 202 CURVE SMOOTH",
"396 176 OFFCURVE",
"390 162 OFFCURVE",
"379 143 CURVE SMOOTH",
"360 114 OFFCURVE",
"333 103 OFFCURVE",
"262 100 CURVE",
"262 0 LINE",
"762 0 LINE",
"762 100 LINE",
"727 101 OFFCURVE",
"702 105 OFFCURVE",
"685 112 CURVE SMOOTH",
"651 124 OFFCURVE",
"639 153 OFFCURVE",
"633 170 CURVE SMOOTH",
"627 186 OFFCURVE",
"625 210 OFFCURVE",
"625 254 CURVE SMOOTH",
"625 1430 LINE",
"659 1430 LINE SMOOTH",
"676 1430 OFFCURVE",
"694 1427 OFFCURVE",
"713 1420 CURVE SMOOTH",
"749 1406 OFFCURVE",
"784 1372 OFFCURVE",
"811 1305 CURVE SMOOTH",
"846 1221 OFFCURVE",
"864 1138 OFFCURVE",
"877 1063 CURVE",
"948 1063 LINE",
"930 1556 LINE"
);
},
{
closed = 1;
nodes = (
"808 693 LINE",
"808 820 LINE",
"216 820 LINE",
"216 693 LINE"
);
}
);
};
layerId = "4E782664-D0D5-4FED-AFC2-B9212141A2ED";
paths = (
{
closed = 1;
nodes = (
"76 1063 LINE",
"147 1063 LINE",
"154 1100 OFFCURVE",
"162 1140 OFFCURVE",
"172 1181 CURVE SMOOTH",
"192 1263 OFFCURVE",
"226 1346 OFFCURVE",
"259 1382 CURVE SMOOTH",
"292 1418 OFFCURVE",
"330 1430 OFFCURVE",
"365 1430 CURVE SMOOTH",
"399 1430 LINE",
"399 820 LINE",
"216 820 LINE",
"216 693 LINE",
"399 693 LINE",
"399 254 LINE SMOOTH",
"399 232 OFFCURVE",
"399 215 OFFCURVE",
"398 202 CURVE SMOOTH",
"396 176 OFFCURVE",
"390 162 OFFCURVE",
"379 143 CURVE SMOOTH",
"360 114 OFFCURVE",
"333 103 OFFCURVE",
"262 100 CURVE",
"262 0 LINE",
"762 0 LINE",
"762 100 LINE",
"727 101 OFFCURVE",
"702 105 OFFCURVE",
"685 112 CURVE SMOOTH",
"651 124 OFFCURVE",
"639 153 OFFCURVE",
"633 170 CURVE SMOOTH",
"627 186 OFFCURVE",
"625 210 OFFCURVE",
"625 254 CURVE SMOOTH",
"625 693 LINE",
"808 693 LINE",
"808 820 LINE",
"625 820 LINE",
"625 1430 LINE",
"659 1430 LINE SMOOTH",
"676 1430 OFFCURVE",
"694 1427 OFFCURVE",
"713 1420 CURVE SMOOTH",
"749 1406 OFFCURVE",
"784 1372 OFFCURVE",
"811 1305 CURVE SMOOTH",
"846 1221 OFFCURVE",
"864 1138 OFFCURVE",
"877 1063 CURVE",
"948 1063 LINE",
"930 1556 LINE",
"94 1556 LINE"
);
}
);
vertWidth = 2048;
width = 1024;
}
);
unicode = 0166;
},
{
color = 3;
glyphname = Uogonek;
lastChange = "2022-11-08 20:01:37 +0000";
layers = (
{
background = {
paths = (
{
closed = 1;
nodes = (
"43 1555 LINE",
"43 1455 LINE",
"90 1451 OFFCURVE",
"109 1439 OFFCURVE",
"125 1412 CURVE SMOOTH",
"141 1385 OFFCURVE",
"143 1358 OFFCURVE",
"143 1334 CURVE SMOOTH",
"143 588 LINE SMOOTH",
"143 537 OFFCURVE",
"145 494 OFFCURVE",
"149 458 CURVE SMOOTH",
"156 386 OFFCURVE",
"172 334 OFFCURVE",
"195 279 CURVE SMOOTH",
"258 130 OFFCURVE",
"373 64 OFFCURVE",
"532 64 CURVE SMOOTH",
"625 64 OFFCURVE",
"694 96 OFFCURVE",
"745 145 CURVE SMOOTH",
"796 194 OFFCURVE",
"829 258 OFFCURVE",
"850 322 CURVE SMOOTH",
"879 410 OFFCURVE",
"889 515 OFFCURVE",
"889 596 CURVE SMOOTH",
"889 1315 LINE SMOOTH",
"889 1366 OFFCURVE",
"903 1399 OFFCURVE",
"928 1420 CURVE SMOOTH",
"948 1436 OFFCURVE",
"971 1447 OFFCURVE",
"995 1455 CURVE",
"995 1555 LINE",
"653 1555 LINE",
"653 1455 LINE",
"686 1450 OFFCURVE",
"724 1436 OFFCURVE",
"741 1420 CURVE SMOOTH",
"762 1401 OFFCURVE",
"774 1373 OFFCURVE",
"774 1320 CURVE SMOOTH",
"774 592 LINE SMOOTH",
"774 555 OFFCURVE",
"772 517 OFFCURVE",
"768 479 CURVE SMOOTH",
"759 402 OFFCURVE",
"737 343 OFFCURVE",
"707 302 CURVE SMOOTH",
"677 261 OFFCURVE",
"630 232 OFFCURVE",
"559 232 CURVE SMOOTH",
"487 232 OFFCURVE",
"445 271 OFFCURVE",
"410 328 CURVE SMOOTH",
"379 379 OFFCURVE",
"365 451 OFFCURVE",
"365 594 CURVE SMOOTH",
"365 1336 LINE SMOOTH",
"365 1365 OFFCURVE",
"370 1397 OFFCURVE",
"391 1420 CURVE SMOOTH",
"410 1439 OFFCURVE",
"440 1454 OFFCURVE",
"467 1455 CURVE",
"467 1555 LINE"
);
},
{
closed = 1;
nodes = (
"402 46 OFFCURVE",
"352 -19 OFFCURVE",
"352 -100 CURVE SMOOTH",
"352 -135 OFFCURVE",
"361 -163 OFFCURVE",
"378 -184 CURVE SMOOTH",
"413 -226 OFFCURVE",
"472 -242 OFFCURVE",
"533 -242 CURVE SMOOTH",
"566 -242 OFFCURVE",
"595 -239 OFFCURVE",
"620 -232 CURVE SMOOTH",
"669 -220 OFFCURVE",
"708 -195 OFFCURVE",
"752 -160 CURVE",
"727 -80 LINE",
"678 -117 OFFCURVE",
"636 -135 OFFCURVE",
"600 -135 CURVE SMOOTH",
"557 -135 OFFCURVE",
"528 -115 OFFCURVE",
"528 -66 CURVE SMOOTH",
"528 -6 OFFCURVE",
"565 49 OFFCURVE",
"609 94 CURVE",
"458 92 LINE"
);
}
);
};
layerId = "4E782664-D0D5-4FED-AFC2-B9212141A2ED";
paths = (
{
closed = 1;
nodes = (
"686 1450 OFFCURVE",
"724 1436 OFFCURVE",
"741 1420 CURVE SMOOTH",
"762 1401 OFFCURVE",
"774 1373 OFFCURVE",
"774 1320 CURVE SMOOTH",
"774 592 LINE SMOOTH",
"774 555 OFFCURVE",
"772 517 OFFCURVE",
"768 479 CURVE SMOOTH",
"759 402 OFFCURVE",
"737 343 OFFCURVE",
"707 302 CURVE SMOOTH",
"677 261 OFFCURVE",
"630 232 OFFCURVE",
"559 232 CURVE SMOOTH",
"487 232 OFFCURVE",
"445 271 OFFCURVE",
"410 328 CURVE SMOOTH",
"379 379 OFFCURVE",
"365 451 OFFCURVE",
"365 594 CURVE SMOOTH",
"365 1336 LINE SMOOTH",
"365 1365 OFFCURVE",
"370 1397 OFFCURVE",
"391 1420 CURVE SMOOTH",
"410 1439 OFFCURVE",
"440 1454 OFFCURVE",
"467 1455 CURVE",
"467 1555 LINE",
"43 1555 LINE",
"43 1455 LINE",
"90 1451 OFFCURVE",
"109 1439 OFFCURVE",
"125 1412 CURVE SMOOTH",
"141 1385 OFFCURVE",
"143 1358 OFFCURVE",
"143 1334 CURVE SMOOTH",
"143 588 LINE SMOOTH",
"143 537 OFFCURVE",
"145 494 OFFCURVE",
"149 458 CURVE SMOOTH",
"156 386 OFFCURVE",
"172 334 OFFCURVE",
"195 279 CURVE SMOOTH",
"245 162 OFFCURVE",
"326 96 OFFCURVE",
"437 73 CURVE",
"390 29 OFFCURVE",
"352 -30 OFFCURVE",
"352 -100 CURVE SMOOTH",
"352 -135 OFFCURVE",
"361 -163 OFFCURVE",
"378 -184 CURVE SMOOTH",
"413 -226 OFFCURVE",
"472 -242 OFFCURVE",
"533 -242 CURVE SMOOTH",
"566 -242 OFFCURVE",
"595 -239 OFFCURVE",
"620 -232 CURVE SMOOTH",
"669 -220 OFFCURVE",
"708 -195 OFFCURVE",
"752 -160 CURVE",
"727 -80 LINE",
"678 -117 OFFCURVE",
"636 -135 OFFCURVE",
"600 -135 CURVE SMOOTH",
"557 -135 OFFCURVE",
"528 -115 OFFCURVE",
"528 -66 CURVE SMOOTH",
"528 -17 OFFCURVE",
"552 28 OFFCURVE",
"585 68 CURVE",
"652 78 OFFCURVE",
"704 106 OFFCURVE",
"745 145 CURVE SMOOTH",
"796 194 OFFCURVE",
"829 258 OFFCURVE",
"850 322 CURVE SMOOTH",
"879 410 OFFCURVE",
"889 515 OFFCURVE",
"889 596 CURVE SMOOTH",
"889 1315 LINE SMOOTH",
"889 1366 OFFCURVE",
"903 1399 OFFCURVE",
"928 1420 CURVE SMOOTH",
"948 1436 OFFCURVE",
"971 1447 OFFCURVE",
"995 1455 CURVE",
"995 1555 LINE",
"653 1555 LINE",
"653 1455 LINE"
);
}
);
vertWidth = 2048;
width = 1024;
}
);
unicode = 0172;
},
{
color = 3;
glyphname = Utilde;
lastChange = "2022-11-08 19:02:14 +0000";
layers = (
{
layerId = "4E782664-D0D5-4FED-AFC2-B9212141A2ED";
paths = (
{
closed = 1;
nodes = (
"251 1544 LINE",
"282 1600 OFFCURVE",
"327 1628 OFFCURVE",
"386 1628 CURVE SMOOTH",
"437 1628 OFFCURVE",
"484 1616 OFFCURVE",
"529 1591 CURVE SMOOTH",
"589 1562 OFFCURVE",
"640 1544 OFFCURVE",
"708 1544 CURVE SMOOTH",
"783 1544 OFFCURVE",
"868 1607 OFFCURVE",
"921 1700 CURVE",
"865 1802 LINE",
"834 1746 OFFCURVE",
"789 1718 OFFCURVE",
"730 1718 CURVE SMOOTH",
"679 1718 OFFCURVE",
"635 1728 OFFCURVE",
"597 1749 CURVE SMOOTH",
"525 1790 OFFCURVE",
"478 1802 OFFCURVE",
"409 1802 CURVE SMOOTH",
"333 1802 OFFCURVE",
"249 1742 OFFCURVE",
"196 1647 CURVE"
);
},
{
closed = 1;
nodes = (
"43 1454 LINE",
"43 1354 LINE",
"90 1350 OFFCURVE",
"109 1338 OFFCURVE",
"125 1311 CURVE SMOOTH",
"141 1284 OFFCURVE",
"143 1257 OFFCURVE",
"143 1233 CURVE SMOOTH",
"143 477 LINE SMOOTH",
"143 426 OFFCURVE",
"145 383 OFFCURVE",
"149 347 CURVE SMOOTH",
"156 275 OFFCURVE",
"172 223 OFFCURVE",
"195 168 CURVE SMOOTH",
"258 19 OFFCURVE",
"373 -47 OFFCURVE",
"532 -47 CURVE SMOOTH",
"625 -47 OFFCURVE",
"694 -15 OFFCURVE",
"745 34 CURVE SMOOTH",
"796 83 OFFCURVE",
"829 147 OFFCURVE",
"850 211 CURVE SMOOTH",
"879 299 OFFCURVE",
"889 404 OFFCURVE",
"889 485 CURVE SMOOTH",
"889 1214 LINE SMOOTH",
"889 1265 OFFCURVE",
"903 1298 OFFCURVE",
"928 1319 CURVE SMOOTH",
"948 1335 OFFCURVE",
"971 1346 OFFCURVE",
"995 1354 CURVE",
"995 1454 LINE",
"653 1454 LINE",
"653 1354 LINE",
"686 1349 OFFCURVE",
"724 1335 OFFCURVE",
"741 1319 CURVE SMOOTH",
"762 1300 OFFCURVE",
"774 1272 OFFCURVE",
"774 1219 CURVE SMOOTH",
"774 481 LINE SMOOTH",
"774 444 OFFCURVE",
"772 406 OFFCURVE",
"768 368 CURVE SMOOTH",
"759 291 OFFCURVE",
"737 232 OFFCURVE",
"707 191 CURVE SMOOTH",
"677 150 OFFCURVE",
"630 121 OFFCURVE",
"559 121 CURVE SMOOTH",
"487 121 OFFCURVE",
"445 160 OFFCURVE",
"410 217 CURVE SMOOTH",
"379 268 OFFCURVE",
"365 340 OFFCURVE",
"365 483 CURVE SMOOTH",
"365 1235 LINE SMOOTH",
"365 1264 OFFCURVE",
"370 1296 OFFCURVE",
"391 1319 CURVE SMOOTH",
"410 1338 OFFCURVE",
"440 1353 OFFCURVE",
"467 1354 CURVE",
"467 1454 LINE"
);
}
);
vertWidth = 2048;
width = 1024;
}
);
unicode = 0168;
},
{
color = 3;
glyphname = Wcircumflex;
lastChange = "2022-11-08 19:02:00 +0000";
layers = (
{
background = {
paths = (
{
closed = 1;
nodes = (
"6 1456 LINE",
"6 1358 LINE",
"23 1349 OFFCURVE",
"35 1334 OFFCURVE",
"39 1323 CURVE SMOOTH",
"51 1294 OFFCURVE",
"62 1258 OFFCURVE",
"68 1215 CURVE SMOOTH",
"248 -25 LINE",
"387 -25 LINE",
"510 768 LINE",
"516 768 LINE",
"637 -25 LINE",
"782 -25 LINE",
"944 1205 LINE SMOOTH",
"951 1256 OFFCURVE",
"965 1295 OFFCURVE",
"977 1315 CURVE SMOOTH",
"985 1330 OFFCURVE",
"995 1343 OFFCURVE",
"1018 1360 CURVE",
"1018 1456 LINE",
"772 1456 LINE",
"772 1358 LINE",
"793 1353 OFFCURVE",
"808 1345 OFFCURVE",
"817 1336 CURVE SMOOTH",
"829 1325 OFFCURVE",
"838 1301 OFFCURVE",
"838 1280 CURVE SMOOTH",
"838 1256 OFFCURVE",
"835 1217 OFFCURVE",
"831 1182 CURVE SMOOTH",
"754 484 LINE",
"745 484 LINE",
"641 1340 LINE",
"469 1340 LINE",
"377 473 LINE",
"369 473 LINE",
"276 1223 LINE SMOOTH",
"272 1256 OFFCURVE",
"270 1278 OFFCURVE",
"270 1297 CURVE SMOOTH",
"270 1317 OFFCURVE",
"272 1331 OFFCURVE",
"283 1340 CURVE SMOOTH",
"291 1348 OFFCURVE",
"302 1352 OFFCURVE",
"311 1356 CURVE",
"311 1456 LINE"
);
}
);
};
layerId = "4E782664-D0D5-4FED-AFC2-B9212141A2ED";
paths = (
{
closed = 1;
nodes = (
"443 1800 LINE",
"183 1538 LINE",
"341 1538 LINE",
"548 1667 LINE",
"755 1538 LINE",
"912 1538 LINE",
"652 1800 LINE"
);
},
{
closed = 1;
nodes = (
"6 1456 LINE",
"6 1358 LINE",
"23 1349 OFFCURVE",
"35 1334 OFFCURVE",
"39 1323 CURVE SMOOTH",
"51 1294 OFFCURVE",
"62 1258 OFFCURVE",
"68 1215 CURVE SMOOTH",
"248 -25 LINE",
"387 -25 LINE",
"510 768 LINE",
"516 768 LINE",
"637 -25 LINE",
"782 -25 LINE",
"944 1205 LINE SMOOTH",
"951 1256 OFFCURVE",
"965 1295 OFFCURVE",
"977 1315 CURVE SMOOTH",
"985 1330 OFFCURVE",
"995 1343 OFFCURVE",
"1018 1360 CURVE",
"1018 1456 LINE",
"772 1456 LINE",
"772 1358 LINE",
"793 1353 OFFCURVE",
"808 1345 OFFCURVE",
"817 1336 CURVE SMOOTH",
"829 1325 OFFCURVE",
"838 1301 OFFCURVE",
"838 1280 CURVE SMOOTH",
"838 1256 OFFCURVE",
"835 1217 OFFCURVE",
"831 1182 CURVE SMOOTH",
"754 484 LINE",
"745 484 LINE",
"641 1340 LINE",
"469 1340 LINE",
"377 473 LINE",
"369 473 LINE",
"276 1223 LINE SMOOTH",
"272 1256 OFFCURVE",
"270 1278 OFFCURVE",
"270 1297 CURVE SMOOTH",
"270 1317 OFFCURVE",
"272 1331 OFFCURVE",
"283 1340 CURVE SMOOTH",
"291 1348 OFFCURVE",
"302 1352 OFFCURVE",
"311 1356 CURVE",
"311 1456 LINE"
);
}
);
vertWidth = 2048;
width = 1024;
}
);
unicode = 0174;
},
{
color = 3;
glyphname = Ycircumflex;
lastChange = "2022-11-08 19:01:24 +0000";
layers = (
{
layerId = "4E782664-D0D5-4FED-AFC2-B9212141A2ED";
paths = (
{
closed = 1;
nodes = (
"418 1800 LINE",
"158 1538 LINE",
"316 1538 LINE",
"523 1667 LINE",
"730 1538 LINE",
"887 1538 LINE",
"627 1800 LINE"
);
},
{
closed = 1;
nodes = (
"33 1454 LINE",
"33 1360 LINE",
"64 1356 OFFCURVE",
"90 1340 OFFCURVE",
"113 1313 CURVE SMOOTH",
"132 1290 OFFCURVE",
"152 1253 OFFCURVE",
"170 1206 CURVE SMOOTH",
"393 637 LINE",
"393 236 LINE SMOOTH",
"393 183 OFFCURVE",
"390 152 OFFCURVE",
"375 133 CURVE SMOOTH",
"354 106 OFFCURVE",
"319 97 OFFCURVE",
"258 94 CURVE",
"258 0 LINE",
"752 0 LINE",
"752 94 LINE",
"687 98 OFFCURVE",
"658 109 OFFCURVE",
"635 133 CURVE",
"622 150 OFFCURVE",
"618 179 OFFCURVE",
"618 236 CURVE SMOOTH",
"618 647 LINE",
"846 1198 LINE SMOOTH",
"864 1241 OFFCURVE",
"884 1272 OFFCURVE",
"901 1296 CURVE SMOOTH",
"924 1325 OFFCURVE",
"952 1349 OFFCURVE",
"993 1362 CURVE",
"993 1454 LINE",
"653 1454 LINE",
"653 1358 LINE",
"676 1353 OFFCURVE",
"692 1348 OFFCURVE",
"711 1341 CURVE SMOOTH",
"734 1332 OFFCURVE",
"750 1320 OFFCURVE",
"750 1305 CURVE SMOOTH",
"750 1282 OFFCURVE",
"743 1261 OFFCURVE",
"727 1214 CURVE",
"559 791 LINE",
"401 1221 LINE SMOOTH",
"392 1245 OFFCURVE",
"385 1276 OFFCURVE",
"385 1300 CURVE SMOOTH",
"385 1318 OFFCURVE",
"394 1332 OFFCURVE",
"412 1341 CURVE SMOOTH",
"427 1348 OFFCURVE",
"446 1357 OFFCURVE",
"463 1358 CURVE",
"463 1454 LINE"
);
}
);
vertWidth = 2048;
width = 1024;
}
);
unicode = 0176;
},
{
color = 3;
glyphname = Ydieresis;
lastChange = "2022-11-08 19:01:33 +0000";
layers = (
{
layerId = "4E782664-D0D5-4FED-AFC2-B9212141A2ED";
paths = (
{
closed = 1;
nodes = (
"261 1800 OFFCURVE",
"237 1794 OFFCURVE",
"215 1781 CURVE SMOOTH",
"171 1755 OFFCURVE",
"143 1709 OFFCURVE",
"143 1657 CURVE SMOOTH",
"143 1631 OFFCURVE",
"150 1607 OFFCURVE",
"163 1586 CURVE SMOOTH",
"189 1542 OFFCURVE",
"235 1513 OFFCURVE",
"286 1513 CURVE SMOOTH",
"312 1513 OFFCURVE",
"336 1520 OFFCURVE",
"358 1533 CURVE SMOOTH",
"402 1560 OFFCURVE",
"430 1605 OFFCURVE",
"430 1657 CURVE SMOOTH",
"430 1683 OFFCURVE",
"424 1707 OFFCURVE",
"411 1729 CURVE SMOOTH",
"385 1772 OFFCURVE",
"338 1800 OFFCURVE",
"286 1800 CURVE SMOOTH"
);
},
{
closed = 1;
nodes = (
"732 1800 OFFCURVE",
"708 1794 OFFCURVE",
"687 1781 CURVE SMOOTH",
"643 1755 OFFCURVE",
"614 1709 OFFCURVE",
"614 1657 CURVE SMOOTH",
"614 1631 OFFCURVE",
"621 1607 OFFCURVE",
"634 1586 CURVE SMOOTH",
"661 1542 OFFCURVE",
"706 1513 OFFCURVE",
"758 1513 CURVE SMOOTH",
"784 1513 OFFCURVE",
"808 1520 OFFCURVE",
"830 1533 CURVE SMOOTH",
"873 1560 OFFCURVE",
"901 1605 OFFCURVE",
"901 1657 CURVE SMOOTH",
"901 1683 OFFCURVE",
"895 1707 OFFCURVE",
"882 1729 CURVE SMOOTH",
"856 1772 OFFCURVE",
"810 1800 OFFCURVE",
"758 1800 CURVE SMOOTH"
);
},
{
closed = 1;
nodes = (
"33 1454 LINE",
"33 1360 LINE",
"64 1356 OFFCURVE",
"90 1340 OFFCURVE",
"113 1313 CURVE SMOOTH",
"132 1290 OFFCURVE",
"152 1253 OFFCURVE",
"170 1206 CURVE SMOOTH",
"393 637 LINE",
"393 236 LINE SMOOTH",
"393 183 OFFCURVE",
"390 152 OFFCURVE",
"375 133 CURVE SMOOTH",
"354 106 OFFCURVE",
"319 97 OFFCURVE",
"258 94 CURVE",
"258 0 LINE",
"752 0 LINE",
"752 94 LINE",
"687 98 OFFCURVE",
"658 109 OFFCURVE",
"635 133 CURVE",
"622 150 OFFCURVE",
"618 179 OFFCURVE",
"618 236 CURVE SMOOTH",
"618 647 LINE",
"846 1198 LINE SMOOTH",
"864 1241 OFFCURVE",
"884 1272 OFFCURVE",
"901 1296 CURVE SMOOTH",
"924 1325 OFFCURVE",
"952 1349 OFFCURVE",
"993 1362 CURVE",
"993 1454 LINE",
"653 1454 LINE",
"653 1358 LINE",
"676 1353 OFFCURVE",
"692 1348 OFFCURVE",
"711 1341 CURVE SMOOTH",
"734 1332 OFFCURVE",
"750 1320 OFFCURVE",
"750 1305 CURVE SMOOTH",
"750 1282 OFFCURVE",
"743 1261 OFFCURVE",
"727 1214 CURVE",
"559 791 LINE",
"401 1221 LINE SMOOTH",
"392 1245 OFFCURVE",
"385 1276 OFFCURVE",
"385 1300 CURVE SMOOTH",
"385 1318 OFFCURVE",
"394 1332 OFFCURVE",
"412 1341 CURVE SMOOTH",
"427 1348 OFFCURVE",
"446 1357 OFFCURVE",
"463 1358 CURVE",
"463 1454 LINE"
);
}
);
vertWidth = 2048;
width = 1024;
}
);
unicode = 0178;
},
{
color = 3;
glyphname = cdotaccent;
lastChange = "2022-11-08 19:07:53 +0000";
layers = (
{
layerId = "4E782664-D0D5-4FED-AFC2-B9212141A2ED";
paths = (
{
closed = 1;
nodes = (
"442 1147 OFFCURVE",
"334 1092 OFFCURVE",
"257 989 CURVE SMOOTH",
"180 886 OFFCURVE",
"135 738 OFFCURVE",
"135 553 CURVE SMOOTH",
"135 426 OFFCURVE",
"154 319 OFFCURVE",
"191 230 CURVE SMOOTH",
"266 53 OFFCURVE",
"400 -41 OFFCURVE",
"567 -41 CURVE SMOOTH",
"648 -41 OFFCURVE",
"717 -9 OFFCURVE",
"771 40 CURVE SMOOTH",
"825 88 OFFCURVE",
"863 151 OFFCURVE",
"887 215 CURVE",
"821 295 LINE",
"768 182 OFFCURVE",
"685 113 OFFCURVE",
"598 113 CURVE SMOOTH",
"573 113 OFFCURVE",
"548 119 OFFCURVE",
"524 132 CURVE SMOOTH",
"475 157 OFFCURVE",
"436 219 OFFCURVE",
"413 334 CURVE SMOOTH",
"390 449 OFFCURVE",
"390 687 OFFCURVE",
"422 830 CURVE SMOOTH",
"454 973 OFFCURVE",
"510 1038 OFFCURVE",
"575 1038 CURVE SMOOTH",
"631 1038 OFFCURVE",
"655 1018 OFFCURVE",
"680 985 CURVE",
"641 965 OFFCURVE",
"621 922 OFFCURVE",
"621 879 CURVE SMOOTH",
"621 811 OFFCURVE",
"675 768 OFFCURVE",
"748 768 CURVE SMOOTH",
"787 768 OFFCURVE",
"823 790 OFFCURVE",
"846 826 CURVE SMOOTH",
"869 862 OFFCURVE",
"870 917 OFFCURVE",
"854 968 CURVE SMOOTH",
"837 1019 OFFCURVE",
"804 1060 OFFCURVE",
"752 1093 CURVE SMOOTH",
"699 1125 OFFCURVE",
"634 1147 OFFCURVE",
"567 1147 CURVE SMOOTH"
);
},
{
closed = 1;
nodes = (
"541 1612 OFFCURVE",
"515 1605 OFFCURVE",
"491 1591 CURVE SMOOTH",
"443 1562 OFFCURVE",
"412 1511 OFFCURVE",
"412 1454 CURVE SMOOTH",
"412 1425 OFFCURVE",
"419 1399 OFFCURVE",
"434 1375 CURVE SMOOTH",
"462 1327 OFFCURVE",
"513 1296 OFFCURVE",
"570 1296 CURVE SMOOTH",
"599 1296 OFFCURVE",
"625 1303 OFFCURVE",
"649 1318 CURVE SMOOTH",
"697 1346 OFFCURVE",
"728 1397 OFFCURVE",
"728 1454 CURVE SMOOTH",
"728 1483 OFFCURVE",
"721 1509 OFFCURVE",
"707 1533 CURVE SMOOTH",
"678 1581 OFFCURVE",
"627 1612 OFFCURVE",
"570 1612 CURVE SMOOTH"
);
}
);
vertWidth = 2048;
width = 1024;
}
);
unicode = 010B;
},
{
color = 3;
glyphname = ebreve;
lastChange = "2022-11-08 19:08:10 +0000";
layers = (
{
layerId = "4E782664-D0D5-4FED-AFC2-B9212141A2ED";
paths = (
{
closed = 1;
nodes = (
"445 1147 OFFCURVE",
"379 1123 OFFCURVE",
"322 1076 CURVE SMOOTH",
"207 981 OFFCURVE",
"139 801 OFFCURVE",
"139 553 CURVE SMOOTH",
"139 366 OFFCURVE",
"181 219 OFFCURVE",
"254 116 CURVE SMOOTH",
"326 13 OFFCURVE",
"426 -41 OFFCURVE",
"541 -41 CURVE SMOOTH",
"640 -41 OFFCURVE",
"713 -4 OFFCURVE",
"768 52 CURVE SMOOTH",
"823 107 OFFCURVE",
"859 175 OFFCURVE",
"883 238 CURVE",
"805 317 LINE",
"790 278 OFFCURVE",
"771 244 OFFCURVE",
"748 213 CURVE SMOOTH",
"701 151 OFFCURVE",
"645 111 OFFCURVE",
"586 111 CURVE SMOOTH",
"549 111 OFFCURVE",
"515 125 OFFCURVE",
"485 154 CURVE SMOOTH",
"424 210 OFFCURVE",
"387 325 OFFCURVE",
"387 504 CURVE SMOOTH",
"387 537 LINE",
"885 537 LINE",
"885 592 LINE SMOOTH",
"885 685 OFFCURVE",
"877 763 OFFCURVE",
"860 828 CURVE SMOOTH",
"826 957 OFFCURVE",
"768 1038 OFFCURVE",
"703 1085 CURVE SMOOTH",
"638 1132 OFFCURVE",
"570 1147 OFFCURVE",
"518 1147 CURVE SMOOTH"
);
},
{
closed = 1;
nodes = (
"535 1038 OFFCURVE",
"551 1027 OFFCURVE",
"566 1004 CURVE SMOOTH",
"595 959 OFFCURVE",
"610 903 OFFCURVE",
"619 839 CURVE SMOOTH",
"627 774 OFFCURVE",
"631 706 OFFCURVE",
"631 651 CURVE",
"395 651 LINE",
"398 747 OFFCURVE",
"405 823 OFFCURVE",
"418 880 CURVE SMOOTH",
"430 936 OFFCURVE",
"445 976 OFFCURVE",
"463 1001 CURVE SMOOTH",
"480 1026 OFFCURVE",
"498 1038 OFFCURVE",
"516 1038 CURVE SMOOTH"
);
},
{
closed = 1;
nodes = (
"190 1556 LINE",
"203 1491 OFFCURVE",
"226 1439 OFFCURVE",
"257 1398 CURVE SMOOTH",
"320 1316 OFFCURVE",
"411 1278 OFFCURVE",
"512 1278 CURVE SMOOTH",
"563 1278 OFFCURVE",
"610 1288 OFFCURVE",
"654 1307 CURVE SMOOTH",
"742 1346 OFFCURVE",
"809 1427 OFFCURVE",
"834 1556 CURVE",
"717 1556 LINE",
"682 1483 OFFCURVE",
"614 1434 OFFCURVE",
"510 1434 CURVE SMOOTH",
"406 1434 OFFCURVE",
"342 1483 OFFCURVE",
"307 1556 CURVE"
);
}
);
vertWidth = 2048;
width = 1024;
}
);
unicode = 0115;
},
{
color = 3;
glyphname = edotaccent;
lastChange = "2022-11-08 19:35:59 +0000";
layers = (
{
layerId = "4E782664-D0D5-4FED-AFC2-B9212141A2ED";
paths = (
{
closed = 1;
nodes = (
"538 1596 OFFCURVE",
"562 1589 OFFCURVE",
"585 1575 CURVE SMOOTH",
"631 1548 OFFCURVE",
"654 1507 OFFCURVE",
"654 1454 CURVE SMOOTH",
"654 1418 OFFCURVE",
"642 1386 OFFCURVE",
"617 1359 CURVE SMOOTH",
"589 1328 OFFCURVE",
"554 1313 OFFCURVE",
"511 1313 CURVE SMOOTH",
"488 1313 OFFCURVE",
"466 1319 OFFCURVE",
"445 1330 CURVE SMOOTH",
"396 1357 OFFCURVE",
"371 1399 OFFCURVE",
"371 1455 CURVE SMOOTH",
"371 1494 OFFCURVE",
"385 1528 OFFCURVE",
"414 1556 CURVE SMOOTH",
"441 1583 OFFCURVE",
"474 1596 OFFCURVE",
"513 1596 CURVE SMOOTH"
);
},
{
closed = 1;
nodes = (
"445 1147 OFFCURVE",
"379 1123 OFFCURVE",
"322 1076 CURVE SMOOTH",
"207 981 OFFCURVE",
"139 801 OFFCURVE",
"139 553 CURVE SMOOTH",
"139 366 OFFCURVE",
"181 219 OFFCURVE",
"254 116 CURVE SMOOTH",
"326 13 OFFCURVE",
"426 -41 OFFCURVE",
"541 -41 CURVE SMOOTH",
"640 -41 OFFCURVE",
"713 -4 OFFCURVE",
"768 52 CURVE SMOOTH",
"823 107 OFFCURVE",
"859 175 OFFCURVE",
"883 238 CURVE",
"805 317 LINE",
"790 278 OFFCURVE",
"771 244 OFFCURVE",
"748 213 CURVE SMOOTH",
"701 151 OFFCURVE",
"645 111 OFFCURVE",
"586 111 CURVE SMOOTH",
"549 111 OFFCURVE",
"515 125 OFFCURVE",
"485 154 CURVE SMOOTH",
"424 210 OFFCURVE",
"387 325 OFFCURVE",
"387 504 CURVE SMOOTH",
"387 537 LINE",
"885 537 LINE",
"885 592 LINE SMOOTH",
"885 685 OFFCURVE",
"877 763 OFFCURVE",
"860 828 CURVE SMOOTH",
"826 957 OFFCURVE",
"768 1038 OFFCURVE",
"703 1085 CURVE SMOOTH",
"638 1132 OFFCURVE",
"570 1147 OFFCURVE",
"518 1147 CURVE SMOOTH"
);
},
{
closed = 1;
nodes = (
"535 1038 OFFCURVE",
"551 1027 OFFCURVE",
"566 1004 CURVE SMOOTH",
"595 959 OFFCURVE",
"610 903 OFFCURVE",
"619 839 CURVE SMOOTH",
"627 774 OFFCURVE",
"631 706 OFFCURVE",
"631 651 CURVE",
"395 651 LINE",
"398 747 OFFCURVE",
"405 823 OFFCURVE",
"418 880 CURVE SMOOTH",
"430 936 OFFCURVE",
"445 976 OFFCURVE",
"463 1001 CURVE SMOOTH",
"480 1026 OFFCURVE",
"498 1038 OFFCURVE",
"516 1038 CURVE SMOOTH"
);
}
);
vertWidth = 2048;
width = 1024;
}
);
unicode = 0117;
},
{
color = 3;
glyphname = gbreve;
lastChange = "2022-11-08 19:36:38 +0000";
layers = (
{
layerId = "4E782664-D0D5-4FED-AFC2-B9212141A2ED";
paths = (
{
closed = 1;
nodes = (
"170 1556 LINE",
"183 1491 OFFCURVE",
"206 1439 OFFCURVE",
"237 1398 CURVE SMOOTH",
"300 1316 OFFCURVE",
"391 1278 OFFCURVE",
"492 1278 CURVE SMOOTH",
"543 1278 OFFCURVE",
"590 1288 OFFCURVE",
"634 1307 CURVE SMOOTH",
"722 1346 OFFCURVE",
"789 1427 OFFCURVE",
"814 1556 CURVE",
"697 1556 LINE",
"662 1483 OFFCURVE",
"594 1434 OFFCURVE",
"490 1434 CURVE SMOOTH",
"386 1434 OFFCURVE",
"322 1483 OFFCURVE",
"287 1556 CURVE"
);
},
{
closed = 1;
nodes = (
"775 1210 OFFCURVE",
"711 1167 OFFCURVE",
"668 1106 CURVE",
"637 1126 OFFCURVE",
"561 1145 OFFCURVE",
"489 1145 CURVE SMOOTH",
"415 1145 OFFCURVE",
"351 1130 OFFCURVE",
"297 1100 CURVE SMOOTH",
"189 1040 OFFCURVE",
"129 932 OFFCURVE",
"129 797 CURVE SMOOTH",
"129 748 OFFCURVE",
"134 707 OFFCURVE",
"143 673 CURVE SMOOTH",
"162 605 OFFCURVE",
"193 563 OFFCURVE",
"221 539 CURVE",
"204 536 OFFCURVE",
"188 526 OFFCURVE",
"173 511 CURVE SMOOTH",
"141 479 OFFCURVE",
"119 430 OFFCURVE",
"119 375 CURVE SMOOTH",
"119 352 OFFCURVE",
"125 329 OFFCURVE",
"136 307 CURVE SMOOTH",
"158 263 OFFCURVE",
"199 228 OFFCURVE",
"254 217 CURVE",
"254 209 LINE",
"221 201 OFFCURVE",
"194 187 OFFCURVE",
"171 167 CURVE SMOOTH",
"126 126 OFFCURVE",
"102 69 OFFCURVE",
"102 12 CURVE SMOOTH",
"102 -39 OFFCURVE",
"118 -84 OFFCURVE",
"151 -123 CURVE SMOOTH",
"216 -201 OFFCURVE",
"337 -246 OFFCURVE",
"492 -246 CURVE SMOOTH",
"652 -246 OFFCURVE",
"759 -208 OFFCURVE",
"823 -145 CURVE SMOOTH",
"887 -82 OFFCURVE",
"913 -2 OFFCURVE",
"913 82 CURVE SMOOTH",
"913 169 OFFCURVE",
"885 242 OFFCURVE",
"840 287 CURVE SMOOTH",
"791 336 OFFCURVE",
"714 358 OFFCURVE",
"623 365 CURVE SMOOTH",
"440 379 LINE SMOOTH",
"389 383 OFFCURVE",
"353 390 OFFCURVE",
"330 399 CURVE SMOOTH",
"307 408 OFFCURVE",
"295 425 OFFCURVE",
"295 449 CURVE SMOOTH",
"295 468 OFFCURVE",
"305 486 OFFCURVE",
"328 487 CURVE",
"339 482 OFFCURVE",
"354 478 OFFCURVE",
"373 475 CURVE SMOOTH",
"410 467 OFFCURVE",
"455 463 OFFCURVE",
"487 463 CURVE SMOOTH",
"562 463 OFFCURVE",
"626 478 OFFCURVE",
"678 509 CURVE SMOOTH",
"781 569 OFFCURVE",
"834 680 OFFCURVE",
"834 817 CURVE SMOOTH",
"834 928 OFFCURVE",
"799 985 OFFCURVE",
"758 1032 CURVE",
"770 1059 OFFCURVE",
"793 1081 OFFCURVE",
"809 1092 CURVE",
"804 1072 OFFCURVE",
"806 1053 OFFCURVE",
"813 1036 CURVE SMOOTH",
"827 1000 OFFCURVE",
"859 975 OFFCURVE",
"895 975 CURVE SMOOTH",
"950 975 OFFCURVE",
"987 1016 OFFCURVE",
"987 1081 CURVE SMOOTH",
"987 1103 OFFCURVE",
"982 1124 OFFCURVE",
"973 1144 CURVE SMOOTH",
"953 1183 OFFCURVE",
"915 1210 OFFCURVE",
"860 1210 CURVE SMOOTH"
);
},
{
closed = 1;
nodes = (
"563 1047 OFFCURVE",
"608 967 OFFCURVE",
"608 811 CURVE SMOOTH",
"608 731 OFFCURVE",
"596 670 OFFCURVE",
"573 628 CURVE SMOOTH",
"549 586 OFFCURVE",
"520 565 OFFCURVE",
"487 565 CURVE SMOOTH",
"466 565 OFFCURVE",
"445 574 OFFCURVE",
"426 593 CURVE SMOOTH",
"386 629 OFFCURVE",
"360 702 OFFCURVE",
"360 811 CURVE SMOOTH",
"360 966 OFFCURVE",
"402 1047 OFFCURVE",
"487 1047 CURVE SMOOTH"
);
},
{
closed = 1;
nodes = (
"545 147 OFFCURVE",
"585 142 OFFCURVE",
"615 131 CURVE SMOOTH",
"674 109 OFFCURVE",
"698 72 OFFCURVE",
"698 31 CURVE SMOOTH",
"698 -68 OFFCURVE",
"629 -139 OFFCURVE",
"500 -139 CURVE SMOOTH",
"465 -139 OFFCURVE",
"433 -132 OFFCURVE",
"402 -119 CURVE SMOOTH",
"341 -93 OFFCURVE",
"299 -48 OFFCURVE",
"299 8 CURVE SMOOTH",
"299 43 OFFCURVE",
"305 70 OFFCURVE",
"318 90 CURVE SMOOTH",
"342 130 OFFCURVE",
"397 147 OFFCURVE",
"494 147 CURVE SMOOTH"
);
}
);
vertWidth = 2048;
width = 1024;
}
);
unicode = 011F;
},
{
color = 3;
glyphname = gcommaaccent;
lastChange = "2022-11-08 19:36:32 +0000";
layers = (
{
background = {
paths = (
{
closed = 1;
nodes = (
"505 1596 OFFCURVE",
"529 1589 OFFCURVE",
"552 1575 CURVE SMOOTH",
"598 1548 OFFCURVE",
"621 1507 OFFCURVE",
"621 1454 CURVE SMOOTH",
"621 1418 OFFCURVE",
"609 1386 OFFCURVE",
"584 1359 CURVE SMOOTH",
"556 1328 OFFCURVE",
"521 1313 OFFCURVE",
"478 1313 CURVE SMOOTH",
"455 1313 OFFCURVE",
"433 1319 OFFCURVE",
"412 1330 CURVE SMOOTH",
"363 1357 OFFCURVE",
"338 1399 OFFCURVE",
"338 1455 CURVE SMOOTH",
"338 1494 OFFCURVE",
"352 1528 OFFCURVE",
"381 1556 CURVE SMOOTH",
"408 1583 OFFCURVE",
"441 1596 OFFCURVE",
"480 1596 CURVE SMOOTH"
);
}
);
};
layerId = "4E782664-D0D5-4FED-AFC2-B9212141A2ED";
paths = (
{
closed = 1;
nodes = (
"561 1606 LINE",
"521 1576 OFFCURVE",
"499 1546 OFFCURVE",
"497 1515 CURVE",
"568 1515 OFFCURVE",
"617 1488 OFFCURVE",
"617 1421 CURVE SMOOTH",
"617 1352 OFFCURVE",
"564 1314 OFFCURVE",
"488 1314 CURVE SMOOTH",
"408 1314 OFFCURVE",
"348 1354 OFFCURVE",
"348 1442 CURVE SMOOTH",
"348 1540 OFFCURVE",
"417 1600 OFFCURVE",
"520 1661 CURVE"
);
},
{
closed = 1;
nodes = (
"775 1210 OFFCURVE",
"711 1167 OFFCURVE",
"668 1106 CURVE",
"637 1126 OFFCURVE",
"561 1145 OFFCURVE",
"489 1145 CURVE SMOOTH",
"415 1145 OFFCURVE",
"351 1130 OFFCURVE",
"297 1100 CURVE SMOOTH",
"189 1040 OFFCURVE",
"129 932 OFFCURVE",
"129 797 CURVE SMOOTH",
"129 748 OFFCURVE",
"134 707 OFFCURVE",
"143 673 CURVE SMOOTH",
"162 605 OFFCURVE",
"193 563 OFFCURVE",
"221 539 CURVE",
"204 536 OFFCURVE",
"188 526 OFFCURVE",
"173 511 CURVE SMOOTH",
"141 479 OFFCURVE",
"119 430 OFFCURVE",
"119 375 CURVE SMOOTH",
"119 352 OFFCURVE",
"125 329 OFFCURVE",
"136 307 CURVE SMOOTH",
"158 263 OFFCURVE",
"199 228 OFFCURVE",
"254 217 CURVE",
"254 209 LINE",
"221 201 OFFCURVE",
"194 187 OFFCURVE",
"171 167 CURVE SMOOTH",
"126 126 OFFCURVE",
"102 69 OFFCURVE",
"102 12 CURVE SMOOTH",
"102 -39 OFFCURVE",
"118 -84 OFFCURVE",
"151 -123 CURVE SMOOTH",
"216 -201 OFFCURVE",
"337 -246 OFFCURVE",
"492 -246 CURVE SMOOTH",
"652 -246 OFFCURVE",
"759 -208 OFFCURVE",
"823 -145 CURVE SMOOTH",
"887 -82 OFFCURVE",
"913 -2 OFFCURVE",
"913 82 CURVE SMOOTH",
"913 169 OFFCURVE",
"885 242 OFFCURVE",
"840 287 CURVE SMOOTH",
"791 336 OFFCURVE",
"714 358 OFFCURVE",
"623 365 CURVE SMOOTH",
"440 379 LINE SMOOTH",
"389 383 OFFCURVE",
"353 390 OFFCURVE",
"330 399 CURVE SMOOTH",
"307 408 OFFCURVE",
"295 425 OFFCURVE",
"295 449 CURVE SMOOTH",
"295 468 OFFCURVE",
"305 486 OFFCURVE",
"328 487 CURVE",
"339 482 OFFCURVE",
"354 478 OFFCURVE",
"373 475 CURVE SMOOTH",
"410 467 OFFCURVE",
"455 463 OFFCURVE",
"487 463 CURVE SMOOTH",
"562 463 OFFCURVE",
"626 478 OFFCURVE",
"678 509 CURVE SMOOTH",
"781 569 OFFCURVE",
"834 680 OFFCURVE",
"834 817 CURVE SMOOTH",
"834 928 OFFCURVE",
"799 985 OFFCURVE",
"758 1032 CURVE",
"770 1059 OFFCURVE",
"793 1081 OFFCURVE",
"809 1092 CURVE",
"804 1072 OFFCURVE",
"806 1053 OFFCURVE",
"813 1036 CURVE SMOOTH",
"827 1000 OFFCURVE",
"859 975 OFFCURVE",
"895 975 CURVE SMOOTH",
"950 975 OFFCURVE",
"987 1016 OFFCURVE",
"987 1081 CURVE SMOOTH",
"987 1103 OFFCURVE",
"982 1124 OFFCURVE",
"973 1144 CURVE SMOOTH",
"953 1183 OFFCURVE",
"915 1210 OFFCURVE",
"860 1210 CURVE SMOOTH"
);
},
{
closed = 1;
nodes = (
"563 1047 OFFCURVE",
"608 967 OFFCURVE",
"608 811 CURVE SMOOTH",
"608 731 OFFCURVE",
"596 670 OFFCURVE",
"573 628 CURVE SMOOTH",
"549 586 OFFCURVE",
"520 565 OFFCURVE",
"487 565 CURVE SMOOTH",
"466 565 OFFCURVE",
"445 574 OFFCURVE",
"426 593 CURVE SMOOTH",
"386 629 OFFCURVE",
"360 702 OFFCURVE",
"360 811 CURVE SMOOTH",
"360 966 OFFCURVE",
"402 1047 OFFCURVE",
"487 1047 CURVE SMOOTH"
);
},
{
closed = 1;
nodes = (
"545 147 OFFCURVE",
"585 142 OFFCURVE",
"615 131 CURVE SMOOTH",
"674 109 OFFCURVE",
"698 72 OFFCURVE",
"698 31 CURVE SMOOTH",
"698 -68 OFFCURVE",
"629 -139 OFFCURVE",
"500 -139 CURVE SMOOTH",
"465 -139 OFFCURVE",
"433 -132 OFFCURVE",
"402 -119 CURVE SMOOTH",
"341 -93 OFFCURVE",
"299 -48 OFFCURVE",
"299 8 CURVE SMOOTH",
"299 43 OFFCURVE",
"305 70 OFFCURVE",
"318 90 CURVE SMOOTH",
"342 130 OFFCURVE",
"397 147 OFFCURVE",
"494 147 CURVE SMOOTH"
);
}
);
vertWidth = 2048;
width = 1024;
}
);
unicode = 0123;
},
{
color = 3;
glyphname = gdotaccent;
lastChange = "2022-11-08 19:36:30 +0000";
layers = (
{
layerId = "4E782664-D0D5-4FED-AFC2-B9212141A2ED";
paths = (
{
closed = 1;
nodes = (
"515 1596 OFFCURVE",
"539 1589 OFFCURVE",
"562 1575 CURVE SMOOTH",
"608 1548 OFFCURVE",
"631 1507 OFFCURVE",
"631 1454 CURVE SMOOTH",
"631 1418 OFFCURVE",
"619 1386 OFFCURVE",
"594 1359 CURVE SMOOTH",
"566 1328 OFFCURVE",
"531 1313 OFFCURVE",
"488 1313 CURVE SMOOTH",
"465 1313 OFFCURVE",
"443 1319 OFFCURVE",
"422 1330 CURVE SMOOTH",
"373 1357 OFFCURVE",
"348 1399 OFFCURVE",
"348 1455 CURVE SMOOTH",
"348 1494 OFFCURVE",
"362 1528 OFFCURVE",
"391 1556 CURVE SMOOTH",
"418 1583 OFFCURVE",
"451 1596 OFFCURVE",
"490 1596 CURVE SMOOTH"
);
},
{
closed = 1;
nodes = (
"775 1210 OFFCURVE",
"711 1167 OFFCURVE",
"668 1106 CURVE",
"637 1126 OFFCURVE",
"561 1145 OFFCURVE",
"489 1145 CURVE SMOOTH",
"415 1145 OFFCURVE",
"351 1130 OFFCURVE",
"297 1100 CURVE SMOOTH",
"189 1040 OFFCURVE",
"129 932 OFFCURVE",
"129 797 CURVE SMOOTH",
"129 748 OFFCURVE",
"134 707 OFFCURVE",
"143 673 CURVE SMOOTH",
"162 605 OFFCURVE",
"193 563 OFFCURVE",
"221 539 CURVE",
"204 536 OFFCURVE",
"188 526 OFFCURVE",
"173 511 CURVE SMOOTH",
"141 479 OFFCURVE",
"119 430 OFFCURVE",
"119 375 CURVE SMOOTH",
"119 352 OFFCURVE",
"125 329 OFFCURVE",
"136 307 CURVE SMOOTH",
"158 263 OFFCURVE",
"199 228 OFFCURVE",
"254 217 CURVE",
"254 209 LINE",
"221 201 OFFCURVE",
"194 187 OFFCURVE",
"171 167 CURVE SMOOTH",
"126 126 OFFCURVE",
"102 69 OFFCURVE",
"102 12 CURVE SMOOTH",
"102 -39 OFFCURVE",
"118 -84 OFFCURVE",
"151 -123 CURVE SMOOTH",
"216 -201 OFFCURVE",
"337 -246 OFFCURVE",
"492 -246 CURVE SMOOTH",
"652 -246 OFFCURVE",
"759 -208 OFFCURVE",
"823 -145 CURVE SMOOTH",
"887 -82 OFFCURVE",
"913 -2 OFFCURVE",
"913 82 CURVE SMOOTH",
"913 169 OFFCURVE",
"885 242 OFFCURVE",
"840 287 CURVE SMOOTH",
"791 336 OFFCURVE",
"714 358 OFFCURVE",
"623 365 CURVE SMOOTH",
"440 379 LINE SMOOTH",
"389 383 OFFCURVE",
"353 390 OFFCURVE",
"330 399 CURVE SMOOTH",
"307 408 OFFCURVE",
"295 425 OFFCURVE",
"295 449 CURVE SMOOTH",
"295 468 OFFCURVE",
"305 486 OFFCURVE",
"328 487 CURVE",
"339 482 OFFCURVE",
"354 478 OFFCURVE",
"373 475 CURVE SMOOTH",
"410 467 OFFCURVE",
"455 463 OFFCURVE",
"487 463 CURVE SMOOTH",
"562 463 OFFCURVE",
"626 478 OFFCURVE",
"678 509 CURVE SMOOTH",
"781 569 OFFCURVE",
"834 680 OFFCURVE",
"834 817 CURVE SMOOTH",
"834 928 OFFCURVE",
"799 985 OFFCURVE",
"758 1032 CURVE",
"770 1059 OFFCURVE",
"793 1081 OFFCURVE",
"809 1092 CURVE",
"804 1072 OFFCURVE",
"806 1053 OFFCURVE",
"813 1036 CURVE SMOOTH",
"827 1000 OFFCURVE",
"859 975 OFFCURVE",
"895 975 CURVE SMOOTH",
"950 975 OFFCURVE",
"987 1016 OFFCURVE",
"987 1081 CURVE SMOOTH",
"987 1103 OFFCURVE",
"982 1124 OFFCURVE",
"973 1144 CURVE SMOOTH",
"953 1183 OFFCURVE",
"915 1210 OFFCURVE",
"860 1210 CURVE SMOOTH"
);
},
{
closed = 1;
nodes = (
"563 1047 OFFCURVE",
"608 967 OFFCURVE",
"608 811 CURVE SMOOTH",
"608 731 OFFCURVE",
"596 670 OFFCURVE",
"573 628 CURVE SMOOTH",
"549 586 OFFCURVE",
"520 565 OFFCURVE",
"487 565 CURVE SMOOTH",
"466 565 OFFCURVE",
"445 574 OFFCURVE",
"426 593 CURVE SMOOTH",
"386 629 OFFCURVE",
"360 702 OFFCURVE",
"360 811 CURVE SMOOTH",
"360 966 OFFCURVE",
"402 1047 OFFCURVE",
"487 1047 CURVE SMOOTH"
);
},
{
closed = 1;
nodes = (
"545 147 OFFCURVE",
"585 142 OFFCURVE",
"615 131 CURVE SMOOTH",
"674 109 OFFCURVE",
"698 72 OFFCURVE",
"698 31 CURVE SMOOTH",
"698 -68 OFFCURVE",
"629 -139 OFFCURVE",
"500 -139 CURVE SMOOTH",
"465 -139 OFFCURVE",
"433 -132 OFFCURVE",
"402 -119 CURVE SMOOTH",
"341 -93 OFFCURVE",
"299 -48 OFFCURVE",
"299 8 CURVE SMOOTH",
"299 43 OFFCURVE",
"305 70 OFFCURVE",
"318 90 CURVE SMOOTH",
"342 130 OFFCURVE",
"397 147 OFFCURVE",
"494 147 CURVE SMOOTH"
);
}
);
vertWidth = 2048;
width = 1024;
}
);
unicode = 0121;
},
{
color = 0;
glyphname = idotless;
lastChange = "2022-11-08 19:36:46 +0000";
layers = (
{
layerId = "4E782664-D0D5-4FED-AFC2-B9212141A2ED";
paths = (
{
closed = 1;
nodes = (
"635 1147 LINE",
"522 1120 OFFCURVE",
"401 1106 OFFCURVE",
"262 1106 CURVE",
"262 1010 LINE",
"301 1009 OFFCURVE",
"330 1007 OFFCURVE",
"347 1002 CURVE SMOOTH",
"364 997 OFFCURVE",
"377 990 OFFCURVE",
"385 981 CURVE SMOOTH",
"404 961 OFFCURVE",
"410 930 OFFCURVE",
"410 889 CURVE SMOOTH",
"410 242 LINE SMOOTH",
"410 212 OFFCURVE",
"407 188 OFFCURVE",
"402 171 CURVE SMOOTH",
"391 135 OFFCURVE",
"379 121 OFFCURVE",
"335 108 CURVE SMOOTH",
"312 101 OFFCURVE",
"283 97 OFFCURVE",
"246 96 CURVE",
"246 0 LINE",
"788 0 LINE",
"788 96 LINE",
"729 99 OFFCURVE",
"689 111 OFFCURVE",
"670 127 CURVE SMOOTH",
"647 145 OFFCURVE",
"635 183 OFFCURVE",
"635 240 CURVE SMOOTH"
);
}
);
vertWidth = 2048;
width = 1024;
}
);
unicode = 0131;
},
{
color = 3;
glyphname = ibreve;
lastChange = "2022-11-08 19:36:57 +0000";
layers = (
{
layerId = "4E782664-D0D5-4FED-AFC2-B9212141A2ED";
paths = (
{
closed = 1;
nodes = (
"185 1556 LINE",
"198 1491 OFFCURVE",
"221 1439 OFFCURVE",
"252 1398 CURVE SMOOTH",
"315 1316 OFFCURVE",
"406 1278 OFFCURVE",
"507 1278 CURVE SMOOTH",
"558 1278 OFFCURVE",
"605 1288 OFFCURVE",
"649 1307 CURVE SMOOTH",
"737 1346 OFFCURVE",
"804 1427 OFFCURVE",
"829 1556 CURVE",
"712 1556 LINE",
"677 1483 OFFCURVE",
"609 1434 OFFCURVE",
"505 1434 CURVE SMOOTH",
"401 1434 OFFCURVE",
"337 1483 OFFCURVE",
"302 1556 CURVE"
);
},
{
closed = 1;
nodes = (
"635 1147 LINE",
"522 1120 OFFCURVE",
"401 1106 OFFCURVE",
"262 1106 CURVE",
"262 1010 LINE",
"301 1009 OFFCURVE",
"330 1007 OFFCURVE",
"347 1002 CURVE SMOOTH",
"364 997 OFFCURVE",
"377 990 OFFCURVE",
"385 981 CURVE SMOOTH",
"404 961 OFFCURVE",
"410 930 OFFCURVE",
"410 889 CURVE SMOOTH",
"410 242 LINE SMOOTH",
"410 212 OFFCURVE",
"407 188 OFFCURVE",
"402 171 CURVE SMOOTH",
"391 135 OFFCURVE",
"379 121 OFFCURVE",
"335 108 CURVE SMOOTH",
"312 101 OFFCURVE",
"283 97 OFFCURVE",
"246 96 CURVE",
"246 0 LINE",
"788 0 LINE",
"788 96 LINE",
"729 99 OFFCURVE",
"689 111 OFFCURVE",
"670 127 CURVE SMOOTH",
"647 145 OFFCURVE",
"635 183 OFFCURVE",
"635 240 CURVE SMOOTH"
);
}
);
vertWidth = 2048;
width = 1024;
}
);
unicode = 012D;
},
{
color = 3;
glyphname = ij;
lastChange = "2022-11-08 19:40:08 +0000";
layers = (
{
background = {
paths = (
{
closed = 1;
nodes = (
"761 1653 OFFCURVE",
"734 1646 OFFCURVE",
"709 1631 CURVE SMOOTH",
"659 1601 OFFCURVE",
"625 1547 OFFCURVE",
"625 1487 CURVE SMOOTH",
"625 1457 OFFCURVE",
"633 1430 OFFCURVE",
"648 1405 CURVE SMOOTH",
"679 1355 OFFCURVE",
"731 1321 OFFCURVE",
"791 1321 CURVE SMOOTH",
"821 1321 OFFCURVE",
"849 1329 OFFCURVE",
"874 1344 CURVE SMOOTH",
"925 1375 OFFCURVE",
"957 1427 OFFCURVE",
"957 1487 CURVE SMOOTH",
"957 1517 OFFCURVE",
"950 1545 OFFCURVE",
"935 1570 CURVE SMOOTH",
"905 1621 OFFCURVE",
"851 1653 OFFCURVE",
"791 1653 CURVE SMOOTH"
);
},
{
closed = 1;
nodes = (
"922 1147 LINE",
"810 1120 OFFCURVE",
"690 1106 OFFCURVE",
"535 1106 CURVE",
"535 1010 LINE",
"566 1009 OFFCURVE",
"591 1008 OFFCURVE",
"609 1006 CURVE SMOOTH",
"645 1001 OFFCURVE",
"662 993 OFFCURVE",
"673 981 CURVE SMOOTH",
"692 961 OFFCURVE",
"697 930 OFFCURVE",
"697 881 CURVE SMOOTH",
"697 174 LINE SMOOTH",
"697 -41 OFFCURVE",
"667 -129 OFFCURVE",
"518 -129 CURVE SMOOTH",
"461 -129 OFFCURVE",
"413 -119 OFFCURVE",
"378 -100 CURVE",
"421 -77 OFFCURVE",
"441 -45 OFFCURVE",
"441 8 CURVE SMOOTH",
"441 84 OFFCURVE",
"386 133 OFFCURVE",
"315 133 CURVE SMOOTH",
"292 133 OFFCURVE",
"271 127 OFFCURVE",
"254 115 CURVE SMOOTH",
"218 90 OFFCURVE",
"197 48 OFFCURVE",
"198 4 CURVE SMOOTH",
"201 -77 OFFCURVE",
"243 -138 OFFCURVE",
"304 -180 CURVE SMOOTH",
"372 -228 OFFCURVE",
"463 -244 OFFCURVE",
"539 -244 CURVE SMOOTH",
"803 -244 OFFCURVE",
"922 -89 OFFCURVE",
"922 178 CURVE SMOOTH"
);
},
{
closed = 1;
nodes = (
"268 1653 OFFCURVE",
"241 1646 OFFCURVE",
"216 1631 CURVE SMOOTH",
"166 1601 OFFCURVE",
"132 1547 OFFCURVE",
"132 1487 CURVE SMOOTH",
"132 1457 OFFCURVE",
"140 1430 OFFCURVE",
"155 1405 CURVE SMOOTH",
"186 1355 OFFCURVE",
"238 1321 OFFCURVE",
"298 1321 CURVE SMOOTH",
"328 1321 OFFCURVE",
"356 1329 OFFCURVE",
"381 1344 CURVE SMOOTH",
"432 1375 OFFCURVE",
"464 1427 OFFCURVE",
"464 1487 CURVE SMOOTH",
"464 1517 OFFCURVE",
"457 1545 OFFCURVE",
"442 1570 CURVE SMOOTH",
"412 1621 OFFCURVE",
"358 1653 OFFCURVE",
"298 1653 CURVE SMOOTH"
);
},
{
closed = 1;
nodes = (
"425 1147 LINE",
"312 1120 OFFCURVE",
"191 1106 OFFCURVE",
"52 1106 CURVE",
"52 1010 LINE",
"91 1009 OFFCURVE",
"120 1007 OFFCURVE",
"137 1002 CURVE SMOOTH",
"154 997 OFFCURVE",
"167 990 OFFCURVE",
"175 981 CURVE SMOOTH",
"194 961 OFFCURVE",
"200 930 OFFCURVE",
"200 889 CURVE SMOOTH",
"200 442 LINE SMOOTH",
"200 412 OFFCURVE",
"197 388 OFFCURVE",
"192 371 CURVE SMOOTH",
"181 335 OFFCURVE",
"169 321 OFFCURVE",
"125 308 CURVE SMOOTH",
"102 301 OFFCURVE",
"73 297 OFFCURVE",
"36 296 CURVE",
"36 200 LINE",
"578 200 LINE",
"578 296 LINE",
"519 299 OFFCURVE",
"479 311 OFFCURVE",
"460 327 CURVE SMOOTH",
"437 345 OFFCURVE",
"425 383 OFFCURVE",
"425 440 CURVE SMOOTH"
);
}
);
};
layerId = "4E782664-D0D5-4FED-AFC2-B9212141A2ED";
paths = (
{
closed = 1;
nodes = (
"761 1653 OFFCURVE",
"734 1646 OFFCURVE",
"709 1631 CURVE SMOOTH",
"659 1601 OFFCURVE",
"625 1547 OFFCURVE",
"625 1487 CURVE SMOOTH",
"625 1457 OFFCURVE",
"633 1430 OFFCURVE",
"648 1405 CURVE SMOOTH",
"679 1355 OFFCURVE",
"731 1321 OFFCURVE",
"791 1321 CURVE SMOOTH",
"821 1321 OFFCURVE",
"849 1329 OFFCURVE",
"874 1344 CURVE SMOOTH",
"925 1375 OFFCURVE",
"957 1427 OFFCURVE",
"957 1487 CURVE SMOOTH",
"957 1517 OFFCURVE",
"950 1545 OFFCURVE",
"935 1570 CURVE SMOOTH",
"905 1621 OFFCURVE",
"851 1653 OFFCURVE",
"791 1653 CURVE SMOOTH"
);
},
{
closed = 1;
nodes = (
"922 1147 LINE",
"810 1120 OFFCURVE",
"690 1106 OFFCURVE",
"535 1106 CURVE",
"535 1010 LINE",
"566 1009 OFFCURVE",
"591 1008 OFFCURVE",
"609 1006 CURVE SMOOTH",
"645 1001 OFFCURVE",
"662 993 OFFCURVE",
"673 981 CURVE SMOOTH",
"692 961 OFFCURVE",
"697 930 OFFCURVE",
"697 881 CURVE SMOOTH",
"697 174 LINE SMOOTH",
"697 -16 OFFCURVE",
"616 -129 OFFCURVE",
"478 -129 CURVE SMOOTH",
"437 -129 OFFCURVE",
"403 -119 OFFCURVE",
"378 -100 CURVE",
"421 -77 OFFCURVE",
"441 -45 OFFCURVE",
"441 8 CURVE SMOOTH",
"441 84 OFFCURVE",
"386 133 OFFCURVE",
"315 133 CURVE SMOOTH",
"292 133 OFFCURVE",
"271 127 OFFCURVE",
"254 115 CURVE SMOOTH",
"218 90 OFFCURVE",
"197 48 OFFCURVE",
"198 4 CURVE SMOOTH",
"201 -77 OFFCURVE",
"243 -138 OFFCURVE",
"304 -180 CURVE SMOOTH",
"366 -224 OFFCURVE",
"443 -244 OFFCURVE",
"509 -244 CURVE SMOOTH",
"769 -244 OFFCURVE",
"922 -87 OFFCURVE",
"922 178 CURVE SMOOTH"
);
},
{
closed = 1;
nodes = (
"268 1653 OFFCURVE",
"241 1646 OFFCURVE",
"216 1631 CURVE SMOOTH",
"166 1601 OFFCURVE",
"132 1547 OFFCURVE",
"132 1487 CURVE SMOOTH",
"132 1457 OFFCURVE",
"140 1430 OFFCURVE",
"155 1405 CURVE SMOOTH",
"186 1355 OFFCURVE",
"238 1321 OFFCURVE",
"298 1321 CURVE SMOOTH",
"328 1321 OFFCURVE",
"356 1329 OFFCURVE",
"381 1344 CURVE SMOOTH",
"432 1375 OFFCURVE",
"464 1427 OFFCURVE",
"464 1487 CURVE SMOOTH",
"464 1517 OFFCURVE",
"457 1545 OFFCURVE",
"442 1570 CURVE SMOOTH",
"412 1621 OFFCURVE",
"358 1653 OFFCURVE",
"298 1653 CURVE SMOOTH"
);
},
{
closed = 1;
nodes = (
"425 1147 LINE",
"312 1120 OFFCURVE",
"191 1106 OFFCURVE",
"52 1106 CURVE",
"52 1010 LINE",
"91 1009 OFFCURVE",
"120 1007 OFFCURVE",
"137 1002 CURVE SMOOTH",
"154 997 OFFCURVE",
"167 990 OFFCURVE",
"175 981 CURVE SMOOTH",
"194 961 OFFCURVE",
"200 930 OFFCURVE",
"200 889 CURVE SMOOTH",
"200 442 LINE SMOOTH",
"200 412 OFFCURVE",
"197 388 OFFCURVE",
"192 371 CURVE SMOOTH",
"181 335 OFFCURVE",
"169 321 OFFCURVE",
"125 308 CURVE SMOOTH",
"102 301 OFFCURVE",
"73 297 OFFCURVE",
"36 296 CURVE",
"36 200 LINE",
"578 200 LINE",
"578 296 LINE",
"519 299 OFFCURVE",
"479 311 OFFCURVE",
"460 327 CURVE SMOOTH",
"437 345 OFFCURVE",
"425 383 OFFCURVE",
"425 440 CURVE SMOOTH"
);
}
);
vertWidth = 2048;
width = 1024;
}
);
unicode = 0133;
},
{
color = 3;
glyphname = iogonek;
lastChange = "2022-11-08 19:40:24 +0000";
layers = (
{
background = {
paths = (
{
closed = 1;
nodes = (
"478 1653 OFFCURVE",
"451 1646 OFFCURVE",
"426 1631 CURVE SMOOTH",
"376 1601 OFFCURVE",
"342 1547 OFFCURVE",
"342 1487 CURVE SMOOTH",
"342 1457 OFFCURVE",
"350 1430 OFFCURVE",
"365 1405 CURVE SMOOTH",
"396 1355 OFFCURVE",
"448 1321 OFFCURVE",
"508 1321 CURVE SMOOTH",
"538 1321 OFFCURVE",
"566 1329 OFFCURVE",
"591 1344 CURVE SMOOTH",
"642 1375 OFFCURVE",
"674 1427 OFFCURVE",
"674 1487 CURVE SMOOTH",
"674 1517 OFFCURVE",
"667 1545 OFFCURVE",
"652 1570 CURVE SMOOTH",
"622 1621 OFFCURVE",
"568 1653 OFFCURVE",
"508 1653 CURVE SMOOTH"
);
},
{
closed = 1;
nodes = (
"635 1147 LINE",
"522 1120 OFFCURVE",
"401 1106 OFFCURVE",
"262 1106 CURVE",
"262 1010 LINE",
"301 1009 OFFCURVE",
"330 1007 OFFCURVE",
"347 1002 CURVE SMOOTH",
"364 997 OFFCURVE",
"377 990 OFFCURVE",
"385 981 CURVE SMOOTH",
"404 961 OFFCURVE",
"410 930 OFFCURVE",
"410 889 CURVE SMOOTH",
"410 322 LINE SMOOTH",
"410 292 OFFCURVE",
"407 268 OFFCURVE",
"402 251 CURVE SMOOTH",
"391 215 OFFCURVE",
"379 201 OFFCURVE",
"335 188 CURVE SMOOTH",
"312 181 OFFCURVE",
"283 177 OFFCURVE",
"246 176 CURVE",
"246 80 LINE",
"788 80 LINE",
"788 176 LINE",
"729 179 OFFCURVE",
"689 191 OFFCURVE",
"670 207 CURVE SMOOTH",
"647 225 OFFCURVE",
"635 263 OFFCURVE",
"635 320 CURVE SMOOTH"
);
},
{
closed = 1;
nodes = (
"460 87 OFFCURVE",
"431 68 OFFCURVE",
"404 44 CURVE SMOOTH",
"356 3 OFFCURVE",
"320 -49 OFFCURVE",
"320 -113 CURVE SMOOTH",
"320 -146 OFFCURVE",
"329 -171 OFFCURVE",
"346 -190 CURVE SMOOTH",
"381 -227 OFFCURVE",
"440 -242 OFFCURVE",
"501 -242 CURVE SMOOTH",
"601 -242 OFFCURVE",
"669 -209 OFFCURVE",
"736 -133 CURVE",
"703 -78 LINE",
"658 -123 OFFCURVE",
"603 -145 OFFCURVE",
"568 -145 CURVE SMOOTH",
"525 -145 OFFCURVE",
"497 -127 OFFCURVE",
"497 -82 CURVE SMOOTH",
"497 -17 OFFCURVE",
"553 44 OFFCURVE",
"606 88 CURVE",
"487 101 LINE"
);
}
);
};
layerId = "4E782664-D0D5-4FED-AFC2-B9212141A2ED";
paths = (
{
closed = 1;
nodes = (
"601 -242 OFFCURVE",
"669 -209 OFFCURVE",
"736 -133 CURVE",
"703 -78 LINE",
"658 -123 OFFCURVE",
"603 -145 OFFCURVE",
"568 -145 CURVE SMOOTH",
"525 -145 OFFCURVE",
"497 -127 OFFCURVE",
"497 -82 CURVE SMOOTH",
"497 -21 OFFCURVE",
"547 37 OFFCURVE",
"597 80 CURVE",
"788 80 LINE",
"788 176 LINE",
"729 179 OFFCURVE",
"689 191 OFFCURVE",
"670 207 CURVE SMOOTH",
"647 225 OFFCURVE",
"635 263 OFFCURVE",
"635 320 CURVE SMOOTH",
"635 1147 LINE",
"522 1120 OFFCURVE",
"401 1106 OFFCURVE",
"262 1106 CURVE",
"262 1010 LINE",
"301 1009 OFFCURVE",
"330 1007 OFFCURVE",
"347 1002 CURVE SMOOTH",
"364 997 OFFCURVE",
"377 990 OFFCURVE",
"385 981 CURVE SMOOTH",
"404 961 OFFCURVE",
"410 930 OFFCURVE",
"410 889 CURVE SMOOTH",
"410 322 LINE SMOOTH",
"410 292 OFFCURVE",
"407 268 OFFCURVE",
"402 251 CURVE SMOOTH",
"391 215 OFFCURVE",
"379 201 OFFCURVE",
"335 188 CURVE SMOOTH",
"312 181 OFFCURVE",
"283 177 OFFCURVE",
"246 176 CURVE",
"246 80 LINE",
"451 80 LINE",
"435 70 OFFCURVE",
"419 58 OFFCURVE",
"404 44 CURVE SMOOTH",
"356 3 OFFCURVE",
"320 -49 OFFCURVE",
"320 -113 CURVE SMOOTH",
"320 -146 OFFCURVE",
"329 -171 OFFCURVE",
"346 -190 CURVE SMOOTH",
"381 -227 OFFCURVE",
"440 -242 OFFCURVE",
"501 -242 CURVE SMOOTH"
);
},
{
closed = 1;
nodes = (
"538 1321 OFFCURVE",
"566 1329 OFFCURVE",
"591 1344 CURVE SMOOTH",
"642 1375 OFFCURVE",
"674 1427 OFFCURVE",
"674 1487 CURVE SMOOTH",
"674 1517 OFFCURVE",
"667 1545 OFFCURVE",
"652 1570 CURVE SMOOTH",
"622 1621 OFFCURVE",
"568 1653 OFFCURVE",
"508 1653 CURVE SMOOTH",
"478 1653 OFFCURVE",
"451 1646 OFFCURVE",
"426 1631 CURVE SMOOTH",
"376 1601 OFFCURVE",
"342 1547 OFFCURVE",
"342 1487 CURVE SMOOTH",
"342 1457 OFFCURVE",
"350 1430 OFFCURVE",
"365 1405 CURVE SMOOTH",
"396 1355 OFFCURVE",
"448 1321 OFFCURVE",
"508 1321 CURVE SMOOTH"
);
}
);
vertWidth = 2048;
width = 1024;
}
);
unicode = 012F;
},
{
color = 3;
glyphname = itilde;
lastChange = "2022-11-08 19:40:43 +0000";
layers = (
{
layerId = "4E782664-D0D5-4FED-AFC2-B9212141A2ED";
paths = (
{
closed = 1;
nodes = (
"203 1298 LINE",
"234 1354 OFFCURVE",
"281 1382 OFFCURVE",
"338 1382 CURVE SMOOTH",
"391 1382 OFFCURVE",
"436 1370 OFFCURVE",
"481 1346 CURVE SMOOTH",
"544 1313 OFFCURVE",
"592 1298 OFFCURVE",
"659 1298 CURVE SMOOTH",
"735 1298 OFFCURVE",
"819 1361 OFFCURVE",
"872 1454 CURVE",
"817 1556 LINE",
"786 1501 OFFCURVE",
"741 1473 OFFCURVE",
"682 1473 CURVE SMOOTH",
"631 1473 OFFCURVE",
"586 1483 OFFCURVE",
"549 1503 CURVE SMOOTH",
"477 1544 OFFCURVE",
"431 1556 OFFCURVE",
"360 1556 CURVE SMOOTH",
"285 1556 OFFCURVE",
"202 1496 OFFCURVE",
"147 1401 CURVE"
);
},
{
closed = 1;
nodes = (
"635 1147 LINE",
"522 1120 OFFCURVE",
"401 1106 OFFCURVE",
"262 1106 CURVE",
"262 1010 LINE",
"301 1009 OFFCURVE",
"330 1007 OFFCURVE",
"347 1002 CURVE SMOOTH",
"364 997 OFFCURVE",
"377 990 OFFCURVE",
"385 981 CURVE SMOOTH",
"404 961 OFFCURVE",
"410 930 OFFCURVE",
"410 889 CURVE SMOOTH",
"410 242 LINE SMOOTH",
"410 212 OFFCURVE",
"407 188 OFFCURVE",
"402 171 CURVE SMOOTH",
"391 135 OFFCURVE",
"379 121 OFFCURVE",
"335 108 CURVE SMOOTH",
"312 101 OFFCURVE",
"283 97 OFFCURVE",
"246 96 CURVE",
"246 0 LINE",
"788 0 LINE",
"788 96 LINE",
"729 99 OFFCURVE",
"689 111 OFFCURVE",
"670 127 CURVE SMOOTH",
"647 145 OFFCURVE",
"635 183 OFFCURVE",
"635 240 CURVE SMOOTH"
);
}
);
vertWidth = 2048;
width = 1024;
}
);
unicode = 0129;
},
{
color = 3;
glyphname = kcommaaccent;
lastChange = "2022-11-08 22:19:37 +0000";
layers = (
{
background = {
paths = (
{
closed = 1;
nodes = (
"755 875 LINE SMOOTH",
"778 899 OFFCURVE",
"838 961 OFFCURVE",
"858 975 CURVE SMOOTH",
"883 995 OFFCURVE",
"907 1008 OFFCURVE",
"944 1012 CURVE",
"944 1106 LINE",
"565 1106 LINE",
"565 1010 LINE",
"592 1005 OFFCURVE",
"614 1000 OFFCURVE",
"633 989 CURVE SMOOTH",
"641 985 OFFCURVE",
"655 973 OFFCURVE",
"655 961 CURVE SMOOTH",
"655 936 OFFCURVE",
"645 907 OFFCURVE",
"627 889 CURVE SMOOTH",
"389 651 LINE",
"389 1597 LINE",
"276 1572 OFFCURVE",
"161 1556 OFFCURVE",
"78 1556 CURVE",
"78 1460 LINE",
"102 1460 OFFCURVE",
"127 1454 OFFCURVE",
"147 1434 CURVE SMOOTH",
"168 1413 OFFCURVE",
"168 1386 OFFCURVE",
"168 1329 CURVE SMOOTH",
"168 273 LINE SMOOTH",
"168 236 OFFCURVE",
"164 208 OFFCURVE",
"147 193 CURVE SMOOTH",
"123 170 OFFCURVE",
"106 166 OFFCURVE",
"78 166 CURVE",
"78 70 LINE",
"465 70 LINE",
"465 166 LINE",
"442 173 OFFCURVE",
"430 181 OFFCURVE",
"418 193 CURVE SMOOTH",
"399 211 OFFCURVE",
"389 242 OFFCURVE",
"389 285 CURVE SMOOTH",
"389 490 LINE"
);
},
{
closed = 1;
nodes = (
"608 265 LINE SMOOTH",
"617 246 OFFCURVE",
"623 228 OFFCURVE",
"623 211 CURVE SMOOTH",
"623 198 OFFCURVE",
"616 188 OFFCURVE",
"608 181 CURVE SMOOTH",
"600 174 OFFCURVE",
"592 170 OFFCURVE",
"575 166 CURVE",
"575 70 LINE",
"971 70 LINE",
"971 164 LINE",
"950 171 OFFCURVE",
"930 179 OFFCURVE",
"909 199 CURVE",
"896 214 OFFCURVE",
"878 248 OFFCURVE",
"860 283 CURVE SMOOTH",
"618 756 LINE",
"454 586 LINE"
);
},
{
closed = 1;
nodes = (
"456 -211 LINE",
"496 -194 OFFCURVE",
"518 -178 OFFCURVE",
"520 -160 CURVE",
"408 -160 OFFCURVE",
"330 -136 OFFCURVE",
"330 -76 CURVE SMOOTH",
"330 -13 OFFCURVE",
"400 21 OFFCURVE",
"499 21 CURVE SMOOTH",
"603 21 OFFCURVE",
"679 -16 OFFCURVE",
"679 -97 CURVE SMOOTH",
"679 -164 OFFCURVE",
"630 -205 OFFCURVE",
"557 -246 CURVE"
);
}
);
};
layerId = "4E782664-D0D5-4FED-AFC2-B9212141A2ED";
paths = (
{
closed = 1;
nodes = (
"896 214 OFFCURVE",
"878 248 OFFCURVE",
"860 283 CURVE SMOOTH",
"626 740 LINE",
"755 875 LINE SMOOTH",
"778 899 OFFCURVE",
"838 961 OFFCURVE",
"858 975 CURVE SMOOTH",
"883 995 OFFCURVE",
"907 1008 OFFCURVE",
"944 1012 CURVE",
"944 1106 LINE",
"565 1106 LINE",
"565 1010 LINE",
"592 1005 OFFCURVE",
"614 1000 OFFCURVE",
"633 989 CURVE SMOOTH",
"641 985 OFFCURVE",
"655 973 OFFCURVE",
"655 961 CURVE SMOOTH",
"655 936 OFFCURVE",
"645 907 OFFCURVE",
"627 889 CURVE SMOOTH",
"389 651 LINE",
"389 1597 LINE",
"276 1572 OFFCURVE",
"161 1556 OFFCURVE",
"78 1556 CURVE",
"78 1460 LINE",
"102 1460 OFFCURVE",
"127 1454 OFFCURVE",
"147 1434 CURVE SMOOTH",
"168 1413 OFFCURVE",
"168 1386 OFFCURVE",
"168 1329 CURVE SMOOTH",
"168 273 LINE SMOOTH",
"168 236 OFFCURVE",
"164 208 OFFCURVE",
"147 193 CURVE SMOOTH",
"123 170 OFFCURVE",
"106 166 OFFCURVE",
"78 166 CURVE",
"78 70 LINE",
"465 70 LINE",
"465 166 LINE",
"442 173 OFFCURVE",
"430 181 OFFCURVE",
"418 193 CURVE SMOOTH",
"399 211 OFFCURVE",
"389 242 OFFCURVE",
"389 285 CURVE SMOOTH",
"389 490 LINE",
"463 568 LINE",
"608 265 LINE SMOOTH",
"617 246 OFFCURVE",
"623 228 OFFCURVE",
"623 211 CURVE SMOOTH",
"623 198 OFFCURVE",
"616 188 OFFCURVE",
"608 181 CURVE SMOOTH",
"600 174 OFFCURVE",
"592 170 OFFCURVE",
"575 166 CURVE",
"575 70 LINE",
"971 70 LINE",
"971 164 LINE",
"950 171 OFFCURVE",
"930 179 OFFCURVE",
"909 199 CURVE"
);
},
{
closed = 1;
nodes = (
"400 21 OFFCURVE",
"330 -13 OFFCURVE",
"330 -76 CURVE SMOOTH",
"330 -136 OFFCURVE",
"408 -160 OFFCURVE",
"520 -160 CURVE",
"518 -178 OFFCURVE",
"496 -194 OFFCURVE",
"456 -211 CURVE",
"557 -246 LINE",
"630 -205 OFFCURVE",
"679 -164 OFFCURVE",
"679 -97 CURVE SMOOTH",
"679 -16 OFFCURVE",
"603 21 OFFCURVE",
"499 21 CURVE SMOOTH"
);
}
);
vertWidth = 2048;
width = 1024;
}
);
unicode = 0137;
},
{
color = 3;
glyphname = kgreenlandic;
lastChange = "2022-11-08 19:46:30 +0000";
layers = (
{
background = {
paths = (
{
closed = 1;
nodes = (
"123 0 LINE",
"123 74 LINE",
"168 82 OFFCURVE",
"198 95 OFFCURVE",
"213 113 CURVE SMOOTH",
"227 130 OFFCURVE",
"234 158 OFFCURVE",
"234 197 CURVE SMOOTH",
"234 927 LINE SMOOTH",
"234 964 OFFCURVE",
"226 990 OFFCURVE",
"211 1003 CURVE SMOOTH",
"194 1018 OFFCURVE",
"165 1027 OFFCURVE",
"123 1032 CURVE",
"123 1106 LINE",
"209 1106 OFFCURVE",
"289 1120 OFFCURVE",
"363 1147 CURVE",
"363 571 LINE",
"604 905 LINE SMOOTH",
"624 933 OFFCURVE",
"635 958 OFFCURVE",
"635 980 CURVE SMOOTH",
"635 999 OFFCURVE",
"626 1012 OFFCURVE",
"608 1018 CURVE SMOOTH",
"595 1023 OFFCURVE",
"576 1027 OFFCURVE",
"551 1032 CURVE",
"551 1106 LINE",
"883 1106 LINE",
"883 1032 LINE",
"829 1022 OFFCURVE",
"772 975 OFFCURVE",
"713 891 CURVE SMOOTH",
"551 662 LINE",
"785 203 LINE SMOOTH",
"821 132 OFFCURVE",
"870 89 OFFCURVE",
"934 74 CURVE",
"934 0 LINE",
"584 0 LINE",
"584 74 LINE",
"633 90 OFFCURVE",
"658 108 OFFCURVE",
"658 129 CURVE SMOOTH",
"658 142 OFFCURVE",
"652 161 OFFCURVE",
"641 184 CURVE SMOOTH",
"463 563 LINE",
"363 420 LINE",
"363 197 LINE SMOOTH",
"363 154 OFFCURVE",
"368 125 OFFCURVE",
"379 109 CURVE SMOOTH",
"390 92 OFFCURVE",
"414 80 OFFCURVE",
"449 74 CURVE",
"449 0 LINE"
);
}
);
};
layerId = "4E782664-D0D5-4FED-AFC2-B9212141A2ED";
paths = (
{
closed = 1;
nodes = (
"389 1147 LINE",
"276 1122 OFFCURVE",
"161 1106 OFFCURVE",
"78 1106 CURVE",
"78 1010 LINE",
"102 1010 OFFCURVE",
"127 1004 OFFCURVE",
"147 984 CURVE SMOOTH",
"168 963 OFFCURVE",
"168 936 OFFCURVE",
"168 879 CURVE SMOOTH",
"168 203 LINE SMOOTH",
"168 166 OFFCURVE",
"164 138 OFFCURVE",
"147 123 CURVE SMOOTH",
"123 100 OFFCURVE",
"106 96 OFFCURVE",
"78 96 CURVE",
"78 0 LINE",
"465 0 LINE",
"465 96 LINE",
"442 103 OFFCURVE",
"430 111 OFFCURVE",
"418 123 CURVE SMOOTH",
"399 141 OFFCURVE",
"389 172 OFFCURVE",
"389 215 CURVE SMOOTH",
"389 455 LINE",
"461 537 LINE",
"608 195 LINE SMOOTH",
"616 176 OFFCURVE",
"623 158 OFFCURVE",
"623 141 CURVE SMOOTH",
"623 128 OFFCURVE",
"616 118 OFFCURVE",
"608 111 CURVE SMOOTH",
"600 104 OFFCURVE",
"592 100 OFFCURVE",
"575 96 CURVE",
"575 0 LINE",
"971 0 LINE",
"971 94 LINE",
"950 101 OFFCURVE",
"930 109 OFFCURVE",
"909 129 CURVE",
"896 144 OFFCURVE",
"877 178 OFFCURVE",
"860 213 CURVE SMOOTH",
"625 707 LINE",
"758 864 LINE SMOOTH",
"774 883 OFFCURVE",
"792 903 OFFCURVE",
"810 925 CURVE SMOOTH",
"827 947 OFFCURVE",
"843 964 OFFCURVE",
"858 975 CURVE SMOOTH",
"883 995 OFFCURVE",
"907 1008 OFFCURVE",
"944 1012 CURVE",
"944 1106 LINE",
"565 1106 LINE",
"565 1010 LINE",
"592 1005 OFFCURVE",
"614 1000 OFFCURVE",
"633 989 CURVE SMOOTH",
"641 985 OFFCURVE",
"655 973 OFFCURVE",
"655 961 CURVE SMOOTH",
"655 936 OFFCURVE",
"643 908 OFFCURVE",
"627 889 CURVE SMOOTH",
"389 616 LINE"
);
}
);
vertWidth = 2048;
width = 1024;
}
);
unicode = 0138;
},
{
color = 3;
glyphname = lcommaaccent;
lastChange = "2022-11-08 19:46:49 +0000";
layers = (
{
background = {
paths = (
{
closed = 1;
nodes = (
"154 1556 LINE",
"531 1556 LINE",
"531 1482 LINE",
"480 1477 OFFCURVE",
"445 1466 OFFCURVE",
"428 1447 CURVE SMOOTH",
"413 1431 OFFCURVE",
"406 1401 OFFCURVE",
"406 1357 CURVE SMOOTH",
"406 285 LINE SMOOTH",
"406 241 OFFCURVE",
"413 211 OFFCURVE",
"428 195 CURVE SMOOTH",
"442 180 OFFCURVE",
"468 172 OFFCURVE",
"506 172 CURVE SMOOTH",
"578 172 LINE SMOOTH",
"699 172 OFFCURVE",
"774 296 OFFCURVE",
"803 545 CURVE",
"871 545 LINE",
"848 70 LINE",
"154 70 LINE",
"154 144 LINE",
"199 149 OFFCURVE",
"231 161 OFFCURVE",
"248 179 CURVE SMOOTH",
"263 194 OFFCURVE",
"271 224 OFFCURVE",
"271 269 CURVE SMOOTH",
"271 1357 LINE SMOOTH",
"271 1406 OFFCURVE",
"263 1438 OFFCURVE",
"246 1454 CURVE SMOOTH",
"231 1469 OFFCURVE",
"200 1478 OFFCURVE",
"154 1482 CURVE"
);
},
{
closed = 1;
nodes = (
"456 -191 LINE",
"490 -171 OFFCURVE",
"508 -151 OFFCURVE",
"510 -130 CURVE",
"439 -130 OFFCURVE",
"390 -109 OFFCURVE",
"390 -56 CURVE SMOOTH",
"390 -6 OFFCURVE",
"435 21 OFFCURVE",
"499 21 CURVE SMOOTH",
"568 21 OFFCURVE",
"619 -10 OFFCURVE",
"619 -77 CURVE SMOOTH",
"619 -153 OFFCURVE",
"570 -199 OFFCURVE",
"497 -246 CURVE"
);
}
);
};
layerId = "4E782664-D0D5-4FED-AFC2-B9212141A2ED";
paths = (
{
closed = 1;
nodes = (
"456 -211 LINE",
"496 -194 OFFCURVE",
"518 -178 OFFCURVE",
"520 -160 CURVE",
"408 -160 OFFCURVE",
"330 -136 OFFCURVE",
"330 -76 CURVE SMOOTH",
"330 -13 OFFCURVE",
"400 21 OFFCURVE",
"499 21 CURVE SMOOTH",
"603 21 OFFCURVE",
"679 -16 OFFCURVE",
"679 -97 CURVE SMOOTH",
"679 -164 OFFCURVE",
"630 -205 OFFCURVE",
"557 -246 CURVE"
);
},
{
closed = 1;
nodes = (
"635 1598 LINE",
"522 1571 OFFCURVE",
"401 1557 OFFCURVE",
"262 1557 CURVE",
"262 1461 LINE",
"301 1460 OFFCURVE",
"330 1458 OFFCURVE",
"347 1453 CURVE SMOOTH",
"364 1448 OFFCURVE",
"377 1441 OFFCURVE",
"385 1432 CURVE SMOOTH",
"402 1413 OFFCURVE",
"410 1380 OFFCURVE",
"410 1332 CURVE SMOOTH",
"410 316 LINE SMOOTH",
"410 284 OFFCURVE",
"407 259 OFFCURVE",
"402 241 CURVE SMOOTH",
"391 205 OFFCURVE",
"379 191 OFFCURVE",
"335 178 CURVE SMOOTH",
"312 171 OFFCURVE",
"283 167 OFFCURVE",
"246 166 CURVE",
"246 70 LINE",
"788 70 LINE",
"788 166 LINE",
"729 169 OFFCURVE",
"689 181 OFFCURVE",
"670 197 CURVE SMOOTH",
"647 216 OFFCURVE",
"635 252 OFFCURVE",
"635 320 CURVE SMOOTH"
);
}
);
vertWidth = 2048;
width = 1024;
}
);
unicode = 013C;
},
{
color = 3;
glyphname = ldot;
lastChange = "2022-11-08 19:47:12 +0000";
layers = (
{
background = {
paths = (
{
closed = 1;
nodes = (
"154 1556 LINE",
"531 1556 LINE",
"531 1482 LINE",
"480 1477 OFFCURVE",
"445 1466 OFFCURVE",
"428 1447 CURVE SMOOTH",
"413 1431 OFFCURVE",
"406 1401 OFFCURVE",
"406 1357 CURVE SMOOTH",
"406 215 LINE SMOOTH",
"406 171 OFFCURVE",
"413 141 OFFCURVE",
"428 125 CURVE SMOOTH",
"442 110 OFFCURVE",
"468 102 OFFCURVE",
"506 102 CURVE SMOOTH",
"578 102 LINE SMOOTH",
"699 102 OFFCURVE",
"774 226 OFFCURVE",
"803 475 CURVE",
"871 475 LINE",
"848 0 LINE",
"154 0 LINE",
"154 74 LINE",
"199 79 OFFCURVE",
"231 91 OFFCURVE",
"248 109 CURVE SMOOTH",
"263 124 OFFCURVE",
"271 154 OFFCURVE",
"271 199 CURVE SMOOTH",
"271 1357 LINE SMOOTH",
"271 1406 OFFCURVE",
"263 1438 OFFCURVE",
"246 1454 CURVE SMOOTH",
"231 1469 OFFCURVE",
"200 1478 OFFCURVE",
"154 1482 CURVE"
);
},
{
closed = 1;
nodes = (
"734 1081 OFFCURVE",
"751 1077 OFFCURVE",
"767 1070 CURVE SMOOTH",
"812 1049 OFFCURVE",
"835 1013 OFFCURVE",
"835 962 CURVE SMOOTH",
"835 929 OFFCURVE",
"823 901 OFFCURVE",
"800 878 CURVE SMOOTH",
"777 855 OFFCURVE",
"748 843 OFFCURVE",
"715 843 CURVE SMOOTH",
"695 843 OFFCURVE",
"676 848 OFFCURVE",
"659 858 CURVE SMOOTH",
"618 881 OFFCURVE",
"597 916 OFFCURVE",
"597 963 CURVE SMOOTH",
"597 998 OFFCURVE",
"610 1027 OFFCURVE",
"636 1050 CURVE SMOOTH",
"658 1071 OFFCURVE",
"685 1081 OFFCURVE",
"717 1081 CURVE SMOOTH"
);
}
);
};
layerId = "4E782664-D0D5-4FED-AFC2-B9212141A2ED";
paths = (
{
closed = 1;
nodes = (
"635 1489 LINE",
"522 1462 OFFCURVE",
"401 1448 OFFCURVE",
"262 1448 CURVE",
"262 1352 LINE",
"301 1351 OFFCURVE",
"330 1349 OFFCURVE",
"347 1344 CURVE SMOOTH",
"364 1339 OFFCURVE",
"377 1332 OFFCURVE",
"385 1323 CURVE SMOOTH",
"402 1304 OFFCURVE",
"410 1271 OFFCURVE",
"410 1223 CURVE SMOOTH",
"410 246 LINE SMOOTH",
"410 214 OFFCURVE",
"407 189 OFFCURVE",
"402 171 CURVE SMOOTH",
"391 135 OFFCURVE",
"379 121 OFFCURVE",
"335 108 CURVE SMOOTH",
"312 101 OFFCURVE",
"283 97 OFFCURVE",
"246 96 CURVE",
"246 0 LINE",
"788 0 LINE",
"788 96 LINE",
"729 99 OFFCURVE",
"689 111 OFFCURVE",
"670 127 CURVE SMOOTH",
"647 146 OFFCURVE",
"635 182 OFFCURVE",
"635 250 CURVE SMOOTH"
);
},
{
closed = 1;
nodes = (
"1055 946 OFFCURVE",
"1079 939 OFFCURVE",
"1102 925 CURVE SMOOTH",
"1148 898 OFFCURVE",
"1171 857 OFFCURVE",
"1171 804 CURVE SMOOTH",
"1171 768 OFFCURVE",
"1159 736 OFFCURVE",
"1134 709 CURVE SMOOTH",
"1106 678 OFFCURVE",
"1071 663 OFFCURVE",
"1028 663 CURVE SMOOTH",
"1005 663 OFFCURVE",
"983 669 OFFCURVE",
"962 680 CURVE SMOOTH",
"913 707 OFFCURVE",
"888 749 OFFCURVE",
"888 805 CURVE SMOOTH",
"888 844 OFFCURVE",
"902 878 OFFCURVE",
"931 906 CURVE SMOOTH",
"958 933 OFFCURVE",
"991 946 OFFCURVE",
"1030 946 CURVE SMOOTH"
);
}
);
vertWidth = 2048;
width = 1024;
}
);
unicode = 0140;
},
{
color = 3;
glyphname = napostrophe;
lastChange = "2022-11-08 19:48:24 +0000";
layers = (
{
layerId = "4E782664-D0D5-4FED-AFC2-B9212141A2ED";
paths = (
{
closed = 1;
nodes = (
"185 1757 OFFCURVE",
"159 1750 OFFCURVE",
"136 1737 CURVE SMOOTH",
"88 1709 OFFCURVE",
"58 1661 OFFCURVE",
"58 1606 CURVE SMOOTH",
"58 1576 OFFCURVE",
"65 1549 OFFCURVE",
"78 1526 CURVE SMOOTH",
"104 1479 OFFCURVE",
"149 1453 OFFCURVE",
"201 1460 CURVE",
"184 1391 OFFCURVE",
"133 1329 OFFCURVE",
"78 1290 CURVE",
"125 1239 LINE",
"170 1263 OFFCURVE",
"211 1294 OFFCURVE",
"248 1332 CURVE SMOOTH",
"323 1408 OFFCURVE",
"371 1502 OFFCURVE",
"371 1593 CURVE SMOOTH",
"371 1625 OFFCURVE",
"364 1653 OFFCURVE",
"350 1678 CURVE SMOOTH",
"321 1727 OFFCURVE",
"271 1757 OFFCURVE",
"214 1757 CURVE SMOOTH"
);
},
{
closed = 1;
nodes = (
"381 1147 LINE",
"268 1120 OFFCURVE",
"153 1106 OFFCURVE",
"66 1106 CURVE",
"66 1010 LINE",
"83 1010 OFFCURVE",
"98 1008 OFFCURVE",
"109 1004 CURVE SMOOTH",
"132 995 OFFCURVE",
"145 983 OFFCURVE",
"154 957 CURVE SMOOTH",
"158 944 OFFCURVE",
"160 924 OFFCURVE",
"160 897 CURVE SMOOTH",
"160 219 LINE SMOOTH",
"160 188 OFFCURVE",
"158 166 OFFCURVE",
"155 153 CURVE SMOOTH",
"152 140 OFFCURVE",
"146 130 OFFCURVE",
"139 123 CURVE SMOOTH",
"122 104 OFFCURVE",
"97 99 OFFCURVE",
"66 96 CURVE",
"66 0 LINE",
"453 0 LINE",
"453 96 LINE",
"442 98 OFFCURVE",
"433 102 OFFCURVE",
"424 107 CURVE SMOOTH",
"407 117 OFFCURVE",
"395 129 OFFCURVE",
"387 154 CURVE SMOOTH",
"383 167 OFFCURVE",
"381 188 OFFCURVE",
"381 217 CURVE SMOOTH",
"381 768 LINE",
"390 808 OFFCURVE",
"404 843 OFFCURVE",
"421 873 CURVE SMOOTH",
"456 932 OFFCURVE",
"500 967 OFFCURVE",
"539 967 CURVE SMOOTH",
"568 967 OFFCURVE",
"592 952 OFFCURVE",
"612 922 CURVE SMOOTH",
"639 881 OFFCURVE",
"647 807 OFFCURVE",
"647 680 CURVE SMOOTH",
"647 217 LINE SMOOTH",
"647 188 OFFCURVE",
"646 168 OFFCURVE",
"643 155 CURVE SMOOTH",
"640 142 OFFCURVE",
"635 131 OFFCURVE",
"627 123 CURVE SMOOTH",
"608 104 OFFCURVE",
"598 100 OFFCURVE",
"582 96 CURVE",
"582 0 LINE",
"965 0 LINE",
"965 96 LINE",
"936 99 OFFCURVE",
"909 106 OFFCURVE",
"893 123 CURVE SMOOTH",
"874 142 OFFCURVE",
"868 158 OFFCURVE",
"868 215 CURVE SMOOTH",
"868 735 LINE SMOOTH",
"868 886 OFFCURVE",
"848 979 OFFCURVE",
"807 1042 CURVE SMOOTH",
"756 1122 OFFCURVE",
"682 1147 OFFCURVE",
"618 1147 CURVE SMOOTH",
"509 1147 OFFCURVE",
"422 1081 OFFCURVE",
"381 973 CURVE"
);
}
);
vertWidth = 2048;
width = 1024;
}
);
unicode = 0149;
},
{
color = 3;
glyphname = ncommaaccent;
lastChange = "2022-11-08 19:48:47 +0000";
layers = (
{
background = {
paths = (
{
closed = 1;
nodes = (
"311 70 LINE",
"311 144 LINE",
"368 152 OFFCURVE",
"404 163 OFFCURVE",
"421 176 CURVE SMOOTH",
"442 193 OFFCURVE",
"452 224 OFFCURVE",
"452 267 CURVE SMOOTH",
"452 1379 LINE SMOOTH",
"452 1416 OFFCURVE",
"444 1441 OFFCURVE",
"427 1454 CURVE SMOOTH",
"409 1469 OFFCURVE",
"375 1478 OFFCURVE",
"325 1483 CURVE",
"325 1557 LINE",
"406 1557 OFFCURVE",
"492 1571 OFFCURVE",
"581 1598 CURVE",
"581 267 LINE SMOOTH",
"581 223 OFFCURVE",
"591 193 OFFCURVE",
"610 176 CURVE SMOOTH",
"629 161 OFFCURVE",
"665 150 OFFCURVE",
"718 144 CURVE",
"718 70 LINE"
);
},
{
closed = 1;
nodes = (
"456 -191 LINE",
"490 -171 OFFCURVE",
"508 -151 OFFCURVE",
"510 -130 CURVE",
"439 -130 OFFCURVE",
"390 -109 OFFCURVE",
"390 -56 CURVE SMOOTH",
"390 -6 OFFCURVE",
"435 21 OFFCURVE",
"499 21 CURVE SMOOTH",
"568 21 OFFCURVE",
"619 -10 OFFCURVE",
"619 -77 CURVE SMOOTH",
"619 -153 OFFCURVE",
"570 -199 OFFCURVE",
"497 -246 CURVE"
);
}
);
};
layerId = "4E782664-D0D5-4FED-AFC2-B9212141A2ED";
paths = (
{
closed = 1;
nodes = (
"486 -211 LINE",
"526 -194 OFFCURVE",
"548 -178 OFFCURVE",
"550 -160 CURVE",
"438 -160 OFFCURVE",
"360 -136 OFFCURVE",
"360 -76 CURVE SMOOTH",
"360 -13 OFFCURVE",
"430 21 OFFCURVE",
"529 21 CURVE SMOOTH",
"633 21 OFFCURVE",
"709 -16 OFFCURVE",
"709 -97 CURVE SMOOTH",
"709 -164 OFFCURVE",
"660 -205 OFFCURVE",
"587 -246 CURVE"
);
},
{
closed = 1;
nodes = (
"381 1147 LINE",
"268 1120 OFFCURVE",
"153 1106 OFFCURVE",
"66 1106 CURVE",
"66 1010 LINE",
"83 1010 OFFCURVE",
"98 1008 OFFCURVE",
"109 1004 CURVE SMOOTH",
"132 995 OFFCURVE",
"145 983 OFFCURVE",
"154 957 CURVE SMOOTH",
"158 944 OFFCURVE",
"160 924 OFFCURVE",
"160 897 CURVE SMOOTH",
"160 289 LINE SMOOTH",
"160 258 OFFCURVE",
"158 236 OFFCURVE",
"155 223 CURVE SMOOTH",
"152 210 OFFCURVE",
"146 200 OFFCURVE",
"139 193 CURVE SMOOTH",
"122 174 OFFCURVE",
"97 169 OFFCURVE",
"66 166 CURVE",
"66 70 LINE",
"453 70 LINE",
"453 166 LINE",
"442 168 OFFCURVE",
"433 172 OFFCURVE",
"424 177 CURVE SMOOTH",
"407 187 OFFCURVE",
"395 199 OFFCURVE",
"387 224 CURVE SMOOTH",
"383 237 OFFCURVE",
"381 258 OFFCURVE",
"381 287 CURVE SMOOTH",
"381 768 LINE",
"390 808 OFFCURVE",
"404 843 OFFCURVE",
"421 873 CURVE SMOOTH",
"456 932 OFFCURVE",
"500 967 OFFCURVE",
"539 967 CURVE SMOOTH",
"568 967 OFFCURVE",
"592 952 OFFCURVE",
"612 922 CURVE SMOOTH",
"639 881 OFFCURVE",
"647 807 OFFCURVE",
"647 680 CURVE SMOOTH",
"647 287 LINE SMOOTH",
"647 258 OFFCURVE",
"646 238 OFFCURVE",
"643 225 CURVE SMOOTH",
"640 212 OFFCURVE",
"635 201 OFFCURVE",
"627 193 CURVE SMOOTH",
"608 174 OFFCURVE",
"598 170 OFFCURVE",
"582 166 CURVE",
"582 70 LINE",
"965 70 LINE",
"965 166 LINE",
"936 169 OFFCURVE",
"909 176 OFFCURVE",
"893 193 CURVE SMOOTH",
"874 212 OFFCURVE",
"868 228 OFFCURVE",
"868 285 CURVE SMOOTH",
"868 735 LINE SMOOTH",
"868 886 OFFCURVE",
"848 979 OFFCURVE",
"807 1042 CURVE SMOOTH",
"756 1122 OFFCURVE",
"682 1147 OFFCURVE",
"618 1147 CURVE SMOOTH",
"509 1147 OFFCURVE",
"422 1081 OFFCURVE",
"381 973 CURVE"
);
}
);
vertWidth = 2048;
width = 1024;
}
);
unicode = 0146;
},
{
color = 3;
glyphname = obreve;
lastChange = "2022-11-08 19:48:58 +0000";
layers = (
{
layerId = "4E782664-D0D5-4FED-AFC2-B9212141A2ED";
paths = (
{
closed = 1;
nodes = (
"190 1556 LINE",
"203 1491 OFFCURVE",
"226 1439 OFFCURVE",
"257 1398 CURVE SMOOTH",
"320 1316 OFFCURVE",
"411 1278 OFFCURVE",
"512 1278 CURVE SMOOTH",
"563 1278 OFFCURVE",
"610 1288 OFFCURVE",
"654 1307 CURVE SMOOTH",
"742 1346 OFFCURVE",
"809 1427 OFFCURVE",
"834 1556 CURVE",
"717 1556 LINE",
"682 1483 OFFCURVE",
"614 1434 OFFCURVE",
"510 1434 CURVE SMOOTH",
"406 1434 OFFCURVE",
"342 1483 OFFCURVE",
"307 1556 CURVE"
);
},
{
closed = 1;
nodes = (
"396 1147 OFFCURVE",
"292 1092 OFFCURVE",
"216 991 CURVE SMOOTH",
"139 890 OFFCURVE",
"94 742 OFFCURVE",
"94 557 CURVE SMOOTH",
"94 365 OFFCURVE",
"139 217 OFFCURVE",
"216 115 CURVE SMOOTH",
"292 13 OFFCURVE",
"396 -41 OFFCURVE",
"512 -41 CURVE SMOOTH",
"628 -41 OFFCURVE",
"732 13 OFFCURVE",
"809 115 CURVE SMOOTH",
"885 217 OFFCURVE",
"930 365 OFFCURVE",
"930 557 CURVE SMOOTH",
"930 742 OFFCURVE",
"885 890 OFFCURVE",
"809 991 CURVE SMOOTH",
"732 1092 OFFCURVE",
"628 1147 OFFCURVE",
"512 1147 CURVE SMOOTH"
);
},
{
closed = 1;
nodes = (
"539 1038 OFFCURVE",
"566 1021 OFFCURVE",
"592 988 CURVE SMOOTH",
"643 920 OFFCURVE",
"680 780 OFFCURVE",
"680 559 CURVE SMOOTH",
"680 334 OFFCURVE",
"643 192 OFFCURVE",
"592 124 CURVE SMOOTH",
"566 89 OFFCURVE",
"539 72 OFFCURVE",
"512 72 CURVE SMOOTH",
"485 72 OFFCURVE",
"458 89 OFFCURVE",
"433 124 CURVE SMOOTH",
"381 192 OFFCURVE",
"344 334 OFFCURVE",
"344 559 CURVE SMOOTH",
"344 780 OFFCURVE",
"381 920 OFFCURVE",
"433 988 CURVE SMOOTH",
"458 1021 OFFCURVE",
"485 1038 OFFCURVE",
"512 1038 CURVE SMOOTH"
);
}
);
vertWidth = 2048;
width = 1024;
}
);
unicode = 014F;
},
{
color = 3;
glyphname = rcommaaccent;
lastChange = "2022-11-08 19:49:22 +0000";
layers = (
{
background = {
paths = (
{
closed = 1;
nodes = (
"311 70 LINE",
"311 144 LINE",
"368 152 OFFCURVE",
"404 163 OFFCURVE",
"421 176 CURVE SMOOTH",
"442 193 OFFCURVE",
"452 224 OFFCURVE",
"452 267 CURVE SMOOTH",
"452 1379 LINE SMOOTH",
"452 1416 OFFCURVE",
"444 1441 OFFCURVE",
"427 1454 CURVE SMOOTH",
"409 1469 OFFCURVE",
"375 1478 OFFCURVE",
"325 1483 CURVE",
"325 1557 LINE",
"406 1557 OFFCURVE",
"492 1571 OFFCURVE",
"581 1598 CURVE",
"581 267 LINE SMOOTH",
"581 223 OFFCURVE",
"591 193 OFFCURVE",
"610 176 CURVE SMOOTH",
"629 161 OFFCURVE",
"665 150 OFFCURVE",
"718 144 CURVE",
"718 70 LINE"
);
},
{
closed = 1;
nodes = (
"456 -191 LINE",
"490 -171 OFFCURVE",
"508 -151 OFFCURVE",
"510 -130 CURVE",
"439 -130 OFFCURVE",
"390 -109 OFFCURVE",
"390 -56 CURVE SMOOTH",
"390 -6 OFFCURVE",
"435 21 OFFCURVE",
"499 21 CURVE SMOOTH",
"568 21 OFFCURVE",
"619 -10 OFFCURVE",
"619 -77 CURVE SMOOTH",
"619 -153 OFFCURVE",
"570 -199 OFFCURVE",
"497 -246 CURVE"
);
}
);
};
layerId = "4E782664-D0D5-4FED-AFC2-B9212141A2ED";
paths = (
{
closed = 1;
nodes = (
"356 -211 LINE",
"396 -194 OFFCURVE",
"418 -178 OFFCURVE",
"420 -160 CURVE",
"308 -160 OFFCURVE",
"230 -136 OFFCURVE",
"230 -76 CURVE SMOOTH",
"230 -13 OFFCURVE",
"300 21 OFFCURVE",
"399 21 CURVE SMOOTH",
"503 21 OFFCURVE",
"579 -16 OFFCURVE",
"579 -97 CURVE SMOOTH",
"579 -164 OFFCURVE",
"530 -205 OFFCURVE",
"457 -246 CURVE"
);
},
{
closed = 1;
nodes = (
"508 1147 LINE",
"412 1120 OFFCURVE",
"293 1106 OFFCURVE",
"190 1106 CURVE",
"190 1010 LINE",
"217 1010 OFFCURVE",
"237 1008 OFFCURVE",
"249 1004 CURVE SMOOTH",
"273 995 OFFCURVE",
"290 981 OFFCURVE",
"295 949 CURVE SMOOTH",
"300 916 OFFCURVE",
"301 875 OFFCURVE",
"301 844 CURVE SMOOTH",
"301 297 LINE SMOOTH",
"301 240 OFFCURVE",
"297 208 OFFCURVE",
"281 193 CURVE SMOOTH",
"258 174 OFFCURVE",
"238 169 OFFCURVE",
"190 166 CURVE",
"190 70 LINE",
"639 70 LINE",
"639 166 LINE",
"596 169 OFFCURVE",
"558 176 OFFCURVE",
"543 193 CURVE SMOOTH",
"526 213 OFFCURVE",
"522 248 OFFCURVE",
"522 297 CURVE SMOOTH",
"522 788 LINE",
"547 844 OFFCURVE",
"586 901 OFFCURVE",
"614 938 CURVE SMOOTH",
"645 979 OFFCURVE",
"676 1017 OFFCURVE",
"709 1026 CURVE",
"699 1001 OFFCURVE",
"698 977 OFFCURVE",
"705 954 CURVE SMOOTH",
"720 906 OFFCURVE",
"762 872 OFFCURVE",
"815 872 CURVE SMOOTH",
"839 872 OFFCURVE",
"860 878 OFFCURVE",
"877 891 CURVE SMOOTH",
"912 916 OFFCURVE",
"930 958 OFFCURVE",
"930 995 CURVE SMOOTH",
"930 1027 OFFCURVE",
"923 1054 OFFCURVE",
"908 1077 CURVE SMOOTH",
"878 1122 OFFCURVE",
"827 1147 OFFCURVE",
"778 1147 CURVE SMOOTH",
"702 1147 OFFCURVE",
"653 1121 OFFCURVE",
"616 1090 CURVE SMOOTH",
"587 1065 OFFCURVE",
"539 1013 OFFCURVE",
"508 950 CURVE"
);
}
);
vertWidth = 2048;
width = 1024;
}
);
unicode = 0157;
},
{
color = 3;
glyphname = longs;
lastChange = "2022-11-08 19:51:14 +0000";
layers = (
{
background = {
paths = (
{
closed = 1;
nodes = (
"379 1258 LINE",
"379 1371 OFFCURVE",
"401 1458 OFFCURVE",
"444 1518 CURVE SMOOTH",
"490 1581 OFFCURVE",
"552 1612 OFFCURVE",
"629 1612 CURVE SMOOTH",
"691 1612 OFFCURVE",
"744 1592 OFFCURVE",
"788 1552 CURVE SMOOTH",
"821 1523 OFFCURVE",
"838 1485 OFFCURVE",
"838 1438 CURVE SMOOTH",
"838 1416 OFFCURVE",
"834 1398 OFFCURVE",
"826 1383 CURVE SMOOTH",
"809 1352 OFFCURVE",
"783 1337 OFFCURVE",
"748 1337 CURVE SMOOTH",
"717 1337 OFFCURVE",
"693 1349 OFFCURVE",
"676 1372 CURVE SMOOTH",
"665 1387 OFFCURVE",
"660 1404 OFFCURVE",
"660 1424 CURVE SMOOTH",
"660 1453 OFFCURVE",
"670 1476 OFFCURVE",
"690 1491 CURVE",
"675 1508 OFFCURVE",
"655 1516 OFFCURVE",
"630 1516 CURVE SMOOTH",
"550 1516 OFFCURVE",
"510 1429 OFFCURVE",
"510 1256 CURVE",
"510 197 LINE",
"510 155 OFFCURVE",
"518 126 OFFCURVE",
"534 109 CURVE SMOOTH",
"551 92 OFFCURVE",
"584 80 OFFCURVE",
"633 74 CURVE",
"633 0 LINE",
"256 0 LINE",
"256 74 LINE",
"306 80 OFFCURVE",
"339 92 OFFCURVE",
"355 109 CURVE SMOOTH",
"371 126 OFFCURVE",
"379 156 OFFCURVE",
"379 197 CURVE"
);
}
);
};
layerId = "4E782664-D0D5-4FED-AFC2-B9212141A2ED";
paths = (
{
closed = 1;
nodes = (
"551 1622 OFFCURVE",
"477 1597 OFFCURVE",
"418 1530 CURVE SMOOTH",
"369 1473 OFFCURVE",
"338 1362 OFFCURVE",
"338 1247 CURVE",
"338 227 LINE",
"338 174 OFFCURVE",
"328 140 OFFCURVE",
"315 125 CURVE SMOOTH",
"306 113 OFFCURVE",
"295 104 OFFCURVE",
"263 100 CURVE SMOOTH",
"246 98 OFFCURVE",
"221 97 OFFCURVE",
"188 96 CURVE",
"188 0 LINE",
"713 0 LINE",
"713 96 LINE",
"678 97 OFFCURVE",
"652 98 OFFCURVE",
"635 101 CURVE SMOOTH",
"617 104 OFFCURVE",
"604 107 OFFCURVE",
"597 111 CURVE SMOOTH",
"590 114 OFFCURVE",
"584 118 OFFCURVE",
"580 123 CURVE SMOOTH",
"566 138 OFFCURVE",
"559 172 OFFCURVE",
"559 227 CURVE",
"559 1245 LINE",
"559 1352 OFFCURVE",
"565 1423 OFFCURVE",
"586 1466 CURVE SMOOTH",
"601 1495 OFFCURVE",
"623 1518 OFFCURVE",
"655 1518 CURVE SMOOTH",
"676 1518 OFFCURVE",
"691 1512 OFFCURVE",
"700 1499 CURVE",
"679 1479 OFFCURVE",
"659 1452 OFFCURVE",
"659 1413 CURVE SMOOTH",
"659 1362 OFFCURVE",
"699 1319 OFFCURVE",
"760 1319 CURVE SMOOTH",
"819 1319 OFFCURVE",
"862 1364 OFFCURVE",
"862 1423 CURVE SMOOTH",
"862 1463 OFFCURVE",
"850 1499 OFFCURVE",
"827 1530 CURVE SMOOTH",
"786 1585 OFFCURVE",
"726 1622 OFFCURVE",
"631 1622 CURVE SMOOTH"
);
}
);
vertWidth = 2048;
width = 1024;
}
);
unicode = 017F;
},
{
color = 3;
glyphname = tbar;
lastChange = "2022-11-08 19:53:51 +0000";
layers = (
{
background = {
paths = (
{
closed = 1;
nodes = (
"483 1458 LINE",
"462 1241 OFFCURVE",
"367 1113 OFFCURVE",
"170 1106 CURVE",
"170 987 LINE",
"348 987 LINE",
"348 266 LINE SMOOTH",
"348 169 OFFCURVE",
"367 100 OFFCURVE",
"399 57 CURVE SMOOTH",
"434 12 OFFCURVE",
"489 -27 OFFCURVE",
"584 -27 CURVE SMOOTH",
"618 -27 OFFCURVE",
"652 -20 OFFCURVE",
"685 -6 CURVE SMOOTH",
"752 22 OFFCURVE",
"811 74 OFFCURVE",
"846 143 CURVE",
"795 238 LINE",
"752 173 OFFCURVE",
"702 141 OFFCURVE",
"653 141 CURVE SMOOTH",
"624 141 OFFCURVE",
"607 153 OFFCURVE",
"592 170 CURVE",
"579 189 OFFCURVE",
"569 229 OFFCURVE",
"569 268 CURVE SMOOTH",
"569 987 LINE",
"809 987 LINE",
"809 1106 LINE",
"569 1106 LINE",
"569 1458 LINE"
);
},
{
closed = 1;
nodes = (
"809 697 LINE",
"170 697 LINE",
"170 578 LINE",
"809 578 LINE"
);
}
);
};
layerId = "4E782664-D0D5-4FED-AFC2-B9212141A2ED";
paths = (
{
closed = 1;
nodes = (
"618 -27 OFFCURVE",
"652 -20 OFFCURVE",
"685 -6 CURVE SMOOTH",
"752 22 OFFCURVE",
"811 74 OFFCURVE",
"846 143 CURVE",
"795 238 LINE",
"752 173 OFFCURVE",
"702 141 OFFCURVE",
"653 141 CURVE SMOOTH",
"624 141 OFFCURVE",
"607 153 OFFCURVE",
"592 170 CURVE",
"579 189 OFFCURVE",
"569 229 OFFCURVE",
"569 268 CURVE SMOOTH",
"569 578 LINE",
"809 578 LINE",
"809 697 LINE",
"569 697 LINE",
"569 987 LINE",
"809 987 LINE",
"809 1106 LINE",
"569 1106 LINE",
"569 1458 LINE",
"483 1458 LINE",
"462 1241 OFFCURVE",
"367 1113 OFFCURVE",
"170 1106 CURVE",
"170 987 LINE",
"348 987 LINE",
"348 697 LINE",
"170 697 LINE",
"170 578 LINE",
"348 578 LINE",
"348 266 LINE SMOOTH",
"348 169 OFFCURVE",
"367 100 OFFCURVE",
"399 57 CURVE SMOOTH",
"434 12 OFFCURVE",
"489 -27 OFFCURVE",
"584 -27 CURVE SMOOTH"
);
}
);
vertWidth = 2048;
width = 1024;
}
);
unicode = 0167;
},
{
color = 3;
glyphname = uogonek;
lastChange = "2022-11-08 19:58:51 +0000";
layers = (
{
layerId = "4E782664-D0D5-4FED-AFC2-B9212141A2ED";
paths = (
{
closed = 1;
nodes = (
"973 206 LINE",
"950 206 OFFCURVE",
"932 208 OFFCURVE",
"921 213 CURVE SMOOTH",
"897 221 OFFCURVE",
"874 238 OFFCURVE",
"871 279 CURVE SMOOTH",
"869 300 OFFCURVE",
"868 333 OFFCURVE",
"868 380 CURVE SMOOTH",
"868 1147 LINE",
"752 1120 OFFCURVE",
"641 1106 OFFCURVE",
"557 1106 CURVE",
"557 1010 LINE",
"588 1010 OFFCURVE",
"606 1002 OFFCURVE",
"625 983 CURVE SMOOTH",
"648 962 OFFCURVE",
"647 926 OFFCURVE",
"647 874 CURVE SMOOTH",
"647 452 LINE",
"635 403 OFFCURVE",
"607 354 OFFCURVE",
"575 317 CURVE SMOOTH",
"542 280 OFFCURVE",
"507 257 OFFCURVE",
"483 257 CURVE SMOOTH",
"455 257 OFFCURVE",
"426 272 OFFCURVE",
"410 296 CURVE SMOOTH",
"399 313 OFFCURVE",
"391 340 OFFCURVE",
"387 378 CURVE SMOOTH",
"383 415 OFFCURVE",
"381 471 OFFCURVE",
"381 544 CURVE SMOOTH",
"381 1147 LINE",
"268 1120 OFFCURVE",
"152 1106 OFFCURVE",
"47 1106 CURVE",
"47 1010 LINE",
"98 1010 OFFCURVE",
"122 1002 OFFCURVE",
"139 983 CURVE SMOOTH",
"160 963 OFFCURVE",
"160 926 OFFCURVE",
"160 879 CURVE SMOOTH",
"160 483 LINE SMOOTH",
"160 334 OFFCURVE",
"184 235 OFFCURVE",
"227 171 CURVE SMOOTH",
"279 96 OFFCURVE",
"350 71 OFFCURVE",
"403 71 CURVE SMOOTH",
"452 71 OFFCURVE",
"493 81 OFFCURVE",
"528 100 CURVE SMOOTH",
"596 139 OFFCURVE",
"639 203 OFFCURVE",
"659 264 CURVE",
"670 111 LINE",
"595 53 OFFCURVE",
"540 -21 OFFCURVE",
"540 -103 CURVE SMOOTH",
"540 -140 OFFCURVE",
"548 -170 OFFCURVE",
"566 -190 CURVE SMOOTH",
"601 -227 OFFCURVE",
"660 -242 OFFCURVE",
"721 -242 CURVE SMOOTH",
"821 -242 OFFCURVE",
"889 -209 OFFCURVE",
"956 -133 CURVE",
"923 -78 LINE",
"878 -123 OFFCURVE",
"823 -145 OFFCURVE",
"788 -145 CURVE SMOOTH",
"745 -145 OFFCURVE",
"717 -127 OFFCURVE",
"717 -82 CURVE SMOOTH",
"717 -12 OFFCURVE",
"768 54 OFFCURVE",
"832 110 CURVE",
"973 110 LINE"
);
}
);
vertWidth = 2048;
width = 1024;
}
);
unicode = 0173;
},
{
color = 3;
glyphname = utilde;
lastChange = "2022-11-08 19:57:53 +0000";
layers = (
{
layerId = "4E782664-D0D5-4FED-AFC2-B9212141A2ED";
paths = (
{
closed = 1;
nodes = (
"223 1298 LINE",
"254 1354 OFFCURVE",
"301 1382 OFFCURVE",
"358 1382 CURVE SMOOTH",
"411 1382 OFFCURVE",
"456 1370 OFFCURVE",
"501 1346 CURVE SMOOTH",
"564 1313 OFFCURVE",
"612 1298 OFFCURVE",
"679 1298 CURVE SMOOTH",
"755 1298 OFFCURVE",
"839 1361 OFFCURVE",
"892 1454 CURVE",
"837 1556 LINE",
"806 1501 OFFCURVE",
"761 1473 OFFCURVE",
"702 1473 CURVE SMOOTH",
"651 1473 OFFCURVE",
"606 1483 OFFCURVE",
"569 1503 CURVE SMOOTH",
"497 1544 OFFCURVE",
"451 1556 OFFCURVE",
"380 1556 CURVE SMOOTH",
"305 1556 OFFCURVE",
"222 1496 OFFCURVE",
"167 1401 CURVE"
);
},
{
closed = 1;
nodes = (
"381 1147 LINE",
"268 1120 OFFCURVE",
"152 1106 OFFCURVE",
"47 1106 CURVE",
"47 1010 LINE",
"98 1010 OFFCURVE",
"122 1002 OFFCURVE",
"139 983 CURVE SMOOTH",
"160 963 OFFCURVE",
"160 926 OFFCURVE",
"160 879 CURVE SMOOTH",
"160 373 LINE SMOOTH",
"160 224 OFFCURVE",
"184 125 OFFCURVE",
"227 61 CURVE SMOOTH",
"279 -14 OFFCURVE",
"350 -39 OFFCURVE",
"403 -39 CURVE SMOOTH",
"452 -39 OFFCURVE",
"493 -29 OFFCURVE",
"528 -10 CURVE SMOOTH",
"596 29 OFFCURVE",
"639 93 OFFCURVE",
"659 154 CURVE",
"670 0 LINE",
"973 0 LINE",
"973 96 LINE",
"950 96 OFFCURVE",
"932 98 OFFCURVE",
"921 103 CURVE SMOOTH",
"897 111 OFFCURVE",
"874 128 OFFCURVE",
"871 169 CURVE SMOOTH",
"869 190 OFFCURVE",
"868 223 OFFCURVE",
"868 270 CURVE SMOOTH",
"868 1147 LINE",
"752 1120 OFFCURVE",
"641 1106 OFFCURVE",
"557 1106 CURVE",
"557 1010 LINE",
"588 1010 OFFCURVE",
"606 1002 OFFCURVE",
"625 983 CURVE SMOOTH",
"648 962 OFFCURVE",
"647 926 OFFCURVE",
"647 874 CURVE SMOOTH",
"647 342 LINE",
"635 293 OFFCURVE",
"607 244 OFFCURVE",
"575 207 CURVE SMOOTH",
"542 170 OFFCURVE",
"507 147 OFFCURVE",
"483 147 CURVE SMOOTH",
"455 147 OFFCURVE",
"426 162 OFFCURVE",
"410 186 CURVE SMOOTH",
"399 203 OFFCURVE",
"391 230 OFFCURVE",
"387 268 CURVE SMOOTH",
"383 305 OFFCURVE",
"381 361 OFFCURVE",
"381 434 CURVE SMOOTH"
);
}
);
vertWidth = 2048;
width = 1024;
}
);
unicode = 0169;
},
{
color = 3;
glyphname = wcircumflex;
lastChange = "2022-11-08 19:59:11 +0000";
layers = (
{
background = {
paths = (
{
closed = 1;
nodes = (
"20 1106 LINE",
"20 1012 LINE",
"43 1008 OFFCURVE",
"55 992 OFFCURVE",
"63 952 CURVE SMOOTH",
"272 -20 LINE",
"428 -20 LINE",
"520 633 LINE",
"528 633 LINE",
"625 -20 LINE",
"772 -20 LINE",
"942 942 LINE SMOOTH",
"946 967 OFFCURVE",
"956 982 OFFCURVE",
"965 991 CURVE SMOOTH",
"972 1000 OFFCURVE",
"985 1006 OFFCURVE",
"1004 1010 CURVE",
"1004 1106 LINE",
"791 1106 LINE",
"791 1010 LINE",
"807 1009 OFFCURVE",
"817 1001 OFFCURVE",
"825 993 CURVE SMOOTH",
"834 984 OFFCURVE",
"836 970 OFFCURVE",
"831 952 CURVE",
"731 358 LINE",
"723 358 LINE",
"641 1004 LINE",
"467 1004 LINE",
"389 358 LINE",
"381 358 LINE",
"276 956 LINE SMOOTH",
"272 977 OFFCURVE",
"276 992 OFFCURVE",
"283 997 CURVE",
"290 1005 OFFCURVE",
"300 1010 OFFCURVE",
"313 1012 CURVE",
"313 1106 LINE"
);
}
);
};
layerId = "4E782664-D0D5-4FED-AFC2-B9212141A2ED";
paths = (
{
closed = 1;
nodes = (
"408 1593 LINE",
"147 1290 LINE",
"305 1290 LINE",
"512 1460 LINE",
"719 1290 LINE",
"877 1290 LINE",
"616 1593 LINE"
);
},
{
closed = 1;
nodes = (
"20 1106 LINE",
"20 1012 LINE",
"43 1008 OFFCURVE",
"55 992 OFFCURVE",
"63 952 CURVE SMOOTH",
"272 -20 LINE",
"428 -20 LINE",
"520 633 LINE",
"528 633 LINE",
"625 -20 LINE",
"772 -20 LINE",
"942 942 LINE SMOOTH",
"946 967 OFFCURVE",
"956 982 OFFCURVE",
"965 991 CURVE SMOOTH",
"972 1000 OFFCURVE",
"985 1006 OFFCURVE",
"1004 1010 CURVE",
"1004 1106 LINE",
"791 1106 LINE",
"791 1010 LINE",
"807 1009 OFFCURVE",
"817 1001 OFFCURVE",
"825 993 CURVE SMOOTH",
"834 984 OFFCURVE",
"836 970 OFFCURVE",
"831 952 CURVE",
"731 358 LINE",
"723 358 LINE",
"641 1004 LINE",
"467 1004 LINE",
"389 358 LINE",
"381 358 LINE",
"276 956 LINE SMOOTH",
"272 977 OFFCURVE",
"276 992 OFFCURVE",
"283 997 CURVE",
"290 1005 OFFCURVE",
"300 1010 OFFCURVE",
"313 1012 CURVE",
"313 1106 LINE"
);
}
);
vertWidth = 2048;
width = 1024;
}
);
unicode = 0175;
},
{
color = 3;
glyphname = ycircumflex;
lastChange = "2022-11-08 22:14:00 +0000";
layers = (
{
background = {
paths = (
{
closed = 1;
nodes = (
"57 1106 LINE",
"57 1010 LINE",
"96 1009 OFFCURVE",
"114 1001 OFFCURVE",
"135 981 CURVE SMOOTH",
"158 961 OFFCURVE",
"167 940 OFFCURVE",
"180 897 CURVE",
"453 125 LINE",
"434 76 LINE SMOOTH",
"407 5 OFFCURVE",
"383 -46 OFFCURVE",
"360 -78 CURVE SMOOTH",
"337 -111 OFFCURVE",
"316 -130 OFFCURVE",
"297 -135 CURVE",
"313 -119 OFFCURVE",
"317 -98 OFFCURVE",
"317 -70 CURVE SMOOTH",
"317 -56 OFFCURVE",
"313 -41 OFFCURVE",
"304 -26 CURVE SMOOTH",
"287 4 OFFCURVE",
"256 27 OFFCURVE",
"213 27 CURVE SMOOTH",
"182 27 OFFCURVE",
"150 13 OFFCURVE",
"131 -10 CURVE SMOOTH",
"115 -29 OFFCURVE",
"106 -65 OFFCURVE",
"109 -92 CURVE SMOOTH",
"111 -119 OFFCURVE",
"119 -144 OFFCURVE",
"134 -167 CURVE SMOOTH",
"162 -212 OFFCURVE",
"211 -242 OFFCURVE",
"270 -242 CURVE SMOOTH",
"343 -242 OFFCURVE",
"401 -209 OFFCURVE",
"446 -154 CURVE SMOOTH",
"491 -99 OFFCURVE",
"527 -27 OFFCURVE",
"555 49 CURVE SMOOTH",
"850 829 LINE SMOOTH",
"862 863 OFFCURVE",
"873 891 OFFCURVE",
"883 913 CURVE SMOOTH",
"902 956 OFFCURVE",
"917 993 OFFCURVE",
"973 1010 CURVE",
"973 1106 LINE",
"674 1106 LINE",
"674 1010 LINE",
"694 1006 OFFCURVE",
"717 999 OFFCURVE",
"729 991 CURVE SMOOTH",
"744 983 OFFCURVE",
"754 971 OFFCURVE",
"754 956 CURVE SMOOTH",
"754 939 OFFCURVE",
"744 901 OFFCURVE",
"729 858 CURVE SMOOTH",
"578 428 LINE",
"440 858 LINE SMOOTH",
"427 901 OFFCURVE",
"418 935 OFFCURVE",
"418 956 CURVE SMOOTH",
"418 973 OFFCURVE",
"426 984 OFFCURVE",
"442 993 CURVE SMOOTH",
"457 1001 OFFCURVE",
"475 1009 OFFCURVE",
"494 1010 CURVE",
"494 1106 LINE"
);
}
);
};
layerId = "4E782664-D0D5-4FED-AFC2-B9212141A2ED";
paths = (
{
closed = 1;
nodes = (
"448 1593 LINE",
"187 1290 LINE",
"345 1290 LINE",
"552 1460 LINE",
"759 1290 LINE",
"917 1290 LINE",
"656 1593 LINE"
);
},
{
closed = 1;
nodes = (
"57 1106 LINE",
"57 1010 LINE",
"96 1009 OFFCURVE",
"114 1001 OFFCURVE",
"135 981 CURVE SMOOTH",
"158 961 OFFCURVE",
"167 940 OFFCURVE",
"180 897 CURVE",
"453 125 LINE",
"434 76 LINE SMOOTH",
"407 5 OFFCURVE",
"383 -46 OFFCURVE",
"360 -78 CURVE SMOOTH",
"337 -111 OFFCURVE",
"316 -130 OFFCURVE",
"297 -135 CURVE",
"313 -119 OFFCURVE",
"317 -98 OFFCURVE",
"317 -70 CURVE SMOOTH",
"317 -56 OFFCURVE",
"313 -41 OFFCURVE",
"304 -26 CURVE SMOOTH",
"287 4 OFFCURVE",
"256 27 OFFCURVE",
"213 27 CURVE SMOOTH",
"182 27 OFFCURVE",
"150 13 OFFCURVE",
"131 -10 CURVE SMOOTH",
"115 -29 OFFCURVE",
"106 -65 OFFCURVE",
"109 -92 CURVE SMOOTH",
"111 -119 OFFCURVE",
"119 -144 OFFCURVE",
"134 -167 CURVE SMOOTH",
"162 -212 OFFCURVE",
"211 -242 OFFCURVE",
"270 -242 CURVE SMOOTH",
"343 -242 OFFCURVE",
"401 -209 OFFCURVE",
"446 -154 CURVE SMOOTH",
"491 -99 OFFCURVE",
"526 -27 OFFCURVE",
"555 49 CURVE SMOOTH",
"850 829 LINE SMOOTH",
"863 863 OFFCURVE",
"873 891 OFFCURVE",
"883 913 CURVE SMOOTH",
"902 956 OFFCURVE",
"917 993 OFFCURVE",
"973 1010 CURVE",
"973 1106 LINE",
"674 1106 LINE",
"674 1010 LINE",
"694 1006 OFFCURVE",
"717 999 OFFCURVE",
"729 991 CURVE SMOOTH",
"744 983 OFFCURVE",
"754 971 OFFCURVE",
"754 956 CURVE SMOOTH",
"754 939 OFFCURVE",
"744 901 OFFCURVE",
"729 858 CURVE SMOOTH",
"578 428 LINE",
"440 858 LINE SMOOTH",
"426 901 OFFCURVE",
"418 935 OFFCURVE",
"418 956 CURVE SMOOTH",
"418 973 OFFCURVE",
"426 984 OFFCURVE",
"442 993 CURVE SMOOTH",
"457 1001 OFFCURVE",
"475 1009 OFFCURVE",
"494 1010 CURVE",
"494 1106 LINE"
);
}
);
vertWidth = 2048;
width = 1024;
}
);
unicode = 0177;
},
{
color = 3;
glyphname = fi;
lastChange = "2022-11-08 22:16:31 +0000";
layers = (
{
background = {
paths = (
{
closed = 1;
nodes = (
"314 1622 OFFCURVE",
"197 1464 OFFCURVE",
"197 1247 CURVE SMOOTH",
"197 1106 LINE",
"0 1106 LINE",
"0 987 LINE",
"197 987 LINE",
"197 227 LINE SMOOTH",
"197 174 OFFCURVE",
"187 140 OFFCURVE",
"174 125 CURVE SMOOTH",
"165 113 OFFCURVE",
"154 104 OFFCURVE",
"122 100 CURVE SMOOTH",
"105 98 OFFCURVE",
"80 97 OFFCURVE",
"47 96 CURVE",
"47 0 LINE",
"502 0 LINE",
"502 96 LINE",
"431 100 OFFCURVE",
"418 105 OFFCURVE",
"418 227 CURVE SMOOTH",
"418 987 LINE",
"664 987 LINE",
"664 1106 LINE",
"418 1106 LINE",
"418 1245 LINE SMOOTH",
"418 1375 OFFCURVE",
"433 1518 OFFCURVE",
"584 1518 CURVE SMOOTH",
"605 1518 OFFCURVE",
"617 1511 OFFCURVE",
"629 1499 CURVE",
"603 1472 OFFCURVE",
"578 1436 OFFCURVE",
"578 1383 CURVE SMOOTH",
"578 1310 OFFCURVE",
"642 1249 OFFCURVE",
"739 1249 CURVE SMOOTH",
"833 1249 OFFCURVE",
"901 1316 OFFCURVE",
"901 1403 CURVE SMOOTH",
"901 1547 OFFCURVE",
"762 1622 OFFCURVE",
"580 1622 CURVE SMOOTH"
);
},
{
closed = 1;
nodes = (
"871 1147 LINE",
"758 1120 OFFCURVE",
"637 1106 OFFCURVE",
"498 1106 CURVE",
"498 988 LINE",
"605 985 OFFCURVE",
"646 975 OFFCURVE",
"646 867 CURVE SMOOTH",
"646 242 LINE SMOOTH",
"646 128 OFFCURVE",
"624 99 OFFCURVE",
"552 96 CURVE",
"552 0 LINE",
"1024 0 LINE",
"1024 96 LINE",
"965 99 OFFCURVE",
"925 111 OFFCURVE",
"906 127 CURVE SMOOTH",
"883 145 OFFCURVE",
"871 183 OFFCURVE",
"871 240 CURVE SMOOTH"
);
}
);
};
layerId = "4E782664-D0D5-4FED-AFC2-B9212141A2ED";
paths = (
{
closed = 1;
nodes = (
"883 145 OFFCURVE",
"871 183 OFFCURVE",
"871 240 CURVE SMOOTH",
"871 1147 LINE",
"758 1120 OFFCURVE",
"637 1106 OFFCURVE",
"498 1106 CURVE SMOOTH",
"418 1106 LINE",
"418 1245 LINE SMOOTH",
"418 1375 OFFCURVE",
"433 1518 OFFCURVE",
"584 1518 CURVE SMOOTH",
"605 1518 OFFCURVE",
"617 1511 OFFCURVE",
"629 1499 CURVE",
"603 1472 OFFCURVE",
"578 1436 OFFCURVE",
"578 1383 CURVE SMOOTH",
"578 1310 OFFCURVE",
"642 1249 OFFCURVE",
"739 1249 CURVE SMOOTH",
"833 1249 OFFCURVE",
"901 1316 OFFCURVE",
"901 1403 CURVE SMOOTH",
"901 1547 OFFCURVE",
"762 1622 OFFCURVE",
"580 1622 CURVE SMOOTH",
"314 1622 OFFCURVE",
"197 1464 OFFCURVE",
"197 1247 CURVE SMOOTH",
"197 1106 LINE",
"0 1106 LINE",
"0 987 LINE",
"197 987 LINE",
"197 227 LINE SMOOTH",
"197 174 OFFCURVE",
"187 140 OFFCURVE",
"174 125 CURVE SMOOTH",
"165 113 OFFCURVE",
"154 104 OFFCURVE",
"122 100 CURVE SMOOTH",
"105 98 OFFCURVE",
"80 97 OFFCURVE",
"47 96 CURVE",
"47 0 LINE",
"502 0 LINE",
"502 96 LINE",
"431 100 OFFCURVE",
"418 105 OFFCURVE",
"418 227 CURVE SMOOTH",
"418 987 LINE",
"524 987 LINE SMOOTH",
"612 983 OFFCURVE",
"646 966 OFFCURVE",
"646 867 CURVE SMOOTH",
"646 242 LINE SMOOTH",
"646 128 OFFCURVE",
"624 99 OFFCURVE",
"552 96 CURVE",
"552 0 LINE",
"1024 0 LINE",
"1024 96 LINE",
"965 99 OFFCURVE",
"925 111 OFFCURVE",
"906 127 CURVE SMOOTH"
);
}
);
vertWidth = 2048;
width = 1024;
}
);
unicode = FB01;
},
{
color = 3;
glyphname = fl;
lastChange = "2022-11-08 22:17:49 +0000";
layers = (
{
layerId = "4E782664-D0D5-4FED-AFC2-B9212141A2ED";
paths = (
{
closed = 1;
nodes = (
"883 146 OFFCURVE",
"871 182 OFFCURVE",
"871 250 CURVE SMOOTH",
"871 1597 LINE",
"804 1604 OFFCURVE",
"762 1622 OFFCURVE",
"580 1622 CURVE SMOOTH",
"314 1622 OFFCURVE",
"197 1464 OFFCURVE",
"197 1247 CURVE SMOOTH",
"197 1106 LINE",
"0 1106 LINE",
"0 987 LINE",
"197 987 LINE",
"197 227 LINE SMOOTH",
"197 174 OFFCURVE",
"187 140 OFFCURVE",
"174 125 CURVE SMOOTH",
"165 113 OFFCURVE",
"154 104 OFFCURVE",
"122 100 CURVE SMOOTH",
"105 98 OFFCURVE",
"80 97 OFFCURVE",
"47 96 CURVE",
"47 0 LINE",
"502 0 LINE",
"502 96 LINE",
"431 100 OFFCURVE",
"418 105 OFFCURVE",
"418 227 CURVE SMOOTH",
"418 987 LINE",
"646 987 LINE",
"646 246 LINE SMOOTH",
"646 130 OFFCURVE",
"628 99 OFFCURVE",
"562 96 CURVE",
"562 0 LINE",
"1024 0 LINE",
"1024 96 LINE",
"965 99 OFFCURVE",
"925 111 OFFCURVE",
"906 127 CURVE SMOOTH"
);
},
{
closed = 1;
nodes = (
"418 1375 OFFCURVE",
"432 1518 OFFCURVE",
"574 1518 CURVE SMOOTH",
"576 1518 LINE SMOOTH",
"622 1516 OFFCURVE",
"646 1492 OFFCURVE",
"646 1446 CURVE SMOOTH",
"646 1106 LINE",
"418 1106 LINE",
"418 1245 LINE SMOOTH"
);
}
);
vertWidth = 2048;
width = 1024;
}
);
unicode = FB02;
},
{
color = 4;
glyphname = "Gje-cy";
lastChange = "2022-11-08 20:07:18 +0000";
layers = (
{
layerId = "4E782664-D0D5-4FED-AFC2-B9212141A2ED";
paths = (
{
closed = 1;
nodes = (
"360 1456 LINE",
"455 1455 OFFCURVE",
"510 1444 OFFCURVE",
"549 1413 CURVE SMOOTH",
"560 1404 OFFCURVE",
"569 1394 OFFCURVE",
"574 1383 CURVE SMOOTH",
"585 1359 OFFCURVE",
"588 1325 OFFCURVE",
"588 1262 CURVE SMOOTH",
"588 295 LINE SMOOTH",
"588 264 OFFCURVE",
"587 239 OFFCURVE",
"585 220 CURVE SMOOTH",
"581 182 OFFCURVE",
"572 162 OFFCURVE",
"549 143 CURVE SMOOTH",
"510 114 OFFCURVE",
"455 103 OFFCURVE",
"360 100 CURVE",
"360 0 LINE",
"1157 0 LINE",
"1157 100 LINE",
"1034 103 OFFCURVE",
"979 114 OFFCURVE",
"940 143 CURVE SMOOTH",
"929 152 OFFCURVE",
"921 163 OFFCURVE",
"916 174 CURVE SMOOTH",
"904 197 OFFCURVE",
"901 232 OFFCURVE",
"901 295 CURVE SMOOTH",
"901 1243 LINE SMOOTH",
"901 1274 OFFCURVE",
"902 1299 OFFCURVE",
"904 1318 CURVE SMOOTH",
"907 1354 OFFCURVE",
"917 1375 OFFCURVE",
"940 1395 CURVE SMOOTH",
"973 1423 OFFCURVE",
"1014 1430 OFFCURVE",
"1065 1430 CURVE SMOOTH",
"1145 1430 LINE SMOOTH",
"1184 1430 OFFCURVE",
"1237 1422 OFFCURVE",
"1293 1404 CURVE SMOOTH",
"1348 1386 OFFCURVE",
"1401 1358 OFFCURVE",
"1438 1321 CURVE SMOOTH",
"1499 1260 OFFCURVE",
"1542 1184 OFFCURVE",
"1571 1047 CURVE",
"1663 1047 LINE",
"1626 1556 LINE",
"360 1556 LINE"
);
}
);
vertWidth = 2048;
width = 2048;
}
);
unicode = 0403;
},
{
color = 4;
glyphname = "Gheupturn-cy";
lastChange = "2022-11-08 20:08:05 +0000";
layers = (
{
background = {
paths = (
{
closed = 1;
nodes = (
"907 1254 OFFCURVE",
"917 1275 OFFCURVE",
"940 1295 CURVE SMOOTH",
"973 1323 OFFCURVE",
"1014 1330 OFFCURVE",
"1065 1330 CURVE SMOOTH",
"1626 1330 LINE",
"1663 1802 LINE",
"1571 1802 LINE",
"1518 1588 OFFCURVE",
"1398 1456 OFFCURVE",
"1145 1456 CURVE SMOOTH",
"360 1456 LINE",
"360 1356 LINE",
"455 1355 OFFCURVE",
"510 1344 OFFCURVE",
"549 1313 CURVE SMOOTH",
"560 1304 OFFCURVE",
"569 1294 OFFCURVE",
"574 1283 CURVE SMOOTH",
"585 1259 OFFCURVE",
"588 1225 OFFCURVE",
"588 1162 CURVE SMOOTH",
"588 295 LINE SMOOTH",
"588 264 OFFCURVE",
"587 239 OFFCURVE",
"585 220 CURVE SMOOTH",
"581 182 OFFCURVE",
"572 162 OFFCURVE",
"549 143 CURVE SMOOTH",
"510 114 OFFCURVE",
"455 103 OFFCURVE",
"360 100 CURVE",
"360 0 LINE",
"1157 0 LINE",
"1157 100 LINE",
"1034 103 OFFCURVE",
"979 114 OFFCURVE",
"940 143 CURVE SMOOTH",
"929 152 OFFCURVE",
"921 163 OFFCURVE",
"916 174 CURVE SMOOTH",
"904 197 OFFCURVE",
"901 232 OFFCURVE",
"901 295 CURVE SMOOTH",
"901 1143 LINE SMOOTH",
"901 1174 OFFCURVE",
"902 1199 OFFCURVE",
"904 1218 CURVE SMOOTH"
);
}
);
};
layerId = "4E782664-D0D5-4FED-AFC2-B9212141A2ED";
paths = (
{
closed = 1;
nodes = (
"907 1254 OFFCURVE",
"917 1275 OFFCURVE",
"940 1295 CURVE SMOOTH",
"973 1323 OFFCURVE",
"1014 1330 OFFCURVE",
"1065 1330 CURVE SMOOTH",
"1626 1330 LINE",
"1663 1802 LINE",
"1571 1802 LINE",
"1518 1588 OFFCURVE",
"1398 1456 OFFCURVE",
"1145 1456 CURVE SMOOTH",
"360 1456 LINE",
"360 1356 LINE",
"455 1355 OFFCURVE",
"510 1344 OFFCURVE",
"549 1313 CURVE SMOOTH",
"560 1304 OFFCURVE",
"569 1294 OFFCURVE",
"574 1283 CURVE SMOOTH",
"585 1259 OFFCURVE",
"588 1225 OFFCURVE",
"588 1162 CURVE SMOOTH",
"588 295 LINE SMOOTH",
"588 264 OFFCURVE",
"587 239 OFFCURVE",
"585 220 CURVE SMOOTH",
"581 182 OFFCURVE",
"572 162 OFFCURVE",
"549 143 CURVE SMOOTH",
"510 114 OFFCURVE",
"455 103 OFFCURVE",
"360 100 CURVE",
"360 0 LINE",
"1157 0 LINE",
"1157 100 LINE",
"1034 103 OFFCURVE",
"979 114 OFFCURVE",
"940 143 CURVE SMOOTH",
"929 152 OFFCURVE",
"921 163 OFFCURVE",
"916 174 CURVE SMOOTH",
"904 197 OFFCURVE",
"901 232 OFFCURVE",
"901 295 CURVE SMOOTH",
"901 1143 LINE SMOOTH",
"901 1174 OFFCURVE",
"902 1199 OFFCURVE",
"904 1218 CURVE SMOOTH"
);
}
);
vertWidth = 2048;
width = 2048;
}
);
unicode = 0490;
},
{
color = 4;
glyphname = "Kje-cy";
lastChange = "2022-11-08 22:19:21 +0000";
layers = (
{
background = {
paths = (
{
closed = 1;
nodes = (
"1193 913 OFFCURVE",
"1225 1002 OFFCURVE",
"1262 1123 CURVE SMOOTH",
"1294 1231 OFFCURVE",
"1333 1293 OFFCURVE",
"1370 1330 CURVE SMOOTH",
"1413 1375 OFFCURVE",
"1464 1395 OFFCURVE",
"1511 1383 CURVE",
"1491 1358 OFFCURVE",
"1477 1319 OFFCURVE",
"1477 1284 CURVE SMOOTH",
"1477 1260 OFFCURVE",
"1483 1238 OFFCURVE",
"1496 1218 CURVE SMOOTH",
"1521 1177 OFFCURVE",
"1568 1151 OFFCURVE",
"1624 1151 CURVE SMOOTH",
"1708 1151 OFFCURVE",
"1769 1212 OFFCURVE",
"1769 1305 CURVE SMOOTH",
"1769 1342 OFFCURVE",
"1758 1376 OFFCURVE",
"1737 1405 CURVE SMOOTH",
"1693 1463 OFFCURVE",
"1619 1499 OFFCURVE",
"1532 1499 CURVE SMOOTH",
"1471 1499 OFFCURVE",
"1414 1488 OFFCURVE",
"1362 1465 CURVE SMOOTH",
"1258 1420 OFFCURVE",
"1176 1318 OFFCURVE",
"1124 1135 CURVE SMOOTH",
"1088 1004 OFFCURVE",
"1043 917 OFFCURVE",
"986 862 CURVE SMOOTH",
"929 806 OFFCURVE",
"859 780 OFFCURVE",
"768 768 CURVE",
"768 1162 LINE SMOOTH",
"768 1193 OFFCURVE",
"769 1218 OFFCURVE",
"771 1237 CURVE SMOOTH",
"775 1274 OFFCURVE",
"786 1296 OFFCURVE",
"807 1313 CURVE SMOOTH",
"846 1344 OFFCURVE",
"902 1355 OFFCURVE",
"967 1356 CURVE",
"967 1456 LINE",
"227 1456 LINE",
"227 1356 LINE",
"322 1355 OFFCURVE",
"377 1344 OFFCURVE",
"416 1313 CURVE SMOOTH",
"427 1304 OFFCURVE",
"436 1294 OFFCURVE",
"441 1283 CURVE SMOOTH",
"452 1259 OFFCURVE",
"455 1225 OFFCURVE",
"455 1162 CURVE SMOOTH",
"455 299 LINE SMOOTH",
"455 268 OFFCURVE",
"454 243 OFFCURVE",
"452 224 CURVE SMOOTH",
"448 186 OFFCURVE",
"439 166 OFFCURVE",
"416 147 CURVE SMOOTH",
"379 118 OFFCURVE",
"322 103 OFFCURVE",
"227 100 CURVE",
"227 0 LINE",
"975 0 LINE",
"975 100 LINE",
"902 103 OFFCURVE",
"844 118 OFFCURVE",
"807 147 CURVE SMOOTH",
"796 156 OFFCURVE",
"788 167 OFFCURVE",
"783 178 CURVE SMOOTH",
"771 201 OFFCURVE",
"768 236 OFFCURVE",
"768 299 CURVE SMOOTH",
"768 641 LINE",
"926 662 OFFCURVE",
"1022 704 OFFCURVE",
"1125 830 CURVE SMOOTH"
);
},
{
closed = 1;
nodes = (
"1223 264 LINE SMOOTH",
"1237 244 OFFCURVE",
"1249 228 OFFCURVE",
"1257 216 CURVE SMOOTH",
"1273 191 OFFCURVE",
"1280 177 OFFCURVE",
"1280 160 CURVE SMOOTH",
"1280 141 OFFCURVE",
"1278 129 OFFCURVE",
"1255 117 CURVE SMOOTH",
"1234 104 OFFCURVE",
"1192 100 OFFCURVE",
"1159 100 CURVE",
"1159 0 LINE",
"1872 0 LINE",
"1872 98 LINE",
"1861 100 OFFCURVE",
"1844 104 OFFCURVE",
"1822 109 CURVE SMOOTH",
"1777 119 OFFCURVE",
"1751 139 OFFCURVE",
"1724 160 CURVE SMOOTH",
"1697 180 OFFCURVE",
"1667 213 OFFCURVE",
"1624 272 CURVE SMOOTH",
"1154 915 LINE",
"893 735 LINE"
);
},
{
closed = 1;
nodes = (
"1217 1802 LINE",
"795 1595 LINE",
"858 1501 LINE",
"1339 1589 LINE"
);
}
);
};
layerId = "4E782664-D0D5-4FED-AFC2-B9212141A2ED";
paths = (
{
closed = 1;
nodes = (
"795 1595 LINE",
"858 1501 LINE",
"1339 1589 LINE",
"1217 1802 LINE"
);
},
{
closed = 1;
nodes = (
"1777 119 OFFCURVE",
"1751 139 OFFCURVE",
"1724 160 CURVE SMOOTH",
"1697 180 OFFCURVE",
"1667 213 OFFCURVE",
"1624 272 CURVE SMOOTH",
"1170 893 LINE",
"1209 959 OFFCURVE",
"1234 1032 OFFCURVE",
"1262 1123 CURVE SMOOTH",
"1294 1231 OFFCURVE",
"1333 1293 OFFCURVE",
"1370 1330 CURVE SMOOTH",
"1413 1375 OFFCURVE",
"1464 1395 OFFCURVE",
"1511 1383 CURVE",
"1491 1358 OFFCURVE",
"1477 1319 OFFCURVE",
"1477 1284 CURVE SMOOTH",
"1477 1260 OFFCURVE",
"1483 1238 OFFCURVE",
"1496 1218 CURVE SMOOTH",
"1521 1177 OFFCURVE",
"1568 1151 OFFCURVE",
"1624 1151 CURVE SMOOTH",
"1708 1151 OFFCURVE",
"1769 1212 OFFCURVE",
"1769 1305 CURVE SMOOTH",
"1769 1342 OFFCURVE",
"1758 1376 OFFCURVE",
"1737 1405 CURVE SMOOTH",
"1693 1463 OFFCURVE",
"1619 1499 OFFCURVE",
"1532 1499 CURVE SMOOTH",
"1471 1499 OFFCURVE",
"1414 1488 OFFCURVE",
"1362 1465 CURVE SMOOTH",
"1258 1420 OFFCURVE",
"1176 1318 OFFCURVE",
"1124 1135 CURVE SMOOTH",
"1088 1004 OFFCURVE",
"1043 917 OFFCURVE",
"986 862 CURVE SMOOTH",
"929 806 OFFCURVE",
"859 780 OFFCURVE",
"768 768 CURVE",
"768 1162 LINE SMOOTH",
"768 1193 OFFCURVE",
"769 1218 OFFCURVE",
"771 1237 CURVE SMOOTH",
"775 1274 OFFCURVE",
"786 1296 OFFCURVE",
"807 1313 CURVE SMOOTH",
"846 1344 OFFCURVE",
"902 1355 OFFCURVE",
"967 1356 CURVE",
"967 1456 LINE",
"227 1456 LINE",
"227 1356 LINE",
"322 1355 OFFCURVE",
"377 1344 OFFCURVE",
"416 1313 CURVE SMOOTH",
"427 1304 OFFCURVE",
"436 1294 OFFCURVE",
"441 1283 CURVE SMOOTH",
"452 1259 OFFCURVE",
"455 1225 OFFCURVE",
"455 1162 CURVE SMOOTH",
"455 299 LINE SMOOTH",
"455 268 OFFCURVE",
"454 243 OFFCURVE",
"452 224 CURVE SMOOTH",
"448 186 OFFCURVE",
"439 166 OFFCURVE",
"416 147 CURVE SMOOTH",
"379 118 OFFCURVE",
"322 103 OFFCURVE",
"227 100 CURVE",
"227 0 LINE",
"975 0 LINE",
"975 100 LINE",
"902 103 OFFCURVE",
"844 118 OFFCURVE",
"807 147 CURVE SMOOTH",
"796 156 OFFCURVE",
"788 167 OFFCURVE",
"783 178 CURVE SMOOTH",
"771 201 OFFCURVE",
"768 236 OFFCURVE",
"768 299 CURVE SMOOTH",
"768 641 LINE",
"831 649 OFFCURVE",
"884 661 OFFCURVE",
"932 680 CURVE",
"1223 264 LINE SMOOTH",
"1237 244 OFFCURVE",
"1249 228 OFFCURVE",
"1257 216 CURVE SMOOTH",
"1273 191 OFFCURVE",
"1280 177 OFFCURVE",
"1280 160 CURVE SMOOTH",
"1280 141 OFFCURVE",
"1278 129 OFFCURVE",
"1255 117 CURVE SMOOTH",
"1234 104 OFFCURVE",
"1192 100 OFFCURVE",
"1159 100 CURVE",
"1159 0 LINE",
"1872 0 LINE",
"1872 98 LINE",
"1861 100 OFFCURVE",
"1844 104 OFFCURVE",
"1822 109 CURVE SMOOTH"
);
}
);
vertWidth = 2048;
width = 2048;
}
);
unicode = 040C;
},
{
color = 4;
glyphname = "Ushort-cy";
lastChange = "2022-11-08 20:12:18 +0000";
layers = (
{
background = {
paths = (
{
closed = 1;
nodes = (
"850 1207 LINE SMOOTH",
"836 1230 OFFCURVE",
"834 1254 OFFCURVE",
"834 1266 CURVE SMOOTH",
"834 1293 OFFCURVE",
"854 1323 OFFCURVE",
"895 1340 CURVE SMOOTH",
"915 1348 OFFCURVE",
"956 1355 OFFCURVE",
"991 1356 CURVE",
"991 1456 LINE",
"246 1456 LINE",
"246 1356 LINE",
"309 1352 OFFCURVE",
"354 1344 OFFCURVE",
"391 1321 CURVE SMOOTH",
"430 1300 OFFCURVE",
"462 1266 OFFCURVE",
"494 1211 CURVE SMOOTH",
"1040 281 LINE",
"1208 603 LINE"
);
},
{
closed = 1;
nodes = (
"1038 372 OFFCURVE",
"1008 337 OFFCURVE",
"984 298 CURVE SMOOTH",
"945 234 OFFCURVE",
"899 178 OFFCURVE",
"858 137 CURVE SMOOTH",
"803 82 OFFCURVE",
"754 68 OFFCURVE",
"705 68 CURVE SMOOTH",
"637 68 OFFCURVE",
"594 82 OFFCURVE",
"563 121 CURVE",
"622 136 OFFCURVE",
"657 176 OFFCURVE",
"657 248 CURVE SMOOTH",
"657 273 OFFCURVE",
"650 296 OFFCURVE",
"637 316 CURVE SMOOTH",
"610 356 OFFCURVE",
"565 381 OFFCURVE",
"520 381 CURVE SMOOTH",
"497 381 OFFCURVE",
"475 375 OFFCURVE",
"453 364 CURVE SMOOTH",
"408 340 OFFCURVE",
"375 296 OFFCURVE",
"375 231 CURVE SMOOTH",
"375 166 OFFCURVE",
"403 98 OFFCURVE",
"457 43 CURVE SMOOTH",
"511 -12 OFFCURVE",
"590 -47 OFFCURVE",
"694 -47 CURVE SMOOTH",
"737 -47 OFFCURVE",
"780 -42 OFFCURVE",
"822 -32 CURVE SMOOTH",
"905 -12 OFFCURVE",
"966 43 OFFCURVE",
"1014 102 CURVE SMOOTH",
"1061 161 OFFCURVE",
"1106 234 OFFCURVE",
"1143 307 CURVE SMOOTH",
"1206 434 OFFCURVE",
"1262 555 OFFCURVE",
"1317 669 CURVE SMOOTH",
"1426 896 OFFCURVE",
"1469 986 OFFCURVE",
"1526 1114 CURVE SMOOTH",
"1568 1209 OFFCURVE",
"1620 1266 OFFCURVE",
"1657 1301 CURVE SMOOTH",
"1694 1336 OFFCURVE",
"1743 1351 OFFCURVE",
"1831 1356 CURVE",
"1831 1456 LINE",
"1255 1456 LINE",
"1255 1352 LINE",
"1322 1348 OFFCURVE",
"1370 1339 OFFCURVE",
"1399 1325 CURVE SMOOTH",
"1432 1309 OFFCURVE",
"1456 1287 OFFCURVE",
"1456 1248 CURVE SMOOTH",
"1456 1227 OFFCURVE",
"1422 1156 OFFCURVE",
"1406 1120 CURVE SMOOTH",
"1214 702 LINE",
"1058 410 LINE"
);
}
);
};
layerId = "4E782664-D0D5-4FED-AFC2-B9212141A2ED";
paths = (
{
closed = 1;
nodes = (
"839 1800 OFFCURVE",
"816 1794 OFFCURVE",
"797 1781 CURVE SMOOTH",
"759 1756 OFFCURVE",
"739 1716 OFFCURVE",
"739 1681 CURVE SMOOTH",
"739 1601 OFFCURVE",
"790 1546 OFFCURVE",
"866 1510 CURVE SMOOTH",
"941 1474 OFFCURVE",
"1036 1458 OFFCURVE",
"1124 1458 CURVE SMOOTH",
"1212 1458 OFFCURVE",
"1307 1474 OFFCURVE",
"1383 1510 CURVE SMOOTH",
"1458 1546 OFFCURVE",
"1509 1601 OFFCURVE",
"1509 1681 CURVE SMOOTH",
"1509 1698 OFFCURVE",
"1504 1716 OFFCURVE",
"1495 1735 CURVE SMOOTH",
"1475 1771 OFFCURVE",
"1437 1800 OFFCURVE",
"1382 1800 CURVE SMOOTH",
"1359 1800 OFFCURVE",
"1337 1796 OFFCURVE",
"1317 1787 CURVE SMOOTH",
"1276 1769 OFFCURVE",
"1249 1732 OFFCURVE",
"1249 1677 CURVE SMOOTH",
"1249 1636 OFFCURVE",
"1271 1606 OFFCURVE",
"1296 1593 CURVE",
"1269 1569 OFFCURVE",
"1207 1554 OFFCURVE",
"1124 1554 CURVE SMOOTH",
"1043 1554 OFFCURVE",
"979 1569 OFFCURVE",
"952 1593 CURVE",
"977 1606 OFFCURVE",
"999 1636 OFFCURVE",
"999 1677 CURVE SMOOTH",
"999 1704 OFFCURVE",
"993 1727 OFFCURVE",
"981 1746 CURVE SMOOTH",
"956 1782 OFFCURVE",
"913 1800 OFFCURVE",
"866 1800 CURVE SMOOTH"
);
},
{
closed = 1;
nodes = (
"850 1207 LINE SMOOTH",
"836 1230 OFFCURVE",
"834 1254 OFFCURVE",
"834 1266 CURVE SMOOTH",
"834 1293 OFFCURVE",
"854 1323 OFFCURVE",
"895 1340 CURVE SMOOTH",
"915 1348 OFFCURVE",
"956 1355 OFFCURVE",
"991 1356 CURVE",
"991 1456 LINE",
"246 1456 LINE",
"246 1356 LINE",
"309 1352 OFFCURVE",
"354 1344 OFFCURVE",
"391 1321 CURVE SMOOTH",
"430 1300 OFFCURVE",
"462 1266 OFFCURVE",
"494 1211 CURVE SMOOTH",
"1040 281 LINE",
"1208 603 LINE"
);
},
{
closed = 1;
nodes = (
"1038 372 OFFCURVE",
"1008 337 OFFCURVE",
"984 298 CURVE SMOOTH",
"945 234 OFFCURVE",
"899 178 OFFCURVE",
"858 137 CURVE SMOOTH",
"803 82 OFFCURVE",
"754 68 OFFCURVE",
"705 68 CURVE SMOOTH",
"637 68 OFFCURVE",
"594 82 OFFCURVE",
"563 121 CURVE",
"622 136 OFFCURVE",
"657 176 OFFCURVE",
"657 248 CURVE SMOOTH",
"657 273 OFFCURVE",
"650 296 OFFCURVE",
"637 316 CURVE SMOOTH",
"610 356 OFFCURVE",
"565 381 OFFCURVE",
"520 381 CURVE SMOOTH",
"497 381 OFFCURVE",
"475 375 OFFCURVE",
"453 364 CURVE SMOOTH",
"408 340 OFFCURVE",
"375 296 OFFCURVE",
"375 231 CURVE SMOOTH",
"375 166 OFFCURVE",
"403 98 OFFCURVE",
"457 43 CURVE SMOOTH",
"511 -12 OFFCURVE",
"590 -47 OFFCURVE",
"694 -47 CURVE SMOOTH",
"737 -47 OFFCURVE",
"780 -42 OFFCURVE",
"822 -32 CURVE SMOOTH",
"905 -12 OFFCURVE",
"966 43 OFFCURVE",
"1014 102 CURVE SMOOTH",
"1061 161 OFFCURVE",
"1106 234 OFFCURVE",
"1143 307 CURVE SMOOTH",
"1206 434 OFFCURVE",
"1262 555 OFFCURVE",
"1317 669 CURVE SMOOTH",
"1426 896 OFFCURVE",
"1469 986 OFFCURVE",
"1526 1114 CURVE SMOOTH",
"1568 1209 OFFCURVE",
"1620 1266 OFFCURVE",
"1657 1301 CURVE SMOOTH",
"1694 1336 OFFCURVE",
"1743 1351 OFFCURVE",
"1831 1356 CURVE",
"1831 1456 LINE",
"1255 1456 LINE",
"1255 1352 LINE",
"1322 1348 OFFCURVE",
"1370 1339 OFFCURVE",
"1399 1325 CURVE SMOOTH",
"1432 1309 OFFCURVE",
"1456 1287 OFFCURVE",
"1456 1248 CURVE SMOOTH",
"1456 1227 OFFCURVE",
"1422 1156 OFFCURVE",
"1406 1120 CURVE SMOOTH",
"1214 702 LINE",
"1058 410 LINE"
);
}
);
vertWidth = 2048;
width = 2048;
}
);
unicode = 040E;
},
{
color = 4;
glyphname = "Dzhe-cy";
lastChange = "2022-11-08 20:13:27 +0000";
layers = (
{
background = {
paths = (
{
closed = 1;
nodes = (
"1864 0 LINE",
"1864 100 LINE",
"1769 101 OFFCURVE",
"1723 112 OFFCURVE",
"1686 143 CURVE SMOOTH",
"1675 152 OFFCURVE",
"1666 162 OFFCURVE",
"1661 173 CURVE SMOOTH",
"1650 197 OFFCURVE",
"1647 231 OFFCURVE",
"1647 294 CURVE SMOOTH",
"1647 1261 LINE SMOOTH",
"1647 1292 OFFCURVE",
"1648 1317 OFFCURVE",
"1650 1336 CURVE SMOOTH",
"1654 1374 OFFCURVE",
"1663 1394 OFFCURVE",
"1686 1413 CURVE SMOOTH",
"1723 1442 OFFCURVE",
"1769 1453 OFFCURVE",
"1864 1456 CURVE",
"1864 1556 LINE",
"1135 1556 LINE",
"1135 1456 LINE",
"1198 1455 OFFCURVE",
"1231 1449 OFFCURVE",
"1255 1437 CURVE SMOOTH",
"1280 1425 OFFCURVE",
"1307 1405 OFFCURVE",
"1318 1382 CURVE SMOOTH",
"1330 1359 OFFCURVE",
"1333 1324 OFFCURVE",
"1333 1261 CURVE SMOOTH",
"1333 321 LINE SMOOTH",
"1333 290 OFFCURVE",
"1332 264 OFFCURVE",
"1330 245 CURVE SMOOTH",
"1326 207 OFFCURVE",
"1315 187 OFFCURVE",
"1294 170 CURVE SMOOTH",
"1255 139 OFFCURVE",
"1209 126 OFFCURVE",
"1116 126 CURVE SMOOTH",
"932 126 LINE SMOOTH",
"837 126 OFFCURVE",
"793 139 OFFCURVE",
"754 170 CURVE SMOOTH",
"743 179 OFFCURVE",
"734 189 OFFCURVE",
"729 200 CURVE SMOOTH",
"718 223 OFFCURVE",
"715 258 OFFCURVE",
"715 321 CURVE SMOOTH",
"715 1261 LINE SMOOTH",
"715 1324 OFFCURVE",
"718 1359 OFFCURVE",
"729 1382 CURVE SMOOTH",
"740 1405 OFFCURVE",
"767 1425 OFFCURVE",
"792 1437 CURVE SMOOTH",
"817 1449 OFFCURVE",
"850 1455 OFFCURVE",
"913 1456 CURVE",
"913 1556 LINE",
"184 1556 LINE",
"184 1456 LINE",
"279 1453 OFFCURVE",
"323 1442 OFFCURVE",
"362 1413 CURVE SMOOTH",
"373 1404 OFFCURVE",
"381 1393 OFFCURVE",
"386 1382 CURVE SMOOTH",
"398 1359 OFFCURVE",
"401 1324 OFFCURVE",
"401 1261 CURVE SMOOTH",
"401 294 LINE SMOOTH",
"401 263 OFFCURVE",
"400 238 OFFCURVE",
"398 219 CURVE SMOOTH",
"394 182 OFFCURVE",
"383 160 OFFCURVE",
"362 143 CURVE SMOOTH",
"323 112 OFFCURVE",
"279 101 OFFCURVE",
"184 100 CURVE",
"184 0 LINE"
);
},
{
closed = 1;
nodes = (
"1007 106 LINE",
"658 0 LINE",
"836 0 OFFCURVE",
"943 -68 OFFCURVE",
"975 -244 CURVE",
"1076 -244 LINE",
"1107 -71 OFFCURVE",
"1213 0 OFFCURVE",
"1393 0 CURVE",
"1044 106 LINE"
);
}
);
};
layerId = "4E782664-D0D5-4FED-AFC2-B9212141A2ED";
paths = (
{
closed = 1;
nodes = (
"1076 -244 LINE",
"1107 -71 OFFCURVE",
"1213 0 OFFCURVE",
"1393 0 CURVE SMOOTH",
"1864 0 LINE",
"1864 100 LINE",
"1769 101 OFFCURVE",
"1723 112 OFFCURVE",
"1686 143 CURVE SMOOTH",
"1675 152 OFFCURVE",
"1666 162 OFFCURVE",
"1661 173 CURVE SMOOTH",
"1650 197 OFFCURVE",
"1647 231 OFFCURVE",
"1647 294 CURVE SMOOTH",
"1647 1261 LINE SMOOTH",
"1647 1292 OFFCURVE",
"1648 1317 OFFCURVE",
"1650 1336 CURVE SMOOTH",
"1654 1374 OFFCURVE",
"1663 1394 OFFCURVE",
"1686 1413 CURVE SMOOTH",
"1723 1442 OFFCURVE",
"1769 1453 OFFCURVE",
"1864 1456 CURVE",
"1864 1556 LINE",
"1135 1556 LINE",
"1135 1456 LINE",
"1198 1455 OFFCURVE",
"1231 1449 OFFCURVE",
"1255 1437 CURVE SMOOTH",
"1280 1425 OFFCURVE",
"1307 1405 OFFCURVE",
"1318 1382 CURVE SMOOTH",
"1330 1359 OFFCURVE",
"1333 1324 OFFCURVE",
"1333 1261 CURVE SMOOTH",
"1333 321 LINE SMOOTH",
"1333 290 OFFCURVE",
"1332 264 OFFCURVE",
"1330 245 CURVE SMOOTH",
"1326 207 OFFCURVE",
"1315 187 OFFCURVE",
"1294 170 CURVE SMOOTH",
"1255 139 OFFCURVE",
"1209 126 OFFCURVE",
"1116 126 CURVE SMOOTH",
"932 126 LINE SMOOTH",
"837 126 OFFCURVE",
"793 139 OFFCURVE",
"754 170 CURVE SMOOTH",
"743 179 OFFCURVE",
"734 189 OFFCURVE",
"729 200 CURVE SMOOTH",
"718 223 OFFCURVE",
"715 258 OFFCURVE",
"715 321 CURVE SMOOTH",
"715 1261 LINE SMOOTH",
"715 1324 OFFCURVE",
"718 1359 OFFCURVE",
"729 1382 CURVE SMOOTH",
"740 1405 OFFCURVE",
"767 1425 OFFCURVE",
"792 1437 CURVE SMOOTH",
"817 1449 OFFCURVE",
"850 1455 OFFCURVE",
"913 1456 CURVE",
"913 1556 LINE",
"184 1556 LINE",
"184 1456 LINE",
"279 1453 OFFCURVE",
"323 1442 OFFCURVE",
"362 1413 CURVE SMOOTH",
"373 1404 OFFCURVE",
"381 1393 OFFCURVE",
"386 1382 CURVE SMOOTH",
"398 1359 OFFCURVE",
"401 1324 OFFCURVE",
"401 1261 CURVE SMOOTH",
"401 294 LINE SMOOTH",
"401 263 OFFCURVE",
"400 238 OFFCURVE",
"398 219 CURVE SMOOTH",
"394 182 OFFCURVE",
"383 160 OFFCURVE",
"362 143 CURVE SMOOTH",
"323 112 OFFCURVE",
"279 101 OFFCURVE",
"184 100 CURVE",
"184 0 LINE",
"658 0 LINE SMOOTH",
"836 0 OFFCURVE",
"943 -68 OFFCURVE",
"975 -244 CURVE"
);
}
);
vertWidth = 2048;
width = 2048;
}
);
unicode = 040F;
},
{
color = 4;
glyphname = "Lje-cy";
lastChange = "2022-11-08 22:18:51 +0000";
layers = (
{
background = {
paths = (
{
closed = 1;
nodes = (
"380 1556 LINE",
"380 1456 LINE",
"472 1455 OFFCURVE",
"525 1442 OFFCURVE",
"556 1413 CURVE SMOOTH",
"589 1382 OFFCURVE",
"597 1335 OFFCURVE",
"597 1260 CURVE SMOOTH",
"597 1124 OFFCURVE",
"596 1000 OFFCURVE",
"593 888 CURVE SMOOTH",
"585 534 OFFCURVE",
"559 74 OFFCURVE",
"295 74 CURVE SMOOTH",
"224 74 OFFCURVE",
"189 92 OFFCURVE",
"162 135 CURVE",
"201 139 OFFCURVE",
"227 152 OFFCURVE",
"248 172 CURVE SMOOTH",
"272 199 OFFCURVE",
"280 231 OFFCURVE",
"280 262 CURVE SMOOTH",
"280 293 OFFCURVE",
"273 319 OFFCURVE",
"259 340 CURVE SMOOTH",
"231 381 OFFCURVE",
"187 401 OFFCURVE",
"151 401 CURVE SMOOTH",
"120 401 OFFCURVE",
"93 394 OFFCURVE",
"70 379 CURVE SMOOTH",
"25 350 OFFCURVE",
"0 301 OFFCURVE",
"0 252 CURVE SMOOTH",
"0 193 OFFCURVE",
"10 133 OFFCURVE",
"63 66 CURVE SMOOTH",
"121 -8 OFFCURVE",
"203 -47 OFFCURVE",
"299 -47 CURVE SMOOTH",
"700 -47 OFFCURVE",
"724 503 OFFCURVE",
"724 1249 CURVE SMOOTH",
"724 1325 OFFCURVE",
"736 1370 OFFCURVE",
"759 1395 CURVE SMOOTH",
"783 1422 OFFCURVE",
"820 1430 OFFCURVE",
"871 1430 CURVE SMOOTH",
"907 1430 LINE SMOOTH",
"995 1430 OFFCURVE",
"1028 1390 OFFCURVE",
"1028 1307 CURVE",
"1342 1307 LINE",
"1342 1362 OFFCURVE",
"1351 1400 OFFCURVE",
"1376 1421 CURVE SMOOTH",
"1401 1442 OFFCURVE",
"1451 1454 OFFCURVE",
"1524 1456 CURVE",
"1524 1556 LINE"
);
},
{
closed = 1;
nodes = (
"1028 242 LINE SMOOTH",
"1028 186 OFFCURVE",
"1023 152 OFFCURVE",
"996 131 CURVE SMOOTH",
"969 111 OFFCURVE",
"925 104 OFFCURVE",
"846 100 CURVE",
"846 0 LINE",
"1489 0 LINE SMOOTH",
"1810 0 OFFCURVE",
"2048 93 OFFCURVE",
"2048 416 CURVE SMOOTH",
"2048 778 OFFCURVE",
"1772 895 OFFCURVE",
"1445 895 CURVE SMOOTH",
"1342 895 LINE",
"1342 1488 LINE",
"1028 1488 LINE"
);
},
{
closed = 1;
nodes = (
"1342 776 LINE",
"1406 776 LINE SMOOTH",
"1568 776 OFFCURVE",
"1698 664 OFFCURVE",
"1698 414 CURVE SMOOTH",
"1698 224 OFFCURVE",
"1612 119 OFFCURVE",
"1492 119 CURVE SMOOTH",
"1466 119 LINE SMOOTH",
"1417 119 OFFCURVE",
"1391 131 OFFCURVE",
"1371 145 CURVE SMOOTH",
"1348 164 OFFCURVE",
"1342 197 OFFCURVE",
"1342 248 CURVE SMOOTH"
);
}
);
};
layerId = "4E782664-D0D5-4FED-AFC2-B9212141A2ED";
paths = (
{
closed = 1;
nodes = (
"1342 1307 LINE SMOOTH",
"1342 1362 OFFCURVE",
"1351 1400 OFFCURVE",
"1376 1421 CURVE SMOOTH",
"1401 1442 OFFCURVE",
"1451 1454 OFFCURVE",
"1524 1456 CURVE",
"1524 1556 LINE",
"380 1556 LINE",
"380 1456 LINE",
"472 1455 OFFCURVE",
"525 1442 OFFCURVE",
"556 1413 CURVE SMOOTH",
"589 1382 OFFCURVE",
"597 1335 OFFCURVE",
"597 1260 CURVE SMOOTH",
"597 1124 OFFCURVE",
"596 1000 OFFCURVE",
"593 888 CURVE SMOOTH",
"585 534 OFFCURVE",
"559 74 OFFCURVE",
"295 74 CURVE SMOOTH",
"224 74 OFFCURVE",
"189 92 OFFCURVE",
"162 135 CURVE",
"201 139 OFFCURVE",
"227 152 OFFCURVE",
"248 172 CURVE SMOOTH",
"272 199 OFFCURVE",
"280 231 OFFCURVE",
"280 262 CURVE SMOOTH",
"280 293 OFFCURVE",
"273 319 OFFCURVE",
"259 340 CURVE SMOOTH",
"231 381 OFFCURVE",
"187 401 OFFCURVE",
"151 401 CURVE SMOOTH",
"120 401 OFFCURVE",
"93 394 OFFCURVE",
"70 379 CURVE SMOOTH",
"25 350 OFFCURVE",
"0 301 OFFCURVE",
"0 252 CURVE SMOOTH",
"0 193 OFFCURVE",
"10 133 OFFCURVE",
"63 66 CURVE SMOOTH",
"121 -8 OFFCURVE",
"203 -47 OFFCURVE",
"299 -47 CURVE SMOOTH",
"700 -47 OFFCURVE",
"724 503 OFFCURVE",
"724 1249 CURVE SMOOTH",
"724 1325 OFFCURVE",
"736 1370 OFFCURVE",
"759 1395 CURVE SMOOTH",
"783 1422 OFFCURVE",
"820 1430 OFFCURVE",
"871 1430 CURVE SMOOTH",
"907 1430 LINE SMOOTH",
"995 1430 OFFCURVE",
"1028 1390 OFFCURVE",
"1028 1307 CURVE SMOOTH",
"1028 242 LINE SMOOTH",
"1028 186 OFFCURVE",
"1023 152 OFFCURVE",
"996 131 CURVE SMOOTH",
"969 111 OFFCURVE",
"925 104 OFFCURVE",
"846 100 CURVE",
"846 0 LINE",
"1489 0 LINE SMOOTH",
"1810 0 OFFCURVE",
"2048 93 OFFCURVE",
"2048 416 CURVE SMOOTH",
"2048 778 OFFCURVE",
"1772 895 OFFCURVE",
"1445 895 CURVE SMOOTH",
"1342 895 LINE"
);
},
{
closed = 1;
nodes = (
"1417 119 OFFCURVE",
"1391 131 OFFCURVE",
"1371 145 CURVE SMOOTH",
"1348 164 OFFCURVE",
"1342 197 OFFCURVE",
"1342 248 CURVE SMOOTH",
"1342 776 LINE",
"1406 776 LINE SMOOTH",
"1568 776 OFFCURVE",
"1698 664 OFFCURVE",
"1698 414 CURVE SMOOTH",
"1698 224 OFFCURVE",
"1612 119 OFFCURVE",
"1492 119 CURVE SMOOTH",
"1466 119 LINE SMOOTH"
);
}
);
vertWidth = 2048;
width = 2048;
}
);
unicode = 0409;
},
{
color = 4;
glyphname = "Nje-cy";
lastChange = "2022-11-08 22:18:45 +0000";
layers = (
{
layerId = "4E782664-D0D5-4FED-AFC2-B9212141A2ED";
paths = (
{
closed = 1;
nodes = (
"1302 1262 LINE SMOOTH",
"1302 1293 OFFCURVE",
"1303 1318 OFFCURVE",
"1305 1337 CURVE SMOOTH",
"1309 1374 OFFCURVE",
"1320 1396 OFFCURVE",
"1341 1413 CURVE SMOOTH",
"1380 1444 OFFCURVE",
"1424 1455 OFFCURVE",
"1519 1456 CURVE",
"1519 1556 LINE",
"810 1556 LINE",
"810 1456 LINE",
"863 1455 OFFCURVE",
"889 1448 OFFCURVE",
"911 1438 CURVE SMOOTH",
"936 1426 OFFCURVE",
"963 1406 OFFCURVE",
"974 1383 CURVE SMOOTH",
"985 1359 OFFCURVE",
"988 1325 OFFCURVE",
"988 1262 CURVE SMOOTH",
"988 895 LINE",
"565 895 LINE",
"565 1262 LINE SMOOTH",
"565 1325 OFFCURVE",
"568 1359 OFFCURVE",
"580 1383 CURVE SMOOTH",
"591 1406 OFFCURVE",
"618 1426 OFFCURVE",
"643 1438 CURVE SMOOTH",
"664 1448 OFFCURVE",
"691 1455 OFFCURVE",
"743 1456 CURVE",
"743 1556 LINE",
"34 1556 LINE",
"34 1456 LINE",
"129 1455 OFFCURVE",
"175 1444 OFFCURVE",
"212 1413 CURVE SMOOTH",
"223 1404 OFFCURVE",
"232 1394 OFFCURVE",
"237 1383 CURVE SMOOTH",
"248 1359 OFFCURVE",
"251 1325 OFFCURVE",
"251 1262 CURVE SMOOTH",
"251 295 LINE SMOOTH",
"251 264 OFFCURVE",
"250 239 OFFCURVE",
"248 220 CURVE SMOOTH",
"244 182 OFFCURVE",
"235 162 OFFCURVE",
"212 143 CURVE SMOOTH",
"175 114 OFFCURVE",
"129 103 OFFCURVE",
"34 100 CURVE",
"34 0 LINE",
"743 0 LINE",
"743 100 LINE",
"691 101 OFFCURVE",
"664 109 OFFCURVE",
"643 119 CURVE SMOOTH",
"618 131 OFFCURVE",
"591 151 OFFCURVE",
"580 174 CURVE SMOOTH",
"568 197 OFFCURVE",
"565 232 OFFCURVE",
"565 295 CURVE SMOOTH",
"565 768 LINE",
"988 768 LINE",
"988 242 LINE SMOOTH",
"988 186 OFFCURVE",
"983 152 OFFCURVE",
"956 131 CURVE SMOOTH",
"931 113 OFFCURVE",
"894 104 OFFCURVE",
"826 100 CURVE",
"826 0 LINE",
"1489 0 LINE SMOOTH",
"1810 0 OFFCURVE",
"2048 93 OFFCURVE",
"2048 416 CURVE SMOOTH",
"2048 778 OFFCURVE",
"1772 895 OFFCURVE",
"1445 895 CURVE SMOOTH",
"1302 895 LINE"
);
},
{
closed = 1;
nodes = (
"1377 119 OFFCURVE",
"1351 131 OFFCURVE",
"1331 145 CURVE SMOOTH",
"1308 164 OFFCURVE",
"1302 197 OFFCURVE",
"1302 248 CURVE SMOOTH",
"1302 776 LINE",
"1406 776 LINE SMOOTH",
"1568 776 OFFCURVE",
"1698 664 OFFCURVE",
"1698 414 CURVE SMOOTH",
"1698 224 OFFCURVE",
"1612 119 OFFCURVE",
"1492 119 CURVE SMOOTH",
"1426 119 LINE SMOOTH"
);
}
);
vertWidth = 2048;
width = 2048;
}
);
unicode = 040A;
},
{
color = 4;
glyphname = "Dze-cy";
lastChange = "2022-11-08 20:20:45 +0000";
layers = (
{
layerId = "4E782664-D0D5-4FED-AFC2-B9212141A2ED";
paths = (
{
closed = 1;
nodes = (
"791 1599 OFFCURVE",
"641 1548 OFFCURVE",
"545 1453 CURVE SMOOTH",
"460 1370 OFFCURVE",
"422 1269 OFFCURVE",
"422 1169 CURVE SMOOTH",
"422 1121 OFFCURVE",
"427 1080 OFFCURVE",
"438 1045 CURVE SMOOTH",
"458 975 OFFCURVE",
"497 925 OFFCURVE",
"545 884 CURVE SMOOTH",
"610 829 OFFCURVE",
"703 765 OFFCURVE",
"848 702 CURVE SMOOTH",
"965 651 LINE SMOOTH",
"1012 630 OFFCURVE",
"1056 610 OFFCURVE",
"1098 589 CURVE SMOOTH",
"1182 547 OFFCURVE",
"1249 510 OFFCURVE",
"1278 489 CURVE SMOOTH",
"1341 446 OFFCURVE",
"1360 386 OFFCURVE",
"1360 323 CURVE SMOOTH",
"1360 251 OFFCURVE",
"1341 190 OFFCURVE",
"1264 139 CURVE SMOOTH",
"1211 104 OFFCURVE",
"1145 79 OFFCURVE",
"1036 79 CURVE SMOOTH",
"987 79 OFFCURVE",
"939 85 OFFCURVE",
"892 98 CURVE SMOOTH",
"796 123 OFFCURVE",
"714 172 OFFCURVE",
"659 237 CURVE SMOOTH",
"584 328 OFFCURVE",
"524 436 OFFCURVE",
"500 581 CURVE",
"399 581 LINE",
"399 -23 LINE",
"504 -23 LINE",
"505 -1 OFFCURVE",
"508 19 OFFCURVE",
"515 36 CURVE SMOOTH",
"528 70 OFFCURVE",
"548 90 OFFCURVE",
"561 90 CURVE SMOOTH",
"584 90 OFFCURVE",
"598 81 OFFCURVE",
"639 57 CURVE SMOOTH",
"672 37 OFFCURVE",
"708 20 OFFCURVE",
"747 6 CURVE SMOOTH",
"825 -23 OFFCURVE",
"926 -40 OFFCURVE",
"1067 -40 CURVE SMOOTH",
"1160 -40 OFFCURVE",
"1264 -32 OFFCURVE",
"1363 -3 CURVE SMOOTH",
"1462 25 OFFCURVE",
"1547 85 OFFCURVE",
"1599 150 CURVE SMOOTH",
"1650 214 OFFCURVE",
"1673 294 OFFCURVE",
"1673 405 CURVE SMOOTH",
"1673 454 OFFCURVE",
"1667 497 OFFCURVE",
"1655 536 CURVE SMOOTH",
"1631 612 OFFCURVE",
"1591 671 OFFCURVE",
"1552 708 CURVE SMOOTH",
"1463 799 OFFCURVE",
"1319 860 OFFCURVE",
"1159 927 CURVE SMOOTH",
"1047 974 LINE SMOOTH",
"934 1021 OFFCURVE",
"864 1064 OFFCURVE",
"809 1101 CURVE SMOOTH",
"754 1138 OFFCURVE",
"733 1185 OFFCURVE",
"733 1253 CURVE SMOOTH",
"733 1318 OFFCURVE",
"752 1374 OFFCURVE",
"809 1421 CURVE SMOOTH",
"864 1466 OFFCURVE",
"933 1484 OFFCURVE",
"1018 1484 CURVE SMOOTH",
"1067 1484 OFFCURVE",
"1116 1472 OFFCURVE",
"1163 1449 CURVE SMOOTH",
"1257 1401 OFFCURVE",
"1310 1341 OFFCURVE",
"1353 1277 CURVE SMOOTH",
"1396 1213 OFFCURVE",
"1433 1141 OFFCURVE",
"1452 1081 CURVE",
"1544 1081 LINE",
"1544 1572 LINE",
"1432 1572 LINE",
"1429 1549 OFFCURVE",
"1425 1530 OFFCURVE",
"1419 1517 CURVE SMOOTH",
"1412 1503 OFFCURVE",
"1404 1496 OFFCURVE",
"1395 1496 CURVE SMOOTH",
"1380 1496 OFFCURVE",
"1368 1499 OFFCURVE",
"1339 1511 CURVE SMOOTH",
"1218 1564 OFFCURVE",
"1116 1599 OFFCURVE",
"991 1599 CURVE SMOOTH"
);
}
);
vertWidth = 2048;
width = 2048;
}
);
unicode = 0405;
},
{
color = 4;
glyphname = "E-cy";
lastChange = "2022-11-08 20:21:25 +0000";
layers = (
{
background = {
paths = (
{
closed = 1;
nodes = (
"619 676 OFFCURVE",
"644 687 OFFCURVE",
"692 687 CURVE SMOOTH",
"777 687 OFFCURVE",
"876 656 OFFCURVE",
"971 611 CURVE SMOOTH",
"1068 564 OFFCURVE",
"1158 533 OFFCURVE",
"1237 533 CURVE SMOOTH",
"1281 533 OFFCURVE",
"1324 544 OFFCURVE",
"1365 566 CURVE SMOOTH",
"1449 611 OFFCURVE",
"1522 690 OFFCURVE",
"1575 789 CURVE",
"1550 840 LINE",
"1493 812 OFFCURVE",
"1437 785 OFFCURVE",
"1364 785 CURVE SMOOTH",
"1293 785 OFFCURVE",
"1204 822 OFFCURVE",
"1071 885 CURVE SMOOTH",
"988 924 OFFCURVE",
"886 953 OFFCURVE",
"813 949 CURVE SMOOTH",
"745 945 OFFCURVE",
"678 911 OFFCURVE",
"585 813 CURVE",
"595 659 LINE"
);
},
{
closed = 1;
nodes = (
"971 1599 OFFCURVE",
"877 1585 OFFCURVE",
"794 1556 CURVE SMOOTH",
"626 1499 OFFCURVE",
"499 1394 OFFCURVE",
"415 1255 CURVE SMOOTH",
"330 1115 OFFCURVE",
"287 946 OFFCURVE",
"287 765 CURVE SMOOTH",
"287 666 OFFCURVE",
"300 574 OFFCURVE",
"326 491 CURVE SMOOTH",
"377 323 OFFCURVE",
"472 192 OFFCURVE",
"600 101 CURVE SMOOTH",
"728 9 OFFCURVE",
"885 -40 OFFCURVE",
"1057 -40 CURVE SMOOTH",
"1138 -40 OFFCURVE",
"1212 -31 OFFCURVE",
"1279 -12 CURVE SMOOTH",
"1411 24 OFFCURVE",
"1516 90 OFFCURVE",
"1595 172 CURVE SMOOTH",
"1674 254 OFFCURVE",
"1728 348 OFFCURVE",
"1757 440 CURVE",
"1663 493 LINE",
"1635 404 OFFCURVE",
"1579 313 OFFCURVE",
"1498 242 CURVE SMOOTH",
"1417 170 OFFCURVE",
"1307 124 OFFCURVE",
"1171 124 CURVE SMOOTH",
"1015 124 OFFCURVE",
"884 185 OFFCURVE",
"789 298 CURVE SMOOTH",
"693 411 OFFCURVE",
"639 574 OFFCURVE",
"639 778 CURVE SMOOTH",
"639 997 OFFCURVE",
"690 1170 OFFCURVE",
"775 1290 CURVE SMOOTH",
"860 1410 OFFCURVE",
"975 1474 OFFCURVE",
"1100 1474 CURVE SMOOTH",
"1153 1474 OFFCURVE",
"1201 1467 OFFCURVE",
"1242 1454 CURVE SMOOTH",
"1325 1426 OFFCURVE",
"1389 1376 OFFCURVE",
"1444 1316 CURVE SMOOTH",
"1507 1247 OFFCURVE",
"1552 1154 OFFCURVE",
"1577 1058 CURVE",
"1673 1058 LINE",
"1673 1574 LINE",
"1577 1574 LINE",
"1577 1547 OFFCURVE",
"1575 1528 OFFCURVE",
"1570 1516 CURVE SMOOTH",
"1561 1492 OFFCURVE",
"1545 1488 OFFCURVE",
"1530 1488 CURVE SMOOTH",
"1511 1488 OFFCURVE",
"1491 1494 OFFCURVE",
"1448 1513 CURVE SMOOTH",
"1329 1564 OFFCURVE",
"1210 1599 OFFCURVE",
"1075 1599 CURVE SMOOTH"
);
}
);
};
layerId = "4E782664-D0D5-4FED-AFC2-B9212141A2ED";
paths = (
{
closed = 1;
nodes = (
"1635 404 OFFCURVE",
"1579 313 OFFCURVE",
"1498 242 CURVE SMOOTH",
"1417 170 OFFCURVE",
"1307 124 OFFCURVE",
"1171 124 CURVE SMOOTH",
"1015 124 OFFCURVE",
"884 185 OFFCURVE",
"789 298 CURVE SMOOTH",
"709 393 OFFCURVE",
"658 522 OFFCURVE",
"643 682 CURVE",
"657 685 OFFCURVE",
"672 687 OFFCURVE",
"692 687 CURVE SMOOTH",
"777 687 OFFCURVE",
"876 656 OFFCURVE",
"971 611 CURVE SMOOTH",
"1068 564 OFFCURVE",
"1158 533 OFFCURVE",
"1237 533 CURVE SMOOTH",
"1281 533 OFFCURVE",
"1324 544 OFFCURVE",
"1365 566 CURVE SMOOTH",
"1449 611 OFFCURVE",
"1522 690 OFFCURVE",
"1575 789 CURVE",
"1550 840 LINE",
"1493 812 OFFCURVE",
"1437 785 OFFCURVE",
"1364 785 CURVE SMOOTH",
"1293 785 OFFCURVE",
"1204 822 OFFCURVE",
"1071 885 CURVE SMOOTH",
"988 924 OFFCURVE",
"886 953 OFFCURVE",
"813 949 CURVE SMOOTH",
"760 946 OFFCURVE",
"707 924 OFFCURVE",
"642 868 CURVE",
"654 1045 OFFCURVE",
"702 1187 OFFCURVE",
"775 1290 CURVE SMOOTH",
"860 1410 OFFCURVE",
"975 1474 OFFCURVE",
"1100 1474 CURVE SMOOTH",
"1153 1474 OFFCURVE",
"1201 1467 OFFCURVE",
"1242 1454 CURVE SMOOTH",
"1325 1426 OFFCURVE",
"1389 1376 OFFCURVE",
"1444 1316 CURVE SMOOTH",
"1507 1247 OFFCURVE",
"1552 1154 OFFCURVE",
"1577 1058 CURVE",
"1673 1058 LINE",
"1673 1574 LINE",
"1577 1574 LINE",
"1577 1547 OFFCURVE",
"1575 1528 OFFCURVE",
"1570 1516 CURVE SMOOTH",
"1561 1492 OFFCURVE",
"1545 1488 OFFCURVE",
"1530 1488 CURVE SMOOTH",
"1511 1488 OFFCURVE",
"1491 1494 OFFCURVE",
"1448 1513 CURVE SMOOTH",
"1329 1564 OFFCURVE",
"1210 1599 OFFCURVE",
"1075 1599 CURVE SMOOTH",
"971 1599 OFFCURVE",
"877 1585 OFFCURVE",
"794 1556 CURVE SMOOTH",
"626 1499 OFFCURVE",
"499 1394 OFFCURVE",
"415 1255 CURVE SMOOTH",
"330 1115 OFFCURVE",
"287 946 OFFCURVE",
"287 765 CURVE SMOOTH",
"287 666 OFFCURVE",
"300 574 OFFCURVE",
"326 491 CURVE SMOOTH",
"377 323 OFFCURVE",
"472 192 OFFCURVE",
"600 101 CURVE SMOOTH",
"728 9 OFFCURVE",
"885 -40 OFFCURVE",
"1057 -40 CURVE SMOOTH",
"1138 -40 OFFCURVE",
"1212 -31 OFFCURVE",
"1279 -12 CURVE SMOOTH",
"1411 24 OFFCURVE",
"1516 90 OFFCURVE",
"1595 172 CURVE SMOOTH",
"1674 254 OFFCURVE",
"1728 348 OFFCURVE",
"1757 440 CURVE",
"1663 493 LINE"
);
}
);
vertWidth = 2048;
width = 2048;
}
);
unicode = 0404;
},
{
color = 4;
glyphname = "I-cy";
lastChange = "2022-11-08 20:21:15 +0000";
layers = (
{
layerId = "4E782664-D0D5-4FED-AFC2-B9212141A2ED";
paths = (
{
closed = 1;
nodes = (
"596 1556 LINE",
"596 1456 LINE",
"659 1455 OFFCURVE",
"721 1450 OFFCURVE",
"770 1438 CURVE SMOOTH",
"818 1426 OFFCURVE",
"839 1406 OFFCURVE",
"850 1383 CURVE SMOOTH",
"861 1359 OFFCURVE",
"864 1325 OFFCURVE",
"864 1262 CURVE SMOOTH",
"864 299 LINE SMOOTH",
"864 236 OFFCURVE",
"861 201 OFFCURVE",
"850 178 CURVE SMOOTH",
"839 155 OFFCURVE",
"819 135 OFFCURVE",
"771 122 CURVE SMOOTH",
"722 109 OFFCURVE",
"659 101 OFFCURVE",
"596 100 CURVE",
"596 0 LINE",
"1452 0 LINE",
"1452 100 LINE",
"1389 101 OFFCURVE",
"1326 109 OFFCURVE",
"1278 122 CURVE SMOOTH",
"1230 135 OFFCURVE",
"1210 155 OFFCURVE",
"1199 178 CURVE SMOOTH",
"1187 201 OFFCURVE",
"1184 236 OFFCURVE",
"1184 299 CURVE SMOOTH",
"1184 1262 LINE SMOOTH",
"1184 1325 OFFCURVE",
"1187 1359 OFFCURVE",
"1199 1383 CURVE SMOOTH",
"1210 1406 OFFCURVE",
"1231 1426 OFFCURVE",
"1279 1438 CURVE SMOOTH",
"1327 1450 OFFCURVE",
"1389 1455 OFFCURVE",
"1452 1456 CURVE",
"1452 1556 LINE"
);
}
);
vertWidth = 2048;
width = 2048;
}
);
unicode = 0406;
},
{
color = 4;
glyphname = "Yi-cy";
lastChange = "2022-11-08 20:22:03 +0000";
layers = (
{
layerId = "4E782664-D0D5-4FED-AFC2-B9212141A2ED";
paths = (
{
closed = 1;
nodes = (
"596 1456 LINE",
"596 1356 LINE",
"659 1355 OFFCURVE",
"721 1350 OFFCURVE",
"770 1338 CURVE SMOOTH",
"818 1326 OFFCURVE",
"839 1306 OFFCURVE",
"850 1283 CURVE SMOOTH",
"861 1259 OFFCURVE",
"864 1225 OFFCURVE",
"864 1162 CURVE SMOOTH",
"864 299 LINE SMOOTH",
"864 236 OFFCURVE",
"861 201 OFFCURVE",
"850 178 CURVE SMOOTH",
"839 155 OFFCURVE",
"819 135 OFFCURVE",
"771 122 CURVE SMOOTH",
"722 109 OFFCURVE",
"659 101 OFFCURVE",
"596 100 CURVE",
"596 0 LINE",
"1452 0 LINE",
"1452 100 LINE",
"1389 101 OFFCURVE",
"1326 109 OFFCURVE",
"1278 122 CURVE SMOOTH",
"1230 135 OFFCURVE",
"1210 155 OFFCURVE",
"1199 178 CURVE SMOOTH",
"1187 201 OFFCURVE",
"1184 236 OFFCURVE",
"1184 299 CURVE SMOOTH",
"1184 1162 LINE SMOOTH",
"1184 1225 OFFCURVE",
"1187 1259 OFFCURVE",
"1199 1283 CURVE SMOOTH",
"1210 1306 OFFCURVE",
"1231 1326 OFFCURVE",
"1279 1338 CURVE SMOOTH",
"1327 1350 OFFCURVE",
"1389 1355 OFFCURVE",
"1452 1356 CURVE",
"1452 1456 LINE"
);
},
{
closed = 1;
nodes = (
"763 1800 OFFCURVE",
"739 1794 OFFCURVE",
"717 1781 CURVE SMOOTH",
"673 1755 OFFCURVE",
"645 1709 OFFCURVE",
"645 1657 CURVE SMOOTH",
"645 1631 OFFCURVE",
"652 1607 OFFCURVE",
"665 1586 CURVE SMOOTH",
"691 1542 OFFCURVE",
"737 1513 OFFCURVE",
"788 1513 CURVE SMOOTH",
"814 1513 OFFCURVE",
"838 1520 OFFCURVE",
"860 1533 CURVE SMOOTH",
"904 1560 OFFCURVE",
"932 1605 OFFCURVE",
"932 1657 CURVE SMOOTH",
"932 1683 OFFCURVE",
"926 1707 OFFCURVE",
"913 1729 CURVE SMOOTH",
"887 1772 OFFCURVE",
"840 1800 OFFCURVE",
"788 1800 CURVE SMOOTH"
);
},
{
closed = 1;
nodes = (
"1234 1800 OFFCURVE",
"1210 1794 OFFCURVE",
"1189 1781 CURVE SMOOTH",
"1144 1755 OFFCURVE",
"1116 1709 OFFCURVE",
"1116 1657 CURVE SMOOTH",
"1116 1631 OFFCURVE",
"1123 1607 OFFCURVE",
"1136 1586 CURVE SMOOTH",
"1163 1542 OFFCURVE",
"1208 1513 OFFCURVE",
"1260 1513 CURVE SMOOTH",
"1286 1513 OFFCURVE",
"1310 1520 OFFCURVE",
"1332 1533 CURVE SMOOTH",
"1375 1560 OFFCURVE",
"1403 1605 OFFCURVE",
"1403 1657 CURVE SMOOTH",
"1403 1683 OFFCURVE",
"1397 1707 OFFCURVE",
"1384 1729 CURVE SMOOTH",
"1358 1772 OFFCURVE",
"1312 1800 OFFCURVE",
"1260 1800 CURVE SMOOTH"
);
}
);
vertWidth = 2048;
width = 2048;
}
);
unicode = 0407;
},
{
color = 4;
glyphname = "Je-cy";
lastChange = "2022-11-08 20:22:34 +0000";
layers = (
{
layerId = "4E782664-D0D5-4FED-AFC2-B9212141A2ED";
paths = (
{
closed = 1;
nodes = (
"809 1556 LINE",
"809 1456 LINE",
"926 1455 OFFCURVE",
"981 1444 OFFCURVE",
"1020 1413 CURVE SMOOTH",
"1031 1404 OFFCURVE",
"1040 1394 OFFCURVE",
"1045 1383 CURVE SMOOTH",
"1056 1359 OFFCURVE",
"1059 1325 OFFCURVE",
"1059 1262 CURVE SMOOTH",
"1059 487 LINE SMOOTH",
"1059 343 OFFCURVE",
"1049 255 OFFCURVE",
"1033 200 CURVE SMOOTH",
"1016 145 OFFCURVE",
"993 112 OFFCURVE",
"953 92 CURVE SMOOTH",
"912 72 OFFCURVE",
"866 66 OFFCURVE",
"834 66 CURVE SMOOTH",
"804 66 OFFCURVE",
"773 70 OFFCURVE",
"742 79 CURVE SMOOTH",
"678 96 OFFCURVE",
"624 129 OFFCURVE",
"596 176 CURVE",
"647 188 OFFCURVE",
"696 240 OFFCURVE",
"696 311 CURVE SMOOTH",
"696 340 OFFCURVE",
"689 368 OFFCURVE",
"675 393 CURVE SMOOTH",
"646 444 OFFCURVE",
"595 477 OFFCURVE",
"535 477 CURVE SMOOTH",
"504 477 OFFCURVE",
"477 470 OFFCURVE",
"452 455 CURVE SMOOTH",
"402 426 OFFCURVE",
"371 372 OFFCURVE",
"371 303 CURVE SMOOTH",
"371 253 OFFCURVE",
"384 209 OFFCURVE",
"410 170 CURVE SMOOTH",
"462 92 OFFCURVE",
"529 44 OFFCURVE",
"601 9 CURVE SMOOTH",
"672 -27 OFFCURVE",
"766 -51 OFFCURVE",
"885 -51 CURVE SMOOTH",
"1092 -51 OFFCURVE",
"1233 20 OFFCURVE",
"1305 139 CURVE SMOOTH",
"1321 165 OFFCURVE",
"1334 194 OFFCURVE",
"1345 227 CURVE SMOOTH",
"1365 292 OFFCURVE",
"1376 380 OFFCURVE",
"1376 504 CURVE SMOOTH",
"1376 1262 LINE SMOOTH",
"1376 1293 OFFCURVE",
"1377 1318 OFFCURVE",
"1379 1337 CURVE SMOOTH",
"1383 1374 OFFCURVE",
"1394 1396 OFFCURVE",
"1415 1413 CURVE SMOOTH",
"1452 1444 OFFCURVE",
"1509 1455 OFFCURVE",
"1593 1456 CURVE",
"1593 1556 LINE"
);
}
);
vertWidth = 2048;
width = 2048;
}
);
unicode = 0408;
},
{
color = 4;
glyphname = "Tshe-cy";
lastChange = "2022-11-08 20:23:55 +0000";
layers = (
{
background = {
paths = (
{
closed = 1;
nodes = (
"162 1556 LINE",
"129 1010 LINE",
"219 1010 LINE",
"264 1240 OFFCURVE",
"422 1430 OFFCURVE",
"633 1430 CURVE SMOOTH",
"636 1430 LINE",
"636 295 LINE SMOOTH",
"636 264 OFFCURVE",
"635 239 OFFCURVE",
"633 220 CURVE SMOOTH",
"629 182 OFFCURVE",
"620 162 OFFCURVE",
"597 143 CURVE SMOOTH",
"558 114 OFFCURVE",
"504 103 OFFCURVE",
"401 100 CURVE",
"401 0 LINE",
"1187 0 LINE",
"1187 100 LINE",
"1086 103 OFFCURVE",
"1030 114 OFFCURVE",
"991 143 CURVE SMOOTH",
"980 152 OFFCURVE",
"972 163 OFFCURVE",
"967 174 CURVE SMOOTH",
"955 197 OFFCURVE",
"952 232 OFFCURVE",
"952 295 CURVE SMOOTH",
"952 1430 LINE",
"1075 1430 LINE SMOOTH",
"1278 1430 OFFCURVE",
"1434 1278 OFFCURVE",
"1479 1090 CURVE",
"1569 1090 LINE",
"1546 1556 LINE"
);
},
{
closed = 1;
nodes = (
"961 619 OFFCURVE",
"984 659 OFFCURVE",
"1019 693 CURVE SMOOTH",
"1079 752 OFFCURVE",
"1159 787 OFFCURVE",
"1230 787 CURVE SMOOTH",
"1275 787 OFFCURVE",
"1322 776 OFFCURVE",
"1365 735 CURVE SMOOTH",
"1406 698 OFFCURVE",
"1431 627 OFFCURVE",
"1431 500 CURVE SMOOTH",
"1431 268 LINE SMOOTH",
"1431 222 OFFCURVE",
"1429 189 OFFCURVE",
"1424 169 CURVE SMOOTH",
"1419 148 OFFCURVE",
"1407 133 OFFCURVE",
"1390 123 CURVE SMOOTH",
"1357 104 OFFCURVE",
"1314 96 OFFCURVE",
"1281 96 CURVE",
"1281 0 LINE",
"1912 0 LINE",
"1912 96 LINE",
"1845 96 OFFCURVE",
"1800 106 OFFCURVE",
"1769 123 CURVE SMOOTH",
"1732 143 OFFCURVE",
"1726 176 OFFCURVE",
"1726 268 CURVE SMOOTH",
"1726 555 LINE SMOOTH",
"1726 706 OFFCURVE",
"1683 799 OFFCURVE",
"1626 862 CURVE SMOOTH",
"1553 942 OFFCURVE",
"1451 967 OFFCURVE",
"1359 967 CURVE SMOOTH",
"1177 967 OFFCURVE",
"1046 895 OFFCURVE",
"941 782 CURVE",
"947 572 LINE"
);
}
);
};
layerId = "4E782664-D0D5-4FED-AFC2-B9212141A2ED";
paths = (
{
closed = 1;
nodes = (
"1732 143 OFFCURVE",
"1726 176 OFFCURVE",
"1726 268 CURVE SMOOTH",
"1726 555 LINE SMOOTH",
"1726 706 OFFCURVE",
"1683 799 OFFCURVE",
"1626 862 CURVE SMOOTH",
"1553 942 OFFCURVE",
"1451 967 OFFCURVE",
"1359 967 CURVE SMOOTH",
"1183 967 OFFCURVE",
"1055 900 OFFCURVE",
"952 794 CURVE",
"952 1430 LINE",
"1075 1430 LINE SMOOTH",
"1278 1430 OFFCURVE",
"1434 1278 OFFCURVE",
"1479 1090 CURVE",
"1569 1090 LINE",
"1546 1556 LINE",
"162 1556 LINE",
"129 1010 LINE",
"219 1010 LINE",
"264 1240 OFFCURVE",
"422 1430 OFFCURVE",
"633 1430 CURVE SMOOTH",
"636 1430 LINE",
"636 295 LINE SMOOTH",
"636 264 OFFCURVE",
"635 239 OFFCURVE",
"633 220 CURVE SMOOTH",
"629 182 OFFCURVE",
"620 162 OFFCURVE",
"597 143 CURVE SMOOTH",
"558 114 OFFCURVE",
"504 103 OFFCURVE",
"401 100 CURVE",
"401 0 LINE",
"1187 0 LINE",
"1187 100 LINE",
"1086 103 OFFCURVE",
"1030 114 OFFCURVE",
"991 143 CURVE SMOOTH",
"980 152 OFFCURVE",
"972 163 OFFCURVE",
"967 174 CURVE SMOOTH",
"955 197 OFFCURVE",
"952 232 OFFCURVE",
"952 295 CURVE SMOOTH",
"952 587 LINE",
"966 628 OFFCURVE",
"988 663 OFFCURVE",
"1019 693 CURVE SMOOTH",
"1079 752 OFFCURVE",
"1159 787 OFFCURVE",
"1230 787 CURVE SMOOTH",
"1275 787 OFFCURVE",
"1322 776 OFFCURVE",
"1365 735 CURVE SMOOTH",
"1406 698 OFFCURVE",
"1431 627 OFFCURVE",
"1431 500 CURVE SMOOTH",
"1431 268 LINE SMOOTH",
"1431 222 OFFCURVE",
"1429 189 OFFCURVE",
"1424 169 CURVE SMOOTH",
"1419 148 OFFCURVE",
"1407 133 OFFCURVE",
"1390 123 CURVE SMOOTH",
"1357 104 OFFCURVE",
"1314 96 OFFCURVE",
"1281 96 CURVE",
"1281 0 LINE",
"1912 0 LINE",
"1912 96 LINE",
"1845 96 OFFCURVE",
"1800 106 OFFCURVE",
"1769 123 CURVE SMOOTH"
);
}
);
vertWidth = 2048;
width = 2048;
}
);
unicode = 040B;
},
{
color = 4;
glyphname = "Dje-cy";
lastChange = "2022-11-08 22:18:31 +0000";
layers = (
{
background = {
paths = (
{
closed = 1;
nodes = (
"1107 0 LINE",
"1107 100 LINE",
"1047 103 OFFCURVE",
"1019 122 OFFCURVE",
"991 143 CURVE SMOOTH",
"980 152 OFFCURVE",
"972 163 OFFCURVE",
"967 174 CURVE SMOOTH",
"955 197 OFFCURVE",
"952 232 OFFCURVE",
"952 295 CURVE SMOOTH",
"952 1430 LINE",
"1075 1430 LINE SMOOTH",
"1278 1430 OFFCURVE",
"1434 1278 OFFCURVE",
"1479 1090 CURVE",
"1569 1090 LINE",
"1546 1556 LINE",
"162 1556 LINE",
"129 1010 LINE",
"219 1010 LINE",
"264 1240 OFFCURVE",
"422 1430 OFFCURVE",
"633 1430 CURVE SMOOTH",
"636 1430 LINE",
"636 295 LINE SMOOTH",
"636 264 OFFCURVE",
"635 239 OFFCURVE",
"633 220 CURVE SMOOTH",
"629 182 OFFCURVE",
"620 162 OFFCURVE",
"597 143 CURVE SMOOTH",
"558 114 OFFCURVE",
"504 103 OFFCURVE",
"401 100 CURVE",
"401 0 LINE"
);
},
{
closed = 1;
nodes = (
"1718 -244 OFFCURVE",
"1884 -41 OFFCURVE",
"1886 305 CURVE SMOOTH",
"1886 703 OFFCURVE",
"1672 937 OFFCURVE",
"1309 937 CURVE SMOOTH",
"1127 937 OFFCURVE",
"996 881 OFFCURVE",
"891 792 CURVE",
"897 602 LINE",
"977 720 OFFCURVE",
"1073 777 OFFCURVE",
"1220 777 CURVE SMOOTH",
"1446 777 OFFCURVE",
"1581 600 OFFCURVE",
"1581 300 CURVE SMOOTH",
"1579 30 OFFCURVE",
"1519 -129 OFFCURVE",
"1419 -129 CURVE SMOOTH",
"1364 -129 OFFCURVE",
"1339 -109 OFFCURVE",
"1329 -84 CURVE",
"1360 -71 OFFCURVE",
"1396 -26 OFFCURVE",
"1396 26 CURVE SMOOTH",
"1396 98 OFFCURVE",
"1355 141 OFFCURVE",
"1286 141 CURVE SMOOTH",
"1207 141 OFFCURVE",
"1161 89 OFFCURVE",
"1161 0 CURVE SMOOTH",
"1161 -146 OFFCURVE",
"1280 -244 OFFCURVE",
"1439 -244 CURVE SMOOTH"
);
}
);
};
layerId = "4E782664-D0D5-4FED-AFC2-B9212141A2ED";
paths = (
{
closed = 1;
nodes = (
"1161 937 OFFCURVE",
"1046 900 OFFCURVE",
"952 838 CURVE",
"952 1430 LINE",
"1075 1430 LINE SMOOTH",
"1278 1430 OFFCURVE",
"1434 1278 OFFCURVE",
"1479 1090 CURVE",
"1569 1090 LINE",
"1546 1556 LINE",
"162 1556 LINE",
"129 1010 LINE",
"219 1010 LINE",
"264 1240 OFFCURVE",
"422 1430 OFFCURVE",
"633 1430 CURVE SMOOTH",
"636 1430 LINE",
"636 295 LINE SMOOTH",
"636 264 OFFCURVE",
"635 239 OFFCURVE",
"633 220 CURVE SMOOTH",
"629 182 OFFCURVE",
"620 162 OFFCURVE",
"597 143 CURVE SMOOTH",
"558 114 OFFCURVE",
"504 103 OFFCURVE",
"401 100 CURVE",
"401 0 LINE",
"1107 0 LINE",
"1107 100 LINE",
"1047 103 OFFCURVE",
"1019 122 OFFCURVE",
"991 143 CURVE SMOOTH",
"980 152 OFFCURVE",
"972 163 OFFCURVE",
"967 174 CURVE SMOOTH",
"955 197 OFFCURVE",
"952 232 OFFCURVE",
"952 295 CURVE SMOOTH",
"952 671 LINE",
"1021 742 OFFCURVE",
"1105 777 OFFCURVE",
"1220 777 CURVE SMOOTH",
"1446 777 OFFCURVE",
"1581 600 OFFCURVE",
"1581 300 CURVE SMOOTH",
"1579 30 OFFCURVE",
"1519 -129 OFFCURVE",
"1419 -129 CURVE SMOOTH",
"1364 -129 OFFCURVE",
"1339 -109 OFFCURVE",
"1329 -84 CURVE",
"1360 -71 OFFCURVE",
"1396 -26 OFFCURVE",
"1396 26 CURVE SMOOTH",
"1396 98 OFFCURVE",
"1355 141 OFFCURVE",
"1286 141 CURVE SMOOTH",
"1207 141 OFFCURVE",
"1161 89 OFFCURVE",
"1161 0 CURVE SMOOTH",
"1161 -146 OFFCURVE",
"1280 -244 OFFCURVE",
"1439 -244 CURVE SMOOTH",
"1718 -244 OFFCURVE",
"1884 -41 OFFCURVE",
"1886 305 CURVE SMOOTH",
"1886 703 OFFCURVE",
"1672 937 OFFCURVE",
"1309 937 CURVE SMOOTH"
);
}
);
vertWidth = 2048;
width = 2048;
}
);
unicode = 0402;
},
{
color = 4;
glyphname = "gje-cy";
lastChange = "2022-11-08 20:57:20 +0000";
layers = (
{
layerId = "4E782664-D0D5-4FED-AFC2-B9212141A2ED";
paths = (
{
closed = 1;
nodes = (
"453 1106 LINE",
"453 1016 LINE",
"532 1015 OFFCURVE",
"580 1006 OFFCURVE",
"608 979 CURVE SMOOTH",
"635 954 OFFCURVE",
"643 915 OFFCURVE",
"643 852 CURVE SMOOTH",
"643 248 LINE SMOOTH",
"643 195 OFFCURVE",
"635 158 OFFCURVE",
"606 133 CURVE SMOOTH",
"579 110 OFFCURVE",
"528 96 OFFCURVE",
"453 92 CURVE",
"453 0 LINE",
"1135 0 LINE",
"1135 96 LINE",
"1054 99 OFFCURVE",
"1008 112 OFFCURVE",
"979 133 CURVE SMOOTH",
"950 156 OFFCURVE",
"944 193 OFFCURVE",
"944 246 CURVE SMOOTH",
"944 895 LINE SMOOTH",
"944 928 OFFCURVE",
"950 954 OFFCURVE",
"967 971 CURVE SMOOTH",
"984 988 OFFCURVE",
"1016 997 OFFCURVE",
"1061 997 CURVE SMOOTH",
"1157 997 LINE SMOOTH",
"1252 997 OFFCURVE",
"1321 966 OFFCURVE",
"1372 907 CURVE SMOOTH",
"1425 848 OFFCURVE",
"1458 764 OFFCURVE",
"1477 657 CURVE",
"1571 657 LINE",
"1550 1106 LINE"
);
},
{
closed = 1;
nodes = (
"1218 1710 LINE",
"872 1298 LINE",
"932 1243 LINE",
"1401 1532 LINE"
);
}
);
vertWidth = 2048;
width = 2048;
}
);
unicode = 0453;
},
{
color = 4;
glyphname = "gheupturn-cy";
lastChange = "2022-11-08 20:57:52 +0000";
layers = (
{
background = {
paths = (
{
closed = 1;
nodes = (
"1384 1230 OFFCURVE",
"1300 1106 OFFCURVE",
"1120 1106 CURVE SMOOTH",
"502 1106 LINE",
"502 1032 LINE",
"578 1031 OFFCURVE",
"629 1019 OFFCURVE",
"656 995 CURVE SMOOTH",
"682 972 OFFCURVE",
"695 927 OFFCURVE",
"695 860 CURVE SMOOTH",
"695 238 LINE SMOOTH",
"695 177 OFFCURVE",
"684 136 OFFCURVE",
"663 114 CURVE SMOOTH",
"640 89 OFFCURVE",
"586 76 OFFCURVE",
"502 74 CURVE",
"502 0 LINE",
"1024 0 LINE",
"1024 74 LINE",
"947 76 OFFCURVE",
"896 87 OFFCURVE",
"872 107 CURVE SMOOTH",
"847 129 OFFCURVE",
"834 173 OFFCURVE",
"834 238 CURVE SMOOTH",
"834 856 LINE SMOOTH",
"834 918 OFFCURVE",
"844 959 OFFCURVE",
"864 979 CURVE SMOOTH",
"883 998 OFFCURVE",
"926 1008 OFFCURVE",
"993 1008 CURVE SMOOTH",
"1464 1008 LINE",
"1505 1462 LINE",
"1429 1462 LINE"
);
}
);
};
layerId = "4E782664-D0D5-4FED-AFC2-B9212141A2ED";
paths = (
{
closed = 1;
nodes = (
"984 988 OFFCURVE",
"1016 997 OFFCURVE",
"1061 997 CURVE SMOOTH",
"1550 997 LINE",
"1571 1446 LINE",
"1477 1446 LINE",
"1458 1339 OFFCURVE",
"1425 1255 OFFCURVE",
"1372 1196 CURVE SMOOTH",
"1321 1137 OFFCURVE",
"1252 1106 OFFCURVE",
"1157 1106 CURVE SMOOTH",
"453 1106 LINE",
"453 1016 LINE",
"532 1015 OFFCURVE",
"580 1006 OFFCURVE",
"608 979 CURVE SMOOTH",
"635 954 OFFCURVE",
"643 915 OFFCURVE",
"643 852 CURVE SMOOTH",
"643 248 LINE SMOOTH",
"643 195 OFFCURVE",
"635 158 OFFCURVE",
"606 133 CURVE SMOOTH",
"579 110 OFFCURVE",
"528 96 OFFCURVE",
"453 92 CURVE",
"453 0 LINE",
"1135 0 LINE",
"1135 96 LINE",
"1054 99 OFFCURVE",
"1008 112 OFFCURVE",
"979 133 CURVE SMOOTH",
"950 156 OFFCURVE",
"944 193 OFFCURVE",
"944 246 CURVE SMOOTH",
"944 895 LINE SMOOTH",
"944 928 OFFCURVE",
"950 954 OFFCURVE",
"967 971 CURVE SMOOTH"
);
}
);
vertWidth = 2048;
width = 2048;
}
);
unicode = 0491;
},
{
color = 4;
glyphname = "kje-cy";
lastChange = "2022-11-08 21:01:57 +0000";
layers = (
{
layerId = "4E782664-D0D5-4FED-AFC2-B9212141A2ED";
paths = (
{
closed = 1;
nodes = (
"1462 1141 OFFCURVE",
"1430 1134 OFFCURVE",
"1398 1121 CURVE SMOOTH",
"1334 1094 OFFCURVE",
"1271 1028 OFFCURVE",
"1214 893 CURVE SMOOTH",
"1145 732 OFFCURVE",
"1004 640 OFFCURVE",
"805 629 CURVE",
"805 866 LINE SMOOTH",
"805 969 OFFCURVE",
"844 1006 OFFCURVE",
"969 1010 CURVE",
"969 1106 LINE",
"340 1106 LINE",
"340 1010 LINE",
"407 1006 OFFCURVE",
"444 995 OFFCURVE",
"471 971 CURVE SMOOTH",
"496 948 OFFCURVE",
"504 911 OFFCURVE",
"504 854 CURVE SMOOTH",
"504 254 LINE SMOOTH",
"504 195 OFFCURVE",
"498 158 OFFCURVE",
"473 133 CURVE SMOOTH",
"450 110 OFFCURVE",
"406 98 OFFCURVE",
"340 96 CURVE",
"340 0 LINE",
"969 0 LINE",
"969 96 LINE",
"901 103 OFFCURVE",
"860 111 OFFCURVE",
"836 135 CURVE SMOOTH",
"811 160 OFFCURVE",
"805 197 OFFCURVE",
"805 254 CURVE SMOOTH",
"805 514 LINE",
"860 518 OFFCURVE",
"914 524 OFFCURVE",
"967 543 CURVE",
"1184 256 LINE SMOOTH",
"1204 229 OFFCURVE",
"1210 205 OFFCURVE",
"1210 180 CURVE SMOOTH",
"1210 152 OFFCURVE",
"1190 127 OFFCURVE",
"1161 115 CURVE",
"1140 104 OFFCURVE",
"1116 100 OFFCURVE",
"1079 96 CURVE",
"1079 0 LINE",
"1782 0 LINE",
"1782 96 LINE",
"1726 103 OFFCURVE",
"1686 116 OFFCURVE",
"1649 141 CURVE SMOOTH",
"1612 168 OFFCURVE",
"1577 207 OFFCURVE",
"1528 266 CURVE SMOOTH",
"1200 666 LINE",
"1243 698 OFFCURVE",
"1276 735 OFFCURVE",
"1305 807 CURVE SMOOTH",
"1340 895 OFFCURVE",
"1384 958 OFFCURVE",
"1409 977 CURVE",
"1411 962 OFFCURVE",
"1417 948 OFFCURVE",
"1428 933 CURVE SMOOTH",
"1448 904 OFFCURVE",
"1483 883 OFFCURVE",
"1526 883 CURVE SMOOTH",
"1546 883 OFFCURVE",
"1565 888 OFFCURVE",
"1582 899 CURVE SMOOTH",
"1617 919 OFFCURVE",
"1640 957 OFFCURVE",
"1640 1008 CURVE SMOOTH",
"1640 1035 OFFCURVE",
"1633 1059 OFFCURVE",
"1620 1079 CURVE SMOOTH",
"1592 1119 OFFCURVE",
"1546 1141 OFFCURVE",
"1495 1141 CURVE SMOOTH"
);
},
{
closed = 1;
nodes = (
"1238 1710 LINE",
"892 1298 LINE",
"952 1243 LINE",
"1421 1532 LINE"
);
}
);
vertWidth = 2048;
width = 2048;
}
);
unicode = 045C;
},
{
color = 4;
glyphname = "ushort-cy";
lastChange = "2022-11-08 21:02:17 +0000";
layers = (
{
layerId = "4E782664-D0D5-4FED-AFC2-B9212141A2ED";
paths = (
{
closed = 1;
nodes = (
"344 1106 LINE",
"344 1010 LINE",
"391 1009 OFFCURVE",
"434 991 OFFCURVE",
"469 971 CURVE SMOOTH",
"502 952 OFFCURVE",
"536 905 OFFCURVE",
"565 854 CURVE SMOOTH",
"965 150 LINE",
"926 76 LINE SMOOTH",
"860 -49 OFFCURVE",
"778 -112 OFFCURVE",
"717 -127 CURVE",
"741 -98 OFFCURVE",
"754 -70 OFFCURVE",
"754 -31 CURVE SMOOTH",
"754 -7 OFFCURVE",
"747 15 OFFCURVE",
"734 35 CURVE SMOOTH",
"706 75 OFFCURVE",
"661 100 OFFCURVE",
"614 100 CURVE SMOOTH",
"565 100 OFFCURVE",
"528 82 OFFCURVE",
"504 51 CURVE SMOOTH",
"485 26 OFFCURVE",
"475 -8 OFFCURVE",
"475 -51 CURVE SMOOTH",
"475 -84 OFFCURVE",
"485 -116 OFFCURVE",
"504 -145 CURVE SMOOTH",
"542 -204 OFFCURVE",
"609 -242 OFFCURVE",
"684 -242 CURVE SMOOTH",
"742 -242 OFFCURVE",
"794 -228 OFFCURVE",
"840 -201 CURVE SMOOTH",
"932 -146 OFFCURVE",
"1005 -50 OFFCURVE",
"1065 57 CURVE SMOOTH",
"1438 721 LINE SMOOTH",
"1508 845 OFFCURVE",
"1546 920 OFFCURVE",
"1585 956 CURVE SMOOTH",
"1616 985 OFFCURVE",
"1661 1010 OFFCURVE",
"1712 1010 CURVE",
"1712 1106 LINE",
"1221 1106 LINE",
"1221 1010 LINE",
"1242 1010 OFFCURVE",
"1263 1007 OFFCURVE",
"1284 1002 CURVE SMOOTH",
"1325 990 OFFCURVE",
"1370 975 OFFCURVE",
"1370 920 CURVE SMOOTH",
"1370 872 OFFCURVE",
"1357 841 OFFCURVE",
"1331 793 CURVE SMOOTH",
"1124 412 LINE",
"901 827 LINE SMOOTH",
"878 869 OFFCURVE",
"868 903 OFFCURVE",
"868 940 CURVE SMOOTH",
"868 965 OFFCURVE",
"885 982 OFFCURVE",
"909 991 CURVE SMOOTH",
"936 1002 OFFCURVE",
"971 1010 OFFCURVE",
"1014 1010 CURVE",
"1014 1106 LINE"
);
},
{
closed = 1;
nodes = (
"819 1534 OFFCURVE",
"796 1528 OFFCURVE",
"777 1515 CURVE SMOOTH",
"739 1490 OFFCURVE",
"719 1450 OFFCURVE",
"719 1415 CURVE SMOOTH",
"719 1335 OFFCURVE",
"770 1279 OFFCURVE",
"846 1244 CURVE SMOOTH",
"921 1208 OFFCURVE",
"1016 1192 OFFCURVE",
"1104 1192 CURVE SMOOTH",
"1192 1192 OFFCURVE",
"1287 1208 OFFCURVE",
"1363 1244 CURVE SMOOTH",
"1438 1279 OFFCURVE",
"1489 1335 OFFCURVE",
"1489 1415 CURVE SMOOTH",
"1489 1432 OFFCURVE",
"1484 1450 OFFCURVE",
"1475 1469 CURVE SMOOTH",
"1455 1505 OFFCURVE",
"1417 1534 OFFCURVE",
"1362 1534 CURVE SMOOTH",
"1339 1534 OFFCURVE",
"1317 1530 OFFCURVE",
"1297 1521 CURVE SMOOTH",
"1256 1503 OFFCURVE",
"1229 1466 OFFCURVE",
"1229 1411 CURVE SMOOTH",
"1229 1370 OFFCURVE",
"1251 1339 OFFCURVE",
"1276 1327 CURVE",
"1249 1303 OFFCURVE",
"1187 1288 OFFCURVE",
"1104 1288 CURVE SMOOTH",
"1023 1288 OFFCURVE",
"959 1303 OFFCURVE",
"932 1327 CURVE",
"957 1339 OFFCURVE",
"979 1370 OFFCURVE",
"979 1411 CURVE SMOOTH",
"979 1438 OFFCURVE",
"973 1461 OFFCURVE",
"961 1480 CURVE SMOOTH",
"936 1516 OFFCURVE",
"893 1534 OFFCURVE",
"846 1534 CURVE SMOOTH"
);
}
);
vertWidth = 2048;
width = 2048;
}
);
unicode = 045E;
},
{
color = 4;
glyphname = "dzhe-cy";
lastChange = "2022-11-08 21:03:04 +0000";
layers = (
{
background = {
paths = (
{
closed = 1;
nodes = (
"1720 0 LINE",
"1720 96 LINE",
"1649 100 OFFCURVE",
"1606 108 OFFCURVE",
"1581 131 CURVE SMOOTH",
"1556 154 OFFCURVE",
"1550 183 OFFCURVE",
"1550 238 CURVE SMOOTH",
"1550 854 LINE SMOOTH",
"1550 911 OFFCURVE",
"1559 948 OFFCURVE",
"1583 973 CURVE SMOOTH",
"1610 1000 OFFCURVE",
"1651 1007 OFFCURVE",
"1718 1010 CURVE",
"1718 1106 LINE",
"1104 1106 LINE",
"1104 1010 LINE",
"1171 1006 OFFCURVE",
"1204 997 OFFCURVE",
"1227 973 CURVE SMOOTH",
"1247 950 OFFCURVE",
"1249 911 OFFCURVE",
"1249 854 CURVE SMOOTH",
"1249 236 LINE SMOOTH",
"1249 185 OFFCURVE",
"1243 156 OFFCURVE",
"1223 135 CURVE SMOOTH",
"1202 115 OFFCURVE",
"1169 109 OFFCURVE",
"1114 109 CURVE SMOOTH",
"934 109 LINE SMOOTH",
"879 109 OFFCURVE",
"846 115 OFFCURVE",
"825 135 CURVE SMOOTH",
"805 156 OFFCURVE",
"799 185 OFFCURVE",
"799 236 CURVE SMOOTH",
"799 854 LINE SMOOTH",
"799 911 OFFCURVE",
"801 950 OFFCURVE",
"821 973 CURVE SMOOTH",
"844 997 OFFCURVE",
"877 1006 OFFCURVE",
"944 1010 CURVE",
"944 1106 LINE",
"330 1106 LINE",
"330 1010 LINE",
"397 1007 OFFCURVE",
"438 1000 OFFCURVE",
"465 973 CURVE SMOOTH",
"489 948 OFFCURVE",
"498 911 OFFCURVE",
"498 854 CURVE SMOOTH",
"498 238 LINE SMOOTH",
"498 183 OFFCURVE",
"492 154 OFFCURVE",
"467 131 CURVE SMOOTH",
"442 108 OFFCURVE",
"399 100 OFFCURVE",
"328 96 CURVE",
"328 0 LINE"
);
},
{
closed = 1;
nodes = (
"1000 93 LINE",
"620 0 LINE",
"850 0 OFFCURVE",
"924 -34 OFFCURVE",
"980 -241 CURVE",
"980 -244 LINE",
"1073 -244 LINE",
"1073 -241 LINE",
"1128 -36 OFFCURVE",
"1200 0 OFFCURVE",
"1433 0 CURVE",
"1053 93 LINE"
);
}
);
};
layerId = "4E782664-D0D5-4FED-AFC2-B9212141A2ED";
paths = (
{
closed = 1;
nodes = (
"1556 154 OFFCURVE",
"1550 183 OFFCURVE",
"1550 238 CURVE SMOOTH",
"1550 854 LINE SMOOTH",
"1550 911 OFFCURVE",
"1559 948 OFFCURVE",
"1583 973 CURVE SMOOTH",
"1610 1000 OFFCURVE",
"1651 1007 OFFCURVE",
"1718 1010 CURVE",
"1718 1106 LINE",
"1104 1106 LINE",
"1104 1010 LINE",
"1171 1006 OFFCURVE",
"1204 997 OFFCURVE",
"1227 973 CURVE SMOOTH",
"1247 950 OFFCURVE",
"1249 911 OFFCURVE",
"1249 854 CURVE SMOOTH",
"1249 236 LINE SMOOTH",
"1249 185 OFFCURVE",
"1243 156 OFFCURVE",
"1223 135 CURVE SMOOTH",
"1202 115 OFFCURVE",
"1169 109 OFFCURVE",
"1114 109 CURVE SMOOTH",
"934 109 LINE SMOOTH",
"879 109 OFFCURVE",
"846 115 OFFCURVE",
"825 135 CURVE SMOOTH",
"805 156 OFFCURVE",
"799 185 OFFCURVE",
"799 236 CURVE SMOOTH",
"799 854 LINE SMOOTH",
"799 911 OFFCURVE",
"801 950 OFFCURVE",
"821 973 CURVE SMOOTH",
"844 997 OFFCURVE",
"877 1006 OFFCURVE",
"944 1010 CURVE",
"944 1106 LINE",
"330 1106 LINE",
"330 1010 LINE",
"397 1007 OFFCURVE",
"438 1000 OFFCURVE",
"465 973 CURVE SMOOTH",
"489 948 OFFCURVE",
"498 911 OFFCURVE",
"498 854 CURVE SMOOTH",
"498 238 LINE SMOOTH",
"498 183 OFFCURVE",
"492 154 OFFCURVE",
"467 131 CURVE SMOOTH",
"442 108 OFFCURVE",
"399 100 OFFCURVE",
"328 96 CURVE",
"328 0 LINE",
"620 0 LINE SMOOTH",
"850 0 OFFCURVE",
"924 -34 OFFCURVE",
"980 -241 CURVE",
"980 -244 LINE",
"1073 -244 LINE",
"1073 -241 LINE",
"1128 -36 OFFCURVE",
"1200 0 OFFCURVE",
"1433 0 CURVE SMOOTH",
"1720 0 LINE",
"1720 96 LINE",
"1649 100 OFFCURVE",
"1606 108 OFFCURVE",
"1581 131 CURVE SMOOTH"
);
}
);
vertWidth = 2048;
width = 2048;
}
);
unicode = 045F;
},
